Lato-Medium.ufo
<glyph name="exclam" format="2">
  <advance width="544"/>
  <unicode hex="0021"/>
  <outline>
    <contour>
      <point x="180.4" y="1436" type="line" name="n00"/>
      <point x="180.4" y="864" type="line" smooth="yes"/>
      <point x="180.4" y="743.6"/>
      <point x="190.8" y="638.8"/>
      <point x="206.8" y="502.4" type="curve" name="n04"/>
      <point x="339.2" y="502.4" type="line"/>
      <point x="355.2" y="638.8"/>
      <point x="365.6" y="743.6"/>
      <point x="365.6" y="864" type="curve" smooth="yes" name="n08"/>
      <point x="365.6" y="1436" type="line"/>
    </contour>
    <contour>
      <point x="138.4" y="116.4" type="curve" smooth="yes" name="n10"/>
      <point x="138.4" y="42"/>
      <point x="195.2" y="-14.8"/>
      <point x="269.6" y="-14.8" type="curve" smooth="yes" name="n13"/>
      <point x="342.8" y="-14.8"/>
      <point x="401.6" y="42"/>
      <point x="401.6" y="116.4" type="curve" smooth="yes" name="n16"/>
      <point x="401.6" y="189.6"/>
      <point x="342.8" y="248.4"/>
      <point x="269.6" y="248.4" type="curve" smooth="yes" name="n19"/>
      <point x="195.2" y="248.4"/>
      <point x="138.4" y="189.6"/>
    </contour>
  </outline>
  <guideline angle="90" x="342" y="0"/>
</glyph>
<glyph name="numbersign" format="2">
  <advance width="1160"/>
  <unicode hex="0023"/>
  <outline>
    <contour>
      <point x="252.6" y="505.2" type="line"/>
      <point x="252.6" y="468.8" type="line"/>
      <point x="160.6" y="0" type="line" name="n02"/>
      <point x="247.4" y="0" type="line" smooth="yes"/>
      <point x="289" y="0"/>
      <point x="327.4" y="20.8"/>
      <point x="336.6" y="73.6" type="curve"/>
      <point x="413.8" y="468.8" type="line"/>
      <point x="413.8" y="505.2" type="line"/>
      <point x="498.2" y="936.8" type="line"/>
      <point x="498.2" y="973.6" type="line"/>
      <point x="589" y="1436" type="line" name="n11"/>
      <point x="500.6" y="1436" type="line" smooth="yes"/>
      <point x="458.2" y="1436"/>
      <point x="423.4" y="1410.4"/>
      <point x="415.4" y="1367.2" type="curve" smooth="yes"/>
      <point x="337" y="973.6" type="line"/>
      <point x="337" y="936.8" type="line"/>
    </contour>
    <contour>
      <point x="650.2" y="505.2" type="line"/>
      <point x="650.2" y="468.8" type="line"/>
      <point x="573" y="83.2" type="line"/>
      <point x="563" y="36.8"/>
      <point x="593" y="0"/>
      <point x="630.6" y="0" type="curve" smooth="yes"/>
      <point x="719.4" y="0" type="line"/>
      <point x="811.4" y="468.8" type="line"/>
      <point x="811.4" y="505.2" type="line"/>
      <point x="895.8" y="936.8" type="line"/>
      <point x="895.8" y="973.6" type="line"/>
      <point x="974.2" y="1364.4" type="line"/>
      <point x="981.8" y="1406"/>
      <point x="953.8" y="1436"/>
      <point x="912.2" y="1436" type="curve" smooth="yes"/>
      <point x="825.4" y="1436" type="line"/>
      <point x="734.6" y="973.6" type="line"/>
      <point x="734.6" y="936.8" type="line"/>
    </contour>
    <contour>
      <point x="1033.8" y="419.2" type="line" name="n36"/>
      <point x="1043.4" y="481.6" type="line" smooth="yes"/>
      <point x="1051.8" y="540"/>
      <point x="1032.6" y="562"/>
      <point x="992.2" y="562" type="curve" smooth="yes" name="n40"/>
      <point x="63.4" y="562" type="line"/>
      <point x="53.8" y="499.6" type="line" smooth="yes"/>
      <point x="45.4" y="441.2"/>
      <point x="64.6" y="419.2"/>
      <point x="105" y="419.2" type="curve" smooth="yes"/>
    </contour>
    <contour>
      <point x="97.8" y="875.2" type="line" name="n46"/>
      <point x="1012.2" y="875.2" type="line" smooth="yes"/>
      <point x="1068.2" y="875.2"/>
      <point x="1092.2" y="894.8"/>
      <point x="1099.4" y="936.4" type="curve" smooth="yes"/>
      <point x="1113.8" y="1018" type="line"/>
      <point x="199.4" y="1018" type="line" smooth="yes" name="n52"/>
      <point x="143.4" y="1018"/>
      <point x="119.4" y="998.4"/>
      <point x="112.2" y="956.8" type="curve" smooth="yes"/>
    </contour>
  </outline>
</glyph>
<glyph name="dollar" format="2">
  <advance width="1160.0"/>
  <unicode hex="0024"/>
  <outline>
    <contour>
      <point x="1027.4" y="1289.2" type="line"/>
      <point x="934.2" y="1381.6"/>
      <point x="806.6" y="1450.0"/>
      <point x="616.6" y="1450.0" type="curve" smooth="yes"/>
      <point x="319.4" y="1450.0"/>
      <point x="152.2" y="1255.6"/>
      <point x="152.2" y="1051.2" type="curve" smooth="yes"/>
      <point x="152.2" y="546.0"/>
      <point x="873.8" y="749.2"/>
      <point x="873.8" y="409.2" type="curve" smooth="yes"/>
      <point x="873.8" y="252.0"/>
      <point x="763.4" y="148.0"/>
      <point x="560.6" y="148.0" type="curve" smooth="yes"/>
      <point x="339.8" y="148.0"/>
      <point x="258.6" y="288.8"/>
      <point x="199.8" y="288.8" type="curve" smooth="yes"/>
      <point x="179.4" y="288.8"/>
      <point x="160.6" y="277.2"/>
      <point x="149.4" y="261.2" type="curve" smooth="yes"/>
      <point x="90.2" y="172.0" type="line"/>
      <point x="201.8" y="58.0"/>
      <point x="370.2" y="-16.0"/>
      <point x="560.6" y="-16.0" type="curve" smooth="yes"/>
      <point x="877.0" y="-16.0"/>
      <point x="1059.0" y="186.4"/>
      <point x="1059.0" y="439.6" type="curve" smooth="yes"/>
      <point x="1059.0" y="906.0"/>
      <point x="336.2" y="731.2"/>
      <point x="336.2" y="1070.4" type="curve" smooth="yes"/>
      <point x="336.2" y="1186.8"/>
      <point x="426.2" y="1284.8"/>
      <point x="634.6" y="1284.8" type="curve" smooth="yes"/>
      <point x="799.8" y="1284.8"/>
      <point x="886.6" y="1184.8"/>
      <point x="930.6" y="1184.8" type="curve" smooth="yes"/>
      <point x="951.4" y="1184.8"/>
      <point x="966.2" y="1195.2"/>
      <point x="980.2" y="1217.2" type="curve"/>
    </contour>
    <contour>
      <point x="467.0" y="-234.4" type="line"/>
      <point x="539.4" y="-234.4" type="line" smooth="yes"/>
      <point x="570.2" y="-234.4"/>
      <point x="592.2" y="-209.2"/>
      <point x="593.4" y="-182.4" type="curve"/>
      <point x="725.4" y="1640.8" type="line"/>
      <point x="653.0" y="1640.8" type="line" smooth="yes"/>
      <point x="622.2" y="1640.8"/>
      <point x="600.2" y="1615.6"/>
      <point x="599.0" y="1588.8" type="curve"/>
    </contour>
  </outline>
</glyph>
<glyph name="percent" format="2">
  <advance width="1612.0"/>
  <unicode hex="0025"/>
  <outline>
    <contour>
      <point x="728.0" y="1089.2" type="curve" smooth="yes"/>
      <point x="728.0" y="1318.0"/>
      <point x="589.2" y="1450.8"/>
      <point x="406.0" y="1450.8" type="curve" smooth="yes"/>
      <point x="223.2" y="1450.8"/>
      <point x="85.2" y="1318.0"/>
      <point x="85.2" y="1089.2" type="curve" smooth="yes"/>
      <point x="85.2" y="866.0"/>
      <point x="223.2" y="733.2"/>
      <point x="406.0" y="733.2" type="curve" smooth="yes"/>
      <point x="577.2" y="733.2"/>
      <point x="728.0" y="866.0"/>
    </contour>
    <contour>
      <point x="576.4" y="1089.2" type="curve" smooth="yes"/>
      <point x="576.4" y="922.0"/>
      <point x="500.4" y="861.6"/>
      <point x="406.0" y="861.6" type="curve" smooth="yes"/>
      <point x="311.6" y="861.6"/>
      <point x="238.0" y="922.0"/>
      <point x="238.0" y="1089.2" type="curve" smooth="yes"/>
      <point x="238.0" y="1260.0"/>
      <point x="311.6" y="1322.4"/>
      <point x="406.0" y="1322.4" type="curve" smooth="yes"/>
      <point x="500.4" y="1322.4"/>
      <point x="576.4" y="1260.0"/>
    </contour>
    <contour>
      <point x="174.4" y="0.0" type="line"/>
      <point x="319.2" y="0.0" type="line" smooth="yes"/>
      <point x="346.8" y="0.0"/>
      <point x="367.2" y="12.799999999999999"/>
      <point x="380.8" y="30.8" type="curve"/>
      <point x="1434.8" y="1436.0" type="line"/>
      <point x="1293.6" y="1436.0" type="line" smooth="yes"/>
      <point x="1259.2" y="1436.0"/>
      <point x="1242.0" y="1420.8"/>
      <point x="1228.4" y="1404.0" type="curve"/>
    </contour>
    <contour>
      <point x="1526.8" y="338.8" type="curve" smooth="yes"/>
      <point x="1526.8" y="567.6"/>
      <point x="1388.0" y="700.4"/>
      <point x="1204.8" y="700.4" type="curve" smooth="yes"/>
      <point x="1022.0" y="700.4"/>
      <point x="884.0" y="567.6"/>
      <point x="884.0" y="338.8" type="curve" smooth="yes"/>
      <point x="884.0" y="115.6"/>
      <point x="1022.0" y="-17.2"/>
      <point x="1204.8" y="-17.2" type="curve" smooth="yes"/>
      <point x="1376.0" y="-17.2"/>
      <point x="1526.8" y="115.6"/>
    </contour>
    <contour>
      <point x="1375.2" y="338.8" type="curve" smooth="yes"/>
      <point x="1375.2" y="171.6"/>
      <point x="1299.2" y="111.2"/>
      <point x="1204.8" y="111.2" type="curve" smooth="yes"/>
      <point x="1110.4" y="111.2"/>
      <point x="1036.8" y="171.6"/>
      <point x="1036.8" y="338.8" type="curve" smooth="yes"/>
      <point x="1036.8" y="509.6"/>
      <point x="1110.4" y="572.0"/>
      <point x="1204.8" y="572.0" type="curve" smooth="yes"/>
      <point x="1299.2" y="572.0"/>
      <point x="1375.2" y="509.6"/>
    </contour>
  </outline>
</glyph>
<glyph name="ampersand" format="2">
  <advance width="1429.8"/>
  <unicode hex="0026"/>
  <outline>
    <contour>
      <point x="481.4" y="831.2" type="line"/>
      <point x="259.8" y="766.8"/>
      <point x="84.6" y="600.4"/>
      <point x="84.6" y="386.0" type="curve" smooth="yes"/>
      <point x="84.6" y="135.2"/>
      <point x="303.0" y="-16.0"/>
      <point x="518.2" y="-16.0" type="curve" smooth="yes"/>
      <point x="950.6" y="-16.0"/>
      <point x="1250.6" y="359.6"/>
      <point x="1253.8" y="750.4" type="curve"/>
      <point x="1133.0" y="750.4" type="line" smooth="yes"/>
      <point x="1107.4" y="750.4"/>
      <point x="1093.4" y="733.6"/>
      <point x="1090.2" y="706.8" type="curve"/>
      <point x="1065.0" y="434.4"/>
      <point x="877.0" y="142.0"/>
      <point x="551.8" y="142.0" type="curve" smooth="yes"/>
      <point x="415.4" y="142.0"/>
      <point x="283.79999999999995" y="235.6"/>
      <point x="283.79999999999995" y="401.6" type="curve" smooth="yes"/>
      <point x="283.79999999999995" y="552.4"/>
      <point x="390.2" y="682.4"/>
      <point x="605.0" y="751.6" type="curve"/>
    </contour>
    <contour>
      <point x="668.2" y="1452.0" type="curve"/>
      <point x="425.4" y="1452.0"/>
      <point x="277.8" y="1292.8"/>
      <point x="277.8" y="1096.8" type="curve" smooth="yes"/>
      <point x="277.8" y="969.2"/>
      <point x="335.8" y="849.6"/>
      <point x="464.2" y="715.6" type="curve" smooth="yes"/>
      <point x="1133.0" y="38.8" type="line"/>
      <point x="1163.0" y="7.199999999999999"/>
      <point x="1183.4" y="0.0"/>
      <point x="1225.4" y="0.0" type="curve" smooth="yes"/>
      <point x="1415.4" y="0.0" type="line"/>
      <point x="597.0" y="836.0" type="line" smooth="yes"/>
      <point x="499.8" y="934.4"/>
      <point x="460.2" y="1008.8"/>
      <point x="460.2" y="1098.0" type="curve" smooth="yes"/>
      <point x="460.2" y="1211.6"/>
      <point x="540.2" y="1301.2"/>
      <point x="668.2" y="1301.2" type="curve" smooth="yes"/>
      <point x="783.0" y="1301.2"/>
      <point x="841.0" y="1219.6"/>
      <point x="861.4" y="1150.0" type="curve"/>
      <point x="871.8" y="1123.6"/>
      <point x="891.8" y="1112.4"/>
      <point x="914.6" y="1117.2" type="curve" smooth="yes"/>
      <point x="1037.0" y="1142.4" type="line"/>
      <point x="1026.2" y="1303.6"/>
      <point x="884.6" y="1452.0"/>
    </contour>
  </outline>
</glyph>
<glyph name="quotesingle" format="2">
  <advance width="412.0"/>
  <unicode hex="0027"/>
  <guideline x="252.8"/>
  <outline>
    <contour>
      <point x="121.0" y="1436.0" type="line"/>
      <point x="121.0" y="1146.8" type="line"/>
      <point x="138.6" y="991.2" type="line"/>
      <point x="147.0" y="945.2"/>
      <point x="167.0" y="918.4"/>
      <point x="205.4" y="918.4" type="curve" smooth="yes"/>
      <point x="249.8" y="918.4"/>
      <point x="266.2" y="945.2"/>
      <point x="273.4" y="991.2" type="curve"/>
      <point x="291.0" y="1146.8" type="line"/>
      <point x="291.0" y="1436.0" type="line"/>
    </contour>
  </outline>
</glyph>
<glyph name="parenleft" format="2">
  <advance width="537.6"/>
  <unicode hex="0028"/>
  <outline>
    <contour>
      <point x="255.6" y="628.4" type="curve"/>
      <point x="255.6" y="909.6"/>
      <point x="329.2" y="1184.4"/>
      <point x="464.4" y="1423.2" type="curve"/>
      <point x="487.2" y="1467.2"/>
      <point x="469.6" y="1488.8"/>
      <point x="447.6" y="1502.8" type="curve"/>
      <point x="360.8" y="1555.6" type="line"/>
      <point x="161.2" y="1248.4"/>
      <point x="86.0" y="954.8"/>
      <point x="86.0" y="628.4" type="curve"/>
      <point x="86.0" y="302.0"/>
      <point x="161.2" y="8.400000000000006"/>
      <point x="360.8" y="-298.8" type="curve"/>
      <point x="447.6" y="-246.0" type="line"/>
      <point x="469.6" y="-232.0"/>
      <point x="487.2" y="-210.4"/>
      <point x="464.4" y="-166.4" type="curve"/>
      <point x="329.2" y="72.4"/>
      <point x="255.6" y="347.2"/>
    </contour>
  </outline>
</glyph>
<glyph name="parenright" format="2">
  <advance width="538"/>
  <unicode hex="0029"/>
  <outline>
    <contour>
      <point x="282" y="628.4" type="curve" smooth="yes" name="n00"/>
      <point x="282" y="347.2"/>
      <point x="208.4" y="72.4"/>
      <point x="73.2" y="-166.4" type="curve"/>
      <point x="50.4" y="-210.4"/>
      <point x="68" y="-232"/>
      <point x="90" y="-246" type="curve" smooth="yes"/>
      <point x="176.8" y="-298.8" type="line" name="n07"/>
      <point x="376.4" y="8.4"/>
      <point x="451.6" y="302"/>
      <point x="451.6" y="628.4" type="curve" smooth="yes" name="n10"/>
      <point x="451.6" y="954.8"/>
      <point x="376.4" y="1248.4"/>
      <point x="176.8" y="1555.6" type="curve" name="n13"/>
      <point x="90" y="1502.8" type="line" smooth="yes"/>
      <point x="68" y="1488.8"/>
      <point x="50.4" y="1467.2"/>
      <point x="73.2" y="1423.2" type="curve"/>
      <point x="208.4" y="1184.4"/>
      <point x="282" y="909.6"/>
    </contour>
  </outline>
</glyph>
<glyph name="asterisk" format="2">
  <advance width="850"/>
  <unicode hex="002A"/>
  <outline>
    <contour>
      <point x="166" y="977.6" type="line"/>
      <point x="334.4" y="1075.2" type="line" smooth="yes"/>
      <point x="366.4" y="1094"/>
      <point x="389.6" y="1114"/>
      <point x="405.2" y="1146.4" type="curve"/>
      <point x="385.2" y="1182.4" type="line"/>
      <point x="349.2" y="1185.2"/>
      <point x="319.2" y="1175.6"/>
      <point x="287.2" y="1156.8" type="curve" smooth="yes"/>
      <point x="118.8" y="1059.2" type="line"/>
    </contour>
    <contour>
      <point x="472.4" y="856.4" type="line" name="n10"/>
      <point x="472.4" y="1050.8" type="line" smooth="yes" name="n11"/>
      <point x="472.4" y="1087.2"/>
      <point x="464.4" y="1117.6"/>
      <point x="444.8" y="1147.2" type="curve"/>
      <point x="405.2" y="1147.2" type="line"/>
      <point x="383.6" y="1119.6"/>
      <point x="376.8" y="1087.2"/>
      <point x="376.8" y="1049.6" type="curve" smooth="yes" name="n18"/>
      <point x="376.8" y="856.4" type="line"/>
    </contour>
    <contour>
      <point x="732" y="1058" type="line"/>
      <point x="562.8" y="1156.8" type="line"/>
      <point x="530.8" y="1176.8"/>
      <point x="500.4" y="1185.2"/>
      <point x="464.8" y="1182.4" type="curve"/>
      <point x="444.8" y="1146.4" type="line"/>
      <point x="460" y="1113.2"/>
      <point x="483.6" y="1094"/>
      <point x="515.6" y="1075.2" type="curve" smooth="yes"/>
      <point x="684.8" y="976.4" type="line"/>
    </contour>
    <contour>
      <point x="376.8" y="1508.4" type="line" name="n30"/>
      <point x="376.8" y="1314" type="line" smooth="yes"/>
      <point x="376.8" y="1277.6"/>
      <point x="384.8" y="1246.4"/>
      <point x="405.2" y="1216.8" type="curve"/>
      <point x="444.8" y="1216.8" type="line"/>
      <point x="466.4" y="1245.2"/>
      <point x="472.4" y="1277.6"/>
      <point x="472.4" y="1315.2" type="curve" smooth="yes"/>
      <point x="472.4" y="1508.4" type="line"/>
    </contour>
    <contour>
      <point x="118" y="1306.8" type="line"/>
      <point x="287.2" y="1208" type="line"/>
      <point x="319.2" y="1188"/>
      <point x="349.6" y="1179.6"/>
      <point x="385.2" y="1181.6" type="curve"/>
      <point x="405.2" y="1217.6" type="line"/>
      <point x="389.2" y="1250"/>
      <point x="366.4" y="1270.8"/>
      <point x="334.4" y="1289.6" type="curve" smooth="yes"/>
      <point x="165.2" y="1388.4" type="line"/>
    </contour>
    <contour>
      <point x="684" y="1387.2" type="line"/>
      <point x="515.6" y="1289.6" type="line" smooth="yes"/>
      <point x="483.6" y="1270.8"/>
      <point x="460.4" y="1250"/>
      <point x="444.8" y="1217.6" type="curve"/>
      <point x="464.8" y="1181.6" type="line"/>
      <point x="500.8" y="1178"/>
      <point x="530.8" y="1189.2"/>
      <point x="562.8" y="1208" type="curve" smooth="yes"/>
      <point x="731.2" y="1305.6" type="line"/>
    </contour>
    <contour>
      <point x="378.8" y="1204.8" type="line"/>
      <point x="373.6" y="1150.8" type="line"/>
      <point x="419.2" y="1118" type="line"/>
      <point x="474.4" y="1149.6" type="line"/>
      <point x="475.2" y="1211.6" type="line"/>
      <point x="430" y="1233.2" type="line"/>
    </contour>
  </outline>
</glyph>
<glyph name="plus" format="2">
  <advance width="1160.0"/>
  <unicode hex="002B"/>
  <outline>
    <contour>
      <point x="99.0" y="597.6" type="line"/>
      <point x="1061.8" y="597.6" type="line"/>
      <point x="1061.8" y="744.8" type="line"/>
      <point x="99.0" y="744.8" type="line"/>
    </contour>
    <contour>
      <point x="499.8" y="1168.0" type="line"/>
      <point x="499.8" y="172.4" type="line"/>
      <point x="659.0" y="172.4" type="line"/>
      <point x="659.0" y="1168.0" type="line"/>
    </contour>
  </outline>
</glyph>
<glyph name="comma" format="2">
  <advance width="458"/>
  <unicode hex="002C"/>
  <outline>
    <contour>
      <point x="102.2" y="130" type="curve" smooth="yes" name="n00"/>
      <point x="102.2" y="55.6"/>
      <point x="152.6" y="0.4"/>
      <point x="225.4" y="0.4" type="curve" smooth="yes" name="n03"/>
      <point x="255.4" y="0.4"/>
      <point x="276.6" y="8.4"/>
      <point x="292.2" y="20.8" type="curve"/>
      <point x="237.8" y="38.8" type="line" name="n07"/>
      <point x="237.8" y="-65"/>
      <point x="159" y="-149.2"/>
      <point x="127.8" y="-183.2" type="curve" smooth="yes"/>
      <point x="119.2" y="-192.2"/>
      <point x="112.2" y="-203.2"/>
      <point x="112.2" y="-212.4" type="curve" smooth="yes"/>
      <point x="112.2" y="-225.2"/>
      <point x="115.8" y="-233.2"/>
      <point x="126.6" y="-242.8" type="curve" smooth="yes"/>
      <point x="160.2" y="-274" type="line" name="n17"/>
      <point x="285.8" y="-170.8"/>
      <point x="357.4" y="-21.6"/>
      <point x="357.4" y="99.6" type="curve" smooth="yes" name="n20"/>
      <point x="357.4" y="182"/>
      <point x="313.4" y="248.4"/>
      <point x="227" y="248.4" type="curve" smooth="yes" name="n23"/>
      <point x="152.6" y="248.4"/>
      <point x="102.2" y="195.6"/>
    </contour>
  </outline>
</glyph>
<glyph name="hyphen" format="2">
  <advance width="744"/>
  <unicode hex="002D"/>
  <unicode hex="00AD"/>
  <unicode hex="2010"/>
  <outline>
    <contour>
      <point x="122" y="518" type="line" name="n00"/>
      <point x="622" y="518" type="line"/>
      <point x="622" y="683.2" type="line"/>
      <point x="122" y="683.2" type="line" name="n03"/>
    </contour>
  </outline>
</glyph>
<glyph name="period" format="2">
  <advance width="472.4"/>
  <unicode hex="002E"/>
  <outline>
    <contour>
      <point x="104.6" y="116.39999999999999" type="curve" smooth="yes"/>
      <point x="104.6" y="42.0"/>
      <point x="161.4" y="-14.8"/>
      <point x="235.8" y="-14.8" type="curve" smooth="yes"/>
      <point x="309.0" y="-14.8"/>
      <point x="367.8" y="42.0"/>
      <point x="367.8" y="116.39999999999999" type="curve" smooth="yes"/>
      <point x="367.8" y="189.6"/>
      <point x="309.0" y="248.4"/>
      <point x="235.8" y="248.4" type="curve" smooth="yes"/>
      <point x="161.4" y="248.4"/>
      <point x="104.6" y="189.6"/>
    </contour>
  </outline>
</glyph>
<glyph name="slash" format="2">
  <advance width="910.8"/>
  <unicode hex="002F"/>
  <outline>
    <contour>
      <point x="846.2" y="1476.0" type="line"/>
      <point x="763.0" y="1476.0" type="line" smooth="yes"/>
      <point x="715.8" y="1476.0"/>
      <point x="678.6" y="1450.4"/>
      <point x="661.4" y="1405.2" type="curve"/>
      <point x="64.6" y="-91.2" type="line"/>
      <point x="147.0" y="-91.2" type="line" smooth="yes"/>
      <point x="188.6" y="-91.2"/>
      <point x="234.6" y="-66.4"/>
      <point x="253.0" y="-16.800000000000004" type="curve" smooth="yes"/>
    </contour>
  </outline>
</glyph>
<glyph name="zero" format="2">
  <advance width="1160"/>
  <unicode hex="0030"/>
  <outline>
    <contour>
      <point x="1102.4" y="718" type="curve" smooth="yes" name="n00"/>
      <point x="1102.4" y="1220"/>
      <point x="872.8" y="1452"/>
      <point x="578.8" y="1452" type="curve" smooth="yes" name="n03"/>
      <point x="284.8" y="1452"/>
      <point x="57.6" y="1220"/>
      <point x="57.6" y="718" type="curve" smooth="yes" name="n06"/>
      <point x="57.6" y="216"/>
      <point x="284.8" y="-15.2"/>
      <point x="578.8" y="-15.2" type="curve" smooth="yes" name="n09"/>
      <point x="872.8" y="-15.2"/>
      <point x="1102.4" y="216"/>
    </contour>
    <contour>
      <point x="900" y="718" type="curve" smooth="yes" name="n12"/>
      <point x="900" y="286"/>
      <point x="747.2" y="148.8"/>
      <point x="578.8" y="148.8" type="curve" smooth="yes" name="n15"/>
      <point x="410.4" y="148.8"/>
      <point x="259.2" y="286"/>
      <point x="259.2" y="718" type="curve" smooth="yes" name="n18"/>
      <point x="259.2" y="1150"/>
      <point x="410.4" y="1288"/>
      <point x="578.8" y="1288" type="curve" smooth="yes" name="n21"/>
      <point x="747.2" y="1288"/>
      <point x="900" y="1150"/>
    </contour>
  </outline>
</glyph>
<glyph name="one" format="2">
  <advance width="1160.0"/>
  <unicode hex="0031"/>
  <outline>
    <contour>
      <point x="586.2" y="1439.2" type="line"/>
      <point x="565.8" y="1327.6"/>
      <point x="549.8" y="1200.8"/>
      <point x="549.8" y="1091.6" type="curve" smooth="yes"/>
      <point x="549.8" y="0.0" type="line"/>
      <point x="745.4" y="0.0" type="line"/>
      <point x="745.4" y="1439.2" type="line"/>
    </contour>
    <contour>
      <point x="245.8" y="0.0" type="line"/>
      <point x="1022.2" y="0.0" type="line"/>
      <point x="1022.2" y="148.4" type="line"/>
      <point x="245.8" y="148.4" type="line"/>
    </contour>
    <contour>
      <point x="156.2" y="1068.4" type="line"/>
      <point x="217.4" y="983.6" type="line"/>
      <point x="231.8" y="964.4"/>
      <point x="272.2" y="946.4"/>
      <point x="309.4" y="976.4" type="curve"/>
      <point x="587.4" y="1213.6" type="line"/>
      <point x="586.2" y="1439.2" type="line"/>
    </contour>
  </outline>
</glyph>
<glyph name="two" format="2">
  <advance width="1160"/>
  <unicode hex="0032"/>
  <outline>
    <contour>
      <point x="592" y="1452" type="curve" smooth="yes" name="n00"/>
      <point x="343.6" y="1452"/>
      <point x="156" y="1310.8"/>
      <point x="117.6" y="1044.8" type="curve"/>
      <point x="220" y="1026.8" type="line"/>
      <point x="273.6" y="1018.4"/>
      <point x="300" y="1033.2"/>
      <point x="317.6" y="1083.6" type="curve"/>
      <point x="344.8" y="1200.8"/>
      <point x="442.8" y="1285.6"/>
      <point x="581.2" y="1285.6" type="curve" smooth="yes" name="n10"/>
      <point x="721.2" y="1285.6"/>
      <point x="826.8" y="1205.6"/>
      <point x="826.8" y="1044" type="curve" smooth="yes" name="n13"/>
      <point x="826.8" y="881.2"/>
      <point x="730.8" y="758"/>
      <point x="578.8" y="604.4" type="curve" smooth="yes"/>
      <point x="125.2" y="148.8" type="line"/>
      <point x="100.4" y="125.2"/>
      <point x="89.6" y="92.8"/>
      <point x="89.6" y="66.4" type="curve" smooth="yes"/>
      <point x="89.6" y="0" type="line"/>
      <point x="1054.4" y="0" type="line" name="n22"/>
      <point x="1054.4" y="117.6" type="line" smooth="yes"/>
      <point x="1054.4" y="157.2"/>
      <point x="1027.6" y="184"/>
      <point x="985.6" y="184" type="curve" smooth="yes" name="n26"/>
      <point x="532.8" y="184" type="line" smooth="yes"/>
      <point x="439.6" y="184"/>
      <point x="321.2" y="152"/>
      <point x="244.4" y="114.4" type="curve"/>
      <point x="248.8" y="38.4" type="line"/>
      <point x="732" y="531.6" type="line" smooth="yes"/>
      <point x="890.8" y="692.4"/>
      <point x="1027.2" y="837.2"/>
      <point x="1027.2" y="1050" type="curve" smooth="yes" name="n35"/>
      <point x="1027.2" y="1300.8"/>
      <point x="841.6" y="1452"/>
    </contour>
  </outline>
</glyph>
<glyph name="three" format="2">
  <advance width="1160.0"/>
  <unicode hex="0033"/>
  <outline>
    <contour>
      <point x="598.8" y="1452.0" type="curve" smooth="yes"/>
      <point x="350.4" y="1452.0"/>
      <point x="162.8" y="1310.8"/>
      <point x="124.4" y="1044.8" type="curve"/>
      <point x="226.8" y="1026.8" type="line" smooth="yes"/>
      <point x="280.4" y="1018.4"/>
      <point x="306.0" y="1033.2"/>
      <point x="323.6" y="1083.6" type="curve" smooth="yes"/>
      <point x="350.8" y="1200.8"/>
      <point x="449.6" y="1285.6"/>
      <point x="588.0" y="1285.6" type="curve" smooth="yes"/>
      <point x="728.0" y="1285.6"/>
      <point x="830.4" y="1208.0"/>
      <point x="830.4" y="1050.4" type="curve" smooth="yes"/>
      <point x="830.4" y="907.2"/>
      <point x="743.2" y="809.2"/>
      <point x="498.4" y="806.0" type="curve"/>
      <point x="498.4" y="665.2" type="line"/>
      <point x="796.8" y="664.4"/>
      <point x="857.2" y="559.6"/>
      <point x="857.2" y="409.6" type="curve" smooth="yes"/>
      <point x="857.2" y="289.6"/>
      <point x="761.2" y="150.4"/>
      <point x="568.8" y="150.4" type="curve" smooth="yes"/>
      <point x="370.0" y="150.4"/>
      <point x="314.0" y="289.6"/>
      <point x="274.8" y="368.4" type="curve" smooth="yes"/>
      <point x="256.8" y="406.4"/>
      <point x="210.39999999999998" y="414.4"/>
      <point x="165.6" y="395.6" type="curve" smooth="yes"/>
      <point x="81.2" y="360.0" type="line"/>
      <point x="150.4" y="138.4"/>
      <point x="270.4" y="-16.0"/>
      <point x="571.2" y="-16.0" type="curve" smooth="yes"/>
      <point x="834.8" y="-16.0"/>
      <point x="1052.8" y="146.0"/>
      <point x="1052.8" y="415.6" type="curve" smooth="yes"/>
      <point x="1052.8" y="639.2"/>
      <point x="897.2" y="770.8"/>
      <point x="592.0" y="782.8" type="curve"/>
      <point x="592.0" y="724.0" type="line"/>
      <point x="846.0" y="742.4"/>
      <point x="1021.2" y="834.4"/>
      <point x="1021.2" y="1084.0" type="curve" smooth="yes"/>
      <point x="1021.2" y="1303.2"/>
      <point x="848.4" y="1452.0"/>
    </contour>
  </outline>
</glyph>
<glyph name="four" format="2">
  <advance width="1160.0"/>
  <unicode hex="0034"/>
  <outline>
    <contour>
      <point x="896.6" y="1436.8" type="line"/>
      <point x="713.4" y="1436.8" type="line"/>
      <point x="19.4" y="513.6" type="line"/>
      <point x="39.400000000000006" y="414.4" type="line"/>
      <point x="45.0" y="389.2"/>
      <point x="67.4" y="370.8"/>
      <point x="95.8" y="370.8" type="curve" smooth="yes"/>
      <point x="1062.6" y="370.8" type="line" smooth="yes"/>
      <point x="1090.2" y="370.8"/>
      <point x="1105.0" y="389.2"/>
      <point x="1105.0" y="411.6" type="curve" smooth="yes"/>
      <point x="1105.0" y="524.0" type="line"/>
      <point x="68.2" y="524.0" type="line"/>
      <point x="164.6" y="434.0" type="line"/>
      <point x="841.4" y="1358.8" type="line"/>
      <point x="769.0" y="1372.4" type="line"/>
      <point x="737.4" y="1273.2"/>
      <point x="725.8" y="1165.6"/>
      <point x="725.8" y="1085.6" type="curve" smooth="yes"/>
      <point x="725.8" y="0.0" type="line"/>
      <point x="896.6" y="0.0" type="line"/>
    </contour>
  </outline>
</glyph>
<glyph name="five" format="2">
  <advance width="1160.0"/>
  <unicode hex="0035"/>
  <outline>
    <contour>
      <point x="986.6" y="1436.0" type="line"/>
      <point x="299.0" y="1436.0" type="line"/>
      <point x="182.2" y="758.4" type="line"/>
      <point x="304.6" y="722.8" type="line"/>
      <point x="383.6" y="748.0"/>
      <point x="460.4" y="760.6"/>
      <point x="531.4" y="760.6" type="curve" smooth="yes"/>
      <point x="733.4" y="760.6"/>
      <point x="835.4" y="651.0"/>
      <point x="835.4" y="478.0" type="curve" smooth="yes"/>
      <point x="835.4" y="282.0"/>
      <point x="716.2" y="150.79999999999998"/>
      <point x="521.4" y="150.79999999999998" type="curve" smooth="yes"/>
      <point x="345.4" y="150.79999999999998"/>
      <point x="273.4" y="250.79999999999998"/>
      <point x="217.4" y="250.79999999999998" type="curve" smooth="yes"/>
      <point x="197.0" y="250.79999999999998"/>
      <point x="178.6" y="241.6"/>
      <point x="165.8" y="223.2" type="curve"/>
      <point x="105.8" y="139.6" type="line"/>
      <point x="197.0" y="57.599999999999994"/>
      <point x="339.0" y="-16.0"/>
      <point x="510.6" y="-16.0" type="curve" smooth="yes"/>
      <point x="805.4" y="-16.0"/>
      <point x="1031.8" y="182.0"/>
      <point x="1031.8" y="486.8" type="curve" smooth="yes"/>
      <point x="1031.8" y="733.6"/>
      <point x="872.4" y="922.2"/>
      <point x="572.2" y="922.2" type="curve" smooth="yes"/>
      <point x="489.4" y="922.2"/>
      <point x="396.0" y="909.0"/>
      <point x="291.8" y="878.4" type="curve"/>
      <point x="348.2" y="756.8" type="line"/>
      <point x="463.4" y="1417.6" type="line"/>
      <point x="319.8" y="1256.8" type="line"/>
      <point x="871.8" y="1256.8" type="line" smooth="yes"/>
      <point x="954.2" y="1256.8"/>
      <point x="986.6" y="1296.4"/>
      <point x="986.6" y="1351.6" type="curve" smooth="yes"/>
    </contour>
  </outline>
</glyph>
<glyph name="six" format="2">
  <advance width="1160.0"/>
  <unicode hex="0036"/>
  <outline>
    <contour>
      <point x="290.0" y="445.2" type="curve"/>
      <point x="290.0" y="600.8"/>
      <point x="405.6" y="735.6"/>
      <point x="588.8" y="735.6" type="curve" smooth="yes"/>
      <point x="763.6" y="735.6"/>
      <point x="882.8" y="624.4"/>
      <point x="882.8" y="441.2" type="curve" smooth="yes"/>
      <point x="882.8" y="272.4"/>
      <point x="760.8" y="145.6"/>
      <point x="578.4" y="145.6" type="curve" smooth="yes"/>
      <point x="394.4" y="145.6"/>
      <point x="290.0" y="268.0"/>
    </contour>
    <contour>
      <point x="282.4" y="482.4" type="line"/>
      <point x="284.0" y="638.0"/>
      <point x="364.0" y="750.0"/>
      <point x="485.6" y="902.0" type="curve"/>
      <point x="912.0" y="1436.0" type="line"/>
      <point x="738.4" y="1436.0" type="line" smooth="yes"/>
      <point x="692.4" y="1436.0"/>
      <point x="653.6" y="1415.6"/>
      <point x="634.0" y="1389.2" type="curve"/>
      <point x="274.8" y="907.2" type="line"/>
      <point x="156.0" y="747.6"/>
      <point x="101.6" y="604.8"/>
      <point x="101.6" y="478.0" type="curve" smooth="yes"/>
      <point x="101.6" y="178.8"/>
      <point x="288.8" y="-16.0"/>
      <point x="582.0" y="-16.0" type="curve" smooth="yes"/>
      <point x="876.8" y="-16.0"/>
      <point x="1078.4" y="191.2"/>
      <point x="1078.4" y="455.6" type="curve" smooth="yes"/>
      <point x="1078.4" y="732.8"/>
      <point x="881.6" y="884.0"/>
      <point x="654.0" y="884.0" type="curve" smooth="yes"/>
      <point x="404.0" y="884.0"/>
      <point x="241.2" y="700.0"/>
      <point x="241.2" y="480.0" type="curve"/>
    </contour>
  </outline>
</glyph>
<glyph name="seven" format="2">
  <advance width="1160.0"/>
  <unicode hex="0037"/>
  <outline>
    <contour>
      <point x="103.80000000000001" y="1436.0" type="line"/>
      <point x="103.80000000000001" y="1303.6" type="line" smooth="yes"/>
      <point x="103.80000000000001" y="1278.8"/>
      <point x="125.8" y="1256.8"/>
      <point x="150.6" y="1256.8" type="curve" smooth="yes"/>
      <point x="1045.4" y="1256.8" type="line"/>
      <point x="904.6" y="1277.2" type="line"/>
      <point x="871.0" y="1244.8"/>
      <point x="846.6" y="1208.8"/>
      <point x="822.2" y="1162.4" type="curve" smooth="yes"/>
      <point x="231.0" y="0.0" type="line"/>
      <point x="371.4" y="0.0" type="line" smooth="yes"/>
      <point x="427.0" y="0.0"/>
      <point x="459.0" y="30.4"/>
      <point x="477.4" y="68.4" type="curve" smooth="yes"/>
      <point x="1059.4" y="1248.0" type="line" smooth="yes"/>
      <point x="1069.8" y="1270.0"/>
      <point x="1083.8" y="1300.0"/>
      <point x="1083.8" y="1349.6" type="curve"/>
      <point x="1083.8" y="1436.0" type="line"/>
    </contour>
  </outline>
</glyph>
<glyph name="eight" format="2">
  <advance width="1160"/>
  <unicode hex="0038"/>
  <outline>
    <contour>
      <point x="580" y="-16" type="curve" smooth="yes" name="n00"/>
      <point x="869.2" y="-16"/>
      <point x="1068" y="144"/>
      <point x="1068" y="395.2" type="curve" smooth="yes" name="n03"/>
      <point x="1068" y="634"/>
      <point x="899.6" y="769.2"/>
      <point x="596" y="777.6" type="curve"/>
      <point x="596" y="712.4" type="line"/>
      <point x="872" y="722.4"/>
      <point x="1018.4" y="861.2"/>
      <point x="1018.4" y="1072.8" type="curve" smooth="yes" name="n10"/>
      <point x="1018.4" y="1286.4"/>
      <point x="842" y="1452"/>
      <point x="580" y="1452" type="curve" smooth="yes" name="n13"/>
      <point x="318" y="1452"/>
      <point x="141.6" y="1286.4"/>
      <point x="141.6" y="1072.8" type="curve" smooth="yes" name="n16"/>
      <point x="141.6" y="861.2"/>
      <point x="288" y="722.4"/>
      <point x="564" y="712.4" type="curve"/>
      <point x="564" y="777.6" type="line"/>
      <point x="260.4" y="769.2"/>
      <point x="92" y="634"/>
      <point x="92" y="395.2" type="curve" smooth="yes" name="n23"/>
      <point x="92" y="144"/>
      <point x="290.8" y="-16"/>
    </contour>
    <contour>
      <point x="580" y="821.6" type="curve" smooth="yes"/>
      <point x="399.6" y="821.6"/>
      <point x="332.4" y="942.4"/>
      <point x="332.4" y="1069.2" type="curve" smooth="yes" name="n29"/>
      <point x="332.4" y="1196"/>
      <point x="415.2" y="1302.4"/>
      <point x="580" y="1302.4" type="curve" smooth="yes" name="n32"/>
      <point x="744.8" y="1302.4"/>
      <point x="827.6" y="1196"/>
      <point x="827.6" y="1069.2" type="curve" smooth="yes" name="n35"/>
      <point x="827.6" y="942.4"/>
      <point x="760.4" y="821.6"/>
    </contour>
    <contour>
      <point x="580" y="138.4" type="curve" smooth="yes" name="n38"/>
      <point x="399.2" y="138.4"/>
      <point x="293.6" y="246.4"/>
      <point x="293.6" y="398.8" type="curve" smooth="yes" name="n41"/>
      <point x="293.6" y="586.4"/>
      <point x="424" y="666"/>
      <point x="580" y="666" type="curve" smooth="yes"/>
      <point x="736" y="666"/>
      <point x="866.4" y="586.4"/>
      <point x="866.4" y="398.8" type="curve" smooth="yes" name="n47"/>
      <point x="866.4" y="246.4"/>
      <point x="760.8" y="138.4"/>
    </contour>
  </outline>
</glyph>
<glyph name="nine" format="2">
  <advance width="1160.0"/>
  <unicode hex="0039"/>
  <outline>
    <contour>
      <point x="853.4" y="1008.0" type="curve"/>
      <point x="853.4" y="862.8"/>
      <point x="749.8" y="734.8"/>
      <point x="566.6" y="734.8" type="curve" smooth="yes"/>
      <point x="397.4" y="734.8"/>
      <point x="295.0" y="835.2"/>
      <point x="295.0" y="1012.0" type="curve" smooth="yes"/>
      <point x="295.0" y="1174.0"/>
      <point x="406.6" y="1290.4"/>
      <point x="576.2" y="1290.4" type="curve" smooth="yes"/>
      <point x="737.8" y="1290.4"/>
      <point x="853.4" y="1182.0"/>
    </contour>
    <contour>
      <point x="868.2" y="976.0" type="line"/>
      <point x="865.8" y="815.2"/>
      <point x="799.4" y="713.2"/>
      <point x="688.6" y="568.4" type="curve"/>
      <point x="249.8" y="0.0" type="line"/>
      <point x="429.4" y="0.0" type="line" smooth="yes"/>
      <point x="474.2" y="0.0"/>
      <point x="511.8" y="19.2"/>
      <point x="530.2" y="45.6" type="curve" smooth="yes"/>
      <point x="874.6" y="541.6" type="line" smooth="yes"/>
      <point x="977.8" y="688.0"/>
      <point x="1040.6" y="817.2"/>
      <point x="1040.6" y="985.6" type="curve" smooth="yes"/>
      <point x="1040.6" y="1261.6"/>
      <point x="859.0" y="1452.0"/>
      <point x="578.6" y="1452.0" type="curve" smooth="yes"/>
      <point x="296.2" y="1452.0"/>
      <point x="99.4" y="1249.6"/>
      <point x="99.4" y="997.6" type="curve" smooth="yes"/>
      <point x="99.4" y="731.6"/>
      <point x="289.0" y="585.2"/>
      <point x="500.2" y="585.2" type="curve" smooth="yes"/>
      <point x="722.2" y="585.2"/>
      <point x="907.4" y="732.4"/>
      <point x="907.4" y="976.0" type="curve"/>
    </contour>
  </outline>
</glyph>
<glyph name="less" format="2">
  <advance width="1160"/>
  <unicode hex="003C"/>
  <outline>
    <contour>
      <point x="159.2" y="713.2" type="line"/>
      <point x="159.2" y="652.8" type="line"/>
      <point x="290" y="653.6"/>
      <point x="394.8" y="666.4"/>
      <point x="472" y="705.6" type="curve" smooth="yes"/>
      <point x="899.6" y="923" type="line" smooth="yes"/>
      <point x="926.8" y="936.6"/>
      <point x="937.2" y="955.4"/>
      <point x="937.2" y="978.2" type="curve" smooth="yes"/>
      <point x="937.2" y="1117.6" type="line" name="n09"/>
    </contour>
    <contour>
      <point x="159.2" y="632.8" type="line"/>
      <point x="937.2" y="228.4" type="line" name="n11"/>
      <point x="937.2" y="367.8" type="line" smooth="yes"/>
      <point x="937.2" y="390.6"/>
      <point x="926.8" y="409.4"/>
      <point x="899.6" y="423" type="curve" smooth="yes"/>
      <point x="472" y="640.4" type="line" smooth="yes"/>
      <point x="394.8" y="680"/>
      <point x="290" y="692.4"/>
      <point x="159.2" y="693.2" type="curve"/>
    </contour>
  </outline>
</glyph>
<glyph name="equal" format="2">
  <advance width="1160"/>
  <unicode hex="003D"/>
  <outline>
    <contour>
      <point x="147" y="430" type="line" name="n00"/>
      <point x="1013" y="430" type="line"/>
      <point x="1013" y="577.2" type="line"/>
      <point x="147" y="577.2" type="line" name="n03"/>
    </contour>
    <contour>
      <point x="147" y="769.6" type="line" name="n04"/>
      <point x="1013" y="769.6" type="line"/>
      <point x="1013" y="916.8" type="line"/>
      <point x="147" y="916.8" type="line" name="n07"/>
    </contour>
  </outline>
</glyph>
<glyph name="greater" format="2">
  <advance width="1160"/>
  <unicode hex="003E"/>
  <outline>
    <contour>
      <point x="1000.8" y="632.8" type="line"/>
      <point x="1000.8" y="693.2" type="line"/>
      <point x="870" y="692.4"/>
      <point x="765.2" y="679.6"/>
      <point x="688" y="640.4" type="curve" smooth="yes"/>
      <point x="260.4" y="423" type="line" smooth="yes"/>
      <point x="233.2" y="409.4"/>
      <point x="222.8" y="390.6"/>
      <point x="222.8" y="367.8" type="curve" smooth="yes"/>
      <point x="222.8" y="228.4" type="line" name="n09"/>
    </contour>
    <contour>
      <point x="1000.8" y="713.2" type="line"/>
      <point x="222.8" y="1117.6" type="line" name="n11"/>
      <point x="222.8" y="978.2" type="line" smooth="yes"/>
      <point x="222.8" y="955.4"/>
      <point x="233.2" y="936.6"/>
      <point x="260.4" y="923" type="curve" smooth="yes"/>
      <point x="688" y="705.6" type="line" smooth="yes"/>
      <point x="765.2" y="666"/>
      <point x="870" y="653.6"/>
      <point x="1000.8" y="652.8" type="curve"/>
    </contour>
  </outline>
</glyph>
<glyph name="question" format="2">
  <advance width="901"/>
  <unicode hex="003F"/>
  <outline>
    <component base="period" xScale="1" xOffset="167.6"/>
    <contour>
      <point x="130.2" y="1225.2" type="line"/>
      <point x="139.4" y="1208.8"/>
      <point x="153.4" y="1200.8"/>
      <point x="171.8" y="1200.8" type="curve" smooth="yes"/>
      <point x="205.8" y="1200.8"/>
      <point x="267" y="1292.8"/>
      <point x="426.2" y="1292.8" type="curve" smooth="yes" name="n06"/>
      <point x="542.2" y="1292.8"/>
      <point x="633.4" y="1223.6"/>
      <point x="633.4" y="1112.8" type="curve" smooth="yes" name="n09"/>
      <point x="633.4" y="872.8"/>
      <point x="310.2" y="850.4"/>
      <point x="329.4" y="668" type="curve" name="n12"/>
      <point x="342.6" y="502.4" type="line" name="n13"/>
      <point x="476.2" y="502.4" type="line"/>
      <point x="495.4" y="654" type="line" name="n15"/>
      <point x="513.8" y="786"/>
      <point x="815.8" y="819.2"/>
      <point x="815.8" y="1123.6" type="curve" smooth="yes" name="n18"/>
      <point x="815.8" y="1324.4"/>
      <point x="658.6" y="1452"/>
      <point x="443" y="1452" type="curve" smooth="yes" name="n21"/>
      <point x="280.2" y="1452"/>
      <point x="164.2" y="1385.2"/>
      <point x="78.6" y="1307.6" type="curve"/>
    </contour>
  </outline>
</glyph>
<glyph name="at" format="2">
  <advance width="1677"/>
  <unicode hex="0040"/>
  <outline>
    <contour>
      <point x="1186.6" y="185.2" type="curve" smooth="yes"/>
      <point x="1415" y="185.2"/>
      <point x="1589.4" y="402"/>
      <point x="1589.4" y="689.2" type="curve" smooth="yes" name="n03"/>
      <point x="1589.4" y="1116.8"/>
      <point x="1250.6" y="1364.8"/>
      <point x="879.4" y="1364.8" type="curve" smooth="yes" name="n06"/>
      <point x="443.8" y="1364.8"/>
      <point x="101" y="1005.2"/>
      <point x="101" y="571.6" type="curve" smooth="yes" name="n09"/>
      <point x="101" y="64"/>
      <point x="455.4" y="-239.6"/>
      <point x="922.6" y="-239.6" type="curve" smooth="yes" name="n12"/>
      <point x="1153.4" y="-239.6"/>
      <point x="1336.2" y="-179.2"/>
      <point x="1477.4" y="-85.6" type="curve"/>
      <point x="1449.8" y="-14" type="line" smooth="yes"/>
      <point x="1440.2" y="11.8"/>
      <point x="1416.6" y="19.6"/>
      <point x="1388.2" y="2.8" type="curve" smooth="yes"/>
      <point x="1280.2" y="-62.4"/>
      <point x="1125.4" y="-110.8"/>
      <point x="922.6" y="-110.8" type="curve" smooth="yes" name="n22"/>
      <point x="543.8" y="-110.8"/>
      <point x="244.2" y="122.8"/>
      <point x="244.2" y="571.6" type="curve" smooth="yes" name="n25"/>
      <point x="244.2" y="951.2"/>
      <point x="524.2" y="1236.8"/>
      <point x="879.4" y="1236.8" type="curve" smooth="yes" name="n28"/>
      <point x="1204.2" y="1236.8"/>
      <point x="1448.6" y="1052.8"/>
      <point x="1448.6" y="689.2" type="curve" smooth="yes" name="n31"/>
      <point x="1448.6" y="463.2"/>
      <point x="1340.6" y="308.4"/>
      <point x="1215" y="308.4" type="curve" smooth="yes"/>
      <point x="1134.2" y="308.4"/>
      <point x="1074.6" y="349.6"/>
      <point x="1124.6" y="544" type="curve" smooth="yes"/>
      <point x="1218.6" y="907.6" type="line"/>
      <point x="1157" y="934.8"/>
      <point x="1091.4" y="949.6"/>
      <point x="999" y="949.6" type="curve" smooth="yes" name="n41"/>
      <point x="659.8" y="949.6"/>
      <point x="485.8" y="690.8"/>
      <point x="485.8" y="463.6" type="curve" smooth="yes" name="n44"/>
      <point x="485.8" y="306"/>
      <point x="564.2" y="187.6"/>
      <point x="724.6" y="187.6" type="curve" smooth="yes"/>
      <point x="867.4" y="187.6"/>
      <point x="985" y="268"/>
      <point x="1077.4" y="477.2" type="curve"/>
      <point x="990.6" y="428" type="line"/>
      <point x="979.4" y="261.6"/>
      <point x="1060.2" y="185.2"/>
    </contour>
    <contour>
      <point x="1061.4" y="866.8" type="line"/>
      <point x="973" y="525.2" type="line" smooth="yes"/>
      <point x="930.2" y="360.4"/>
      <point x="842.2" y="315.6"/>
      <point x="763.4" y="315.6" type="curve" smooth="yes" name="n58"/>
      <point x="681.4" y="315.6"/>
      <point x="638.2" y="375.6"/>
      <point x="638.2" y="468.4" type="curve" smooth="yes" name="n61"/>
      <point x="638.2" y="649.2"/>
      <point x="777" y="825.2"/>
      <point x="967.8" y="825.2" type="curve" smooth="yes" name="n64"/>
      <point x="1025.8" y="825.2"/>
      <point x="1071" y="814.8"/>
      <point x="1116.6" y="794.8" type="curve"/>
    </contour>
  </outline>
  <guideline angle="0" x="0" y="700"/>
  <guideline angle="90" x="840" y="0"/>
</glyph>
<glyph name="A" format="2">
  <advance width="1362.8"/>
  <unicode hex="0041"/>
  <anchor x="680.8" y="1513.4" name="Top"/>
  <anchor x="187.8" y="1120.0" name="onRight"/>
  <anchor x="678.4" y="-70.0" name="bottom"/>
  <anchor x="680.8" y="1513.4" name="top"/>
  <outline>
    <contour>
      <point x="1.6000000000000014" y="0.0" type="line"/>
      <point x="166.39999999999998" y="0.0" type="line" smooth="yes"/>
      <point x="202.4" y="0.0"/>
      <point x="228.79999999999998" y="24.4"/>
      <point x="238.0" y="49.6" type="curve"/>
      <point x="636.0" y="1092.0" type="line" smooth="yes"/>
      <point x="666.4" y="1170.0"/>
      <point x="704.4" y="1306.8"/>
      <point x="716.4" y="1436.0" type="curve"/>
      <point x="573.6" y="1436.0" type="line"/>
    </contour>
    <contour>
      <point x="252.8" y="383.2" type="line"/>
      <point x="1118.4" y="383.2" type="line"/>
      <point x="1118.4" y="535.2" type="line"/>
      <point x="252.8" y="535.2" type="line"/>
    </contour>
    <contour>
      <point x="789.2" y="1436.0" type="line"/>
      <point x="641.6" y="1436.0" type="line"/>
      <point x="657.2" y="1306.8"/>
      <point x="696.4" y="1171.2"/>
      <point x="726.8" y="1093.2" type="curve" smooth="yes"/>
      <point x="1124.8" y="49.6" type="line"/>
      <point x="1136.4" y="20.8"/>
      <point x="1159.6" y="0.0"/>
      <point x="1196.8" y="0.0" type="curve" smooth="yes"/>
      <point x="1361.2" y="0.0" type="line"/>
    </contour>
  </outline>
</glyph>
<glyph name="D" format="2">
  <advance width="1521"/>
  <unicode hex="0044"/>
  <anchor x="683.4" y="1513.4" name="Top"/>
  <anchor x="686.6" y="-89.8" name="bottom"/>
  <anchor x="683.4" y="1513.4" name="top"/>
  <outline>
    <contour>
      <point x="1429.8" y="718" type="curve" smooth="yes" name="n00"/>
      <point x="1429.8" y="1145.6"/>
      <point x="1143" y="1436"/>
      <point x="717" y="1436" type="curve" smooth="yes" name="n03"/>
      <point x="177.4" y="1436" type="line" name="n04"/>
      <point x="177.4" y="0" type="line"/>
      <point x="717" y="0" type="line" smooth="yes" name="n06"/>
      <point x="1143" y="0"/>
      <point x="1429.8" y="289.2"/>
    </contour>
    <contour>
      <point x="1211.8" y="718" type="curve" smooth="yes" name="n09"/>
      <point x="1211.8" y="374"/>
      <point x="1019" y="171.2"/>
      <point x="717" y="171.2" type="curve" smooth="yes" name="n12"/>
      <point x="391" y="171.2" type="line"/>
      <point x="391" y="1264.8" type="line" name="n14"/>
      <point x="717" y="1264.8" type="line" smooth="yes" name="n15"/>
      <point x="1019" y="1264.8"/>
      <point x="1211.8" y="1060.8"/>
    </contour>
  </outline>
</glyph>
<glyph name="F" format="2">
  <advance width="1131"/>
  <unicode hex="0046"/>
  <anchor x="629.8" y="1513.4" name="Top"/>
  <anchor x="511" y="-70" name="bottom"/>
  <anchor x="629.8" y="1513.4" name="top"/>
  <outline>
    <contour>
      <point x="391" y="1436" type="line" name="n00"/>
      <point x="177.4" y="1436" type="line"/>
      <point x="177.4" y="0" type="line" name="n02"/>
      <point x="391" y="0" type="line"/>
    </contour>
    <contour>
      <point x="368.6" y="781.2" type="line" name="n04"/>
      <point x="368.6" y="609.2" type="line" name="n05"/>
      <point x="967.4" y="609.2" type="line"/>
      <point x="967.4" y="781.2" type="line"/>
    </contour>
    <contour>
      <point x="368.6" y="1436" type="line" name="n08"/>
      <point x="368.6" y="1264" type="line" name="n09"/>
      <point x="1067.4" y="1264" type="line"/>
      <point x="1067.4" y="1436" type="line"/>
    </contour>
  </outline>
</glyph>
<glyph name="G" format="2">
  <advance width="1459"/>
  <unicode hex="0047"/>
  <anchor x="828.2" y="1513.4" name="Top"/>
  <anchor x="837" y="-70" name="bottom"/>
  <anchor x="828.2" y="1513.4" name="top"/>
  <outline>
    <contour>
      <point x="1348.6" y="139.2" type="curve" name="n00"/>
      <point x="1348.6" y="698" type="line"/>
      <point x="898.6" y="698" type="line" name="n02"/>
      <point x="898.6" y="577.6" type="line" smooth="yes"/>
      <point x="898.6" y="554.4"/>
      <point x="916.6" y="536.4"/>
      <point x="944.2" y="536.4" type="curve" smooth="yes" name="n06"/>
      <point x="1156.2" y="536.4" type="line"/>
      <point x="1156.2" y="117.6" type="line" name="n08"/>
      <point x="1218.2" y="268.4" type="line"/>
      <point x="1100.2" y="199.6"/>
      <point x="997.4" y="155.2"/>
      <point x="843.2" y="155.2" type="curve" smooth="yes" name="n12"/>
      <point x="515.4" y="155.2"/>
      <point x="306.2" y="364.8"/>
      <point x="306.2" y="718" type="curve" smooth="yes" name="n15"/>
      <point x="306.2" y="1054.8"/>
      <point x="506.2" y="1268.8"/>
      <point x="819.8" y="1268.8" type="curve" smooth="yes" name="n18"/>
      <point x="1031" y="1268.8"/>
      <point x="1120.6" y="1196"/>
      <point x="1191.4" y="1155.2" type="curve" smooth="yes"/>
      <point x="1227.4" y="1133.6"/>
      <point x="1259.4" y="1142.8"/>
      <point x="1278.2" y="1173.2" type="curve" smooth="yes"/>
      <point x="1338.6" y="1269.2" type="line"/>
      <point x="1217.4" y="1380.4"/>
      <point x="1056.6" y="1452"/>
      <point x="827" y="1452" type="curve" smooth="yes" name="n28"/>
      <point x="375.4" y="1452"/>
      <point x="89" y="1154.4"/>
      <point x="89" y="718" type="curve" smooth="yes" name="n31"/>
      <point x="89" y="285.6"/>
      <point x="386.2" y="-16"/>
      <point x="849.2" y="-16" type="curve" smooth="yes" name="n34"/>
      <point x="1040.6" y="-16"/>
      <point x="1204.6" y="35.6"/>
    </contour>
  </outline>
</glyph>
<glyph name="H" format="2">
  <advance width="1530.8"/>
  <unicode hex="0048"/>
  <anchor x="769.4" y="1513.4" name="Top"/>
  <anchor x="-94.6" y="1120.0" name="onRight"/>
  <anchor x="771.0" y="-70.0" name="bottom"/>
  <anchor x="769.4" y="1513.4" name="top"/>
  <outline>
    <contour>
      <point x="391.0" y="1436.0" type="line"/>
      <point x="177.4" y="1436.0" type="line"/>
      <point x="177.4" y="0.0" type="line"/>
      <point x="391.0" y="0.0" type="line"/>
    </contour>
    <contour>
      <point x="368.6" y="801.2" type="line"/>
      <point x="368.6" y="647.2" type="line"/>
      <point x="1231.4" y="647.2" type="line"/>
      <point x="1231.4" y="801.2" type="line"/>
    </contour>
    <contour>
      <point x="1353.4" y="1436.0" type="line"/>
      <point x="1139.8" y="1436.0" type="line"/>
      <point x="1139.8" y="0.0" type="line"/>
      <point x="1353.4" y="0.0" type="line"/>
    </contour>
  </outline>
</glyph>
<glyph name="I" format="2">
  <advance width="568"/>
  <unicode hex="0049"/>
  <anchor x="287.4" y="1513.4" name="Top"/>
  <anchor x="284.2" y="-70" name="bottom"/>
  <anchor x="-110.6" y="1120" name="onRight"/>
  <anchor x="287.4" y="1513.4" name="top"/>
  <outline>
    <contour>
      <point x="391" y="1436" type="line" name="n00"/>
      <point x="177.4" y="1436" type="line" name="n01"/>
      <point x="177.4" y="0" type="line" name="n02"/>
      <point x="391" y="0" type="line"/>
    </contour>
  </outline>
</glyph>
<glyph name="J" format="2">
  <advance width="849"/>
  <unicode hex="004A"/>
  <anchor x="565.8" y="716.8" name="Bar"/>
  <anchor x="578.8" y="1513.4" name="Top"/>
  <anchor x="301.6" y="-70" name="bottom"/>
  <anchor x="578.8" y="1513.4" name="top"/>
  <outline>
    <contour>
      <point x="685.6" y="1436" type="line" name="n00"/>
      <point x="473.2" y="1436" type="line" name="n01"/>
      <point x="473.2" y="495.2" type="line" smooth="yes"/>
      <point x="473.2" y="259.6"/>
      <point x="377.6" y="161.2"/>
      <point x="207.2" y="161.2" type="curve" smooth="yes" name="n05"/>
      <point x="142.8" y="161.2"/>
      <point x="106.4" y="177.6"/>
      <point x="82.8" y="177.6" type="curve" smooth="yes"/>
      <point x="52.4" y="177.6"/>
      <point x="38" y="160.8"/>
      <point x="34.8" y="137.6" type="curve"/>
      <point x="31.2" y="96"/>
      <point x="26.8" y="53.2"/>
      <point x="23.2" y="11.6" type="curve"/>
      <point x="95.2" y="-7.2"/>
      <point x="161.6" y="-16"/>
      <point x="228.8" y="-16" type="curve" smooth="yes" name="n17"/>
      <point x="524.8" y="-16"/>
      <point x="685.6" y="178.8"/>
      <point x="685.6" y="500" type="curve" smooth="yes"/>
    </contour>
  </outline>
</glyph>
<glyph name="K" format="2">
  <advance width="1336.6"/>
  <unicode hex="004B"/>
  <anchor x="703.8" y="1513.4" name="Top"/>
  <anchor x="661.6" y="-70.0" name="bottom"/>
  <anchor x="703.8" y="1513.4" name="top"/>
  <outline>
    <contour>
      <point x="389.79999999999995" y="1436.0" type="line"/>
      <point x="177.4" y="1436.0" type="line"/>
      <point x="177.4" y="0.0" type="line"/>
      <point x="389.79999999999995" y="0.0" type="line"/>
    </contour>
    <contour>
      <point x="341.0" y="651.2" type="line"/>
      <point x="476.6" y="651.2" type="line" smooth="yes"/>
      <point x="539.4" y="651.2"/>
      <point x="563.8" y="638.0"/>
      <point x="590.2" y="604.0" type="curve" smooth="yes"/>
      <point x="1063.4" y="44.0" type="line"/>
      <point x="1083.0" y="16.0"/>
      <point x="1103.4" y="0.0"/>
      <point x="1157.0" y="0.0" type="curve" smooth="yes"/>
      <point x="1342.2" y="0.0" type="line"/>
      <point x="789.4" y="678.4" type="line"/>
      <point x="734.2" y="756.4"/>
      <point x="672.2" y="772.0"/>
      <point x="557.0" y="772.0" type="curve"/>
      <point x="563.0" y="734.0" type="line"/>
      <point x="668.2" y="734.8"/>
      <point x="714.2" y="751.2"/>
      <point x="773.4" y="823.6" type="curve"/>
      <point x="1304.6" y="1436.0" type="line"/>
      <point x="1123.4" y="1436.0" type="line" smooth="yes"/>
      <point x="1078.2" y="1436.0"/>
      <point x="1049.8" y="1423.6"/>
      <point x="1021.4" y="1387.6" type="curve"/>
      <point x="563.8" y="856.4" type="line"/>
      <point x="538.6" y="825.2"/>
      <point x="509.8" y="814.0"/>
      <point x="459.8" y="814.0" type="curve" smooth="yes"/>
      <point x="343.4" y="814.0" type="line"/>
    </contour>
  </outline>
</glyph>
<glyph name="L" format="2">
  <advance width="1030"/>
  <unicode hex="004C"/>
  <anchor x="286.2" y="716.8" name="Bar"/>
  <anchor x="298" y="1513.4" name="Top"/>
  <anchor x="565" y="-70" name="bottom"/>
  <anchor x="298" y="1513.4" name="top"/>
  <outline>
    <contour>
      <point x="389.8" y="1436" type="line" name="n00"/>
      <point x="177.4" y="1436" type="line"/>
      <point x="177.4" y="0" type="line"/>
      <point x="389.8" y="0" type="line" name="n03"/>
    </contour>
    <contour>
      <point x="368.6" y="178" type="line" name="n04"/>
      <point x="368.6" y="0" type="line" name="n05"/>
      <point x="999.4" y="0" type="line"/>
      <point x="999.4" y="178" type="line"/>
    </contour>
  </outline>
</glyph>
<glyph name="M" format="2">
  <advance width="1865"/>
  <unicode hex="004D"/>
  <anchor x="935.4" y="1513.4" name="Top"/>
  <anchor x="932.4" y="-70" name="bottom"/>
  <anchor x="935.4" y="1513.4" name="top"/>
  <outline>
    <contour>
      <point x="891.4" y="284.8" type="curve"/>
      <point x="981.4" y="284.8" type="line"/>
      <point x="960.8" y="362.8"/>
      <point x="928.2" y="460.2"/>
      <point x="887.6" y="538.2" type="curve"/>
      <point x="408.2" y="1400.4" type="line"/>
      <point x="390.4" y="1434"/>
      <point x="372.6" y="1436" name="n07"/>
      <point x="335.4" y="1436" type="curve" smooth="yes"/>
      <point x="177.4" y="1436" type="line"/>
      <point x="177.4" y="0" type="line" name="n10"/>
      <point x="364.2" y="0" type="line" name="n11"/>
      <point x="364.2" y="1023.6" type="line" smooth="yes"/>
      <point x="364.2" y="1085.2"/>
      <point x="355" y="1171.6"/>
      <point x="343.4" y="1233.2" type="curve"/>
      <point x="304.6" y="1224" type="line"/>
      <point x="845" y="246.8" type="line"/>
      <point x="861" y="215.6"/>
      <point x="887.8" y="198.4"/>
      <point x="921.4" y="198.4" type="curve" smooth="yes"/>
      <point x="951.4" y="198.4" type="line" smooth="yes"/>
      <point x="985" y="198.4"/>
      <point x="1011.8" y="215.6"/>
      <point x="1027.8" y="246.8" type="curve"/>
      <point x="1560.2" y="1224" type="line"/>
      <point x="1521.4" y="1233.2" type="line"/>
      <point x="1508.6" y="1171.6"/>
      <point x="1500.6" y="1085.2"/>
      <point x="1500.6" y="1023.6" type="curve" smooth="yes"/>
      <point x="1500.6" y="0" type="line" name="n30"/>
      <point x="1687.4" y="0" type="line" name="n31"/>
      <point x="1687.4" y="1436" type="line"/>
      <point x="1529.4" y="1436" type="line" smooth="yes"/>
      <point x="1492.2" y="1436"/>
      <point x="1474.4" y="1434"/>
      <point x="1456.6" y="1400.4" type="curve" smooth="yes"/>
      <point x="985.8" y="540" type="line"/>
      <point x="944.6" y="462"/>
      <point x="912.6" y="362.8"/>
    </contour>
  </outline>
</glyph>
<glyph name="N" format="2">
  <advance width="1531"/>
  <unicode hex="004E"/>
  <anchor x="778.2" y="1512.6" name="Top"/>
  <anchor x="765.4" y="-70" name="bottom"/>
  <anchor x="778.2" y="1512.6" name="top"/>
  <outline>
    <contour>
      <point x="1203.8" y="308" type="line"/>
      <point x="360.2" y="1400.4" type="line" smooth="yes"/>
      <point x="337" y="1430.4"/>
      <point x="324.6" y="1436" name="n03"/>
      <point x="287.4" y="1436" type="curve" smooth="yes"/>
      <point x="177.4" y="1436" type="line"/>
      <point x="177.4" y="0" type="line" name="n06"/>
      <point x="364.2" y="0" type="line" name="n07"/>
      <point x="364.2" y="987.6" type="line" smooth="yes"/>
      <point x="364.2" y="1049.2"/>
      <point x="357.4" y="1135.6"/>
      <point x="343.4" y="1197.2" type="curve"/>
      <point x="328.6" y="1128" type="line"/>
      <point x="1170.2" y="37.6" type="line"/>
      <point x="1191.8" y="10.8"/>
      <point x="1212.2" y="0"/>
      <point x="1245.4" y="0" type="curve" smooth="yes"/>
      <point x="1353.4" y="0" type="line"/>
      <point x="1353.4" y="1436" type="line" name="n18"/>
      <point x="1166.6" y="1436" type="line" name="n19"/>
      <point x="1166.6" y="455.2" type="line" smooth="yes"/>
      <point x="1166.6" y="388.4"/>
      <point x="1175.8" y="296.8"/>
      <point x="1189.8" y="230" type="curve"/>
    </contour>
  </outline>
</glyph>
<glyph name="O" format="2">
  <advance width="1605"/>
  <unicode hex="004F"/>
  <anchor x="806" y="716.8" name="Slash"/>
  <anchor x="804.2" y="1513.4" name="Top"/>
  <anchor x="803.2" y="-70" name="bottom"/>
  <anchor x="-59.4" y="1120" name="onRight"/>
  <anchor x="804.2" y="1513.4" name="top"/>
  <outline>
    <contour>
      <point x="1515" y="718" type="curve" smooth="yes" name="n00"/>
      <point x="1515" y="1145.6"/>
      <point x="1228.2" y="1452"/>
      <point x="802.2" y="1452" type="curve" smooth="yes" name="n03"/>
      <point x="377.8" y="1452"/>
      <point x="89" y="1146"/>
      <point x="89" y="718" type="curve" smooth="yes" name="n06"/>
      <point x="89" y="289.2"/>
      <point x="377.8" y="-15.2"/>
      <point x="802.2" y="-15.2" type="curve" smooth="yes" name="n09"/>
      <point x="1228.2" y="-15.2"/>
      <point x="1515" y="289.2"/>
    </contour>
    <contour>
      <point x="1297" y="718" type="curve" smooth="yes" name="n12"/>
      <point x="1297" y="374"/>
      <point x="1104.2" y="168"/>
      <point x="802.2" y="168" type="curve" smooth="yes" name="n15"/>
      <point x="501.4" y="168"/>
      <point x="306.2" y="374"/>
      <point x="306.2" y="718" type="curve" smooth="yes" name="n18"/>
      <point x="306.2" y="1060.8"/>
      <point x="501.4" y="1268.8"/>
      <point x="802.2" y="1268.8" type="curve" smooth="yes" name="n21"/>
      <point x="1104.2" y="1268.8"/>
      <point x="1297" y="1060.8"/>
    </contour>
  </outline>
</glyph>
<glyph name="P" format="2">
  <advance width="1210.4"/>
  <unicode hex="0050"/>
  <anchor x="594.0" y="1513.4" name="Top"/>
  <anchor x="286.2" y="976.6" name="Bar"/>
  <anchor x="795.0" y="652.2" name="tick"/>
  <anchor x="594.0" y="1513.4" name="top"/>
  <anchor x="283.6" y="-70.0" name="bottom"/>
  <outline>
    <contour>
      <point x="300.6" y="529.2" type="line"/>
      <point x="612.2" y="529.2" type="line" smooth="yes"/>
      <point x="965.4" y="529.2"/>
      <point x="1153.4" y="718.8"/>
      <point x="1153.4" y="988.0" type="curve" smooth="yes"/>
      <point x="1153.4" y="1258.0"/>
      <point x="980.6" y="1436.0"/>
      <point x="612.2" y="1436.0" type="curve" smooth="yes"/>
      <point x="177.4" y="1436.0" type="line"/>
      <point x="177.4" y="0.0" type="line"/>
      <point x="389.79999999999995" y="0.0" type="line"/>
      <point x="389.79999999999995" y="1269.6" type="line"/>
      <point x="612.2" y="1269.6" type="line" smooth="yes"/>
      <point x="833.4" y="1269.6"/>
      <point x="941.0" y="1164.0"/>
      <point x="941.0" y="988.0" type="curve" smooth="yes"/>
      <point x="941.0" y="814.4"/>
      <point x="827.4" y="696.8"/>
      <point x="612.2" y="696.8" type="curve" smooth="yes"/>
      <point x="318.2" y="696.8" type="line"/>
    </contour>
  </outline>
</glyph>
<glyph name="Q" format="2">
  <advance width="1605"/>
  <unicode hex="0051"/>
  <anchor x="806.6" y="716.8" name="Slash"/>
  <anchor x="804.8" y="1513.4" name="Top"/>
  <anchor x="803.8" y="-70" name="bottom"/>
  <anchor x="-58.8" y="1120" name="onRight"/>
  <anchor x="804.8" y="1513.4" name="top"/>
  <outline>
    <component base="O" xOffset="0.6"/>
    <contour>
      <point x="1178.8" y="147.6" type="line" name="n00"/>
      <point x="944.4" y="128" type="line"/>
      <point x="1283.6" y="-243.6" type="line" smooth="yes"/>
      <point x="1317.6" y="-280"/>
      <point x="1357.2" y="-292.4" name="n04"/>
      <point x="1409.2" y="-292.4" type="curve" smooth="yes"/>
      <point x="1584.8" y="-292.4" type="line"/>
    </contour>
  </outline>
</glyph>
<glyph name="R" format="2">
  <advance width="1261"/>
  <unicode hex="0052"/>
  <anchor x="601" y="1513.4" name="Top"/>
  <anchor x="681.6" y="-70" name="bottom"/>
  <anchor x="601" y="1513.4" name="top"/>
  <outline>
    <contour>
      <point x="528.6" y="589.6" type="line" smooth="yes"/>
      <point x="582.2" y="589.6"/>
      <point x="603.8" y="576.8"/>
      <point x="625.8" y="544" type="curve"/>
      <point x="980.6" y="44.4" type="line"/>
      <point x="999" y="14.4"/>
      <point x="1026.6" y="0" name="n06"/>
      <point x="1064.2" y="0" type="curve" smooth="yes"/>
      <point x="1254.2" y="0" type="line"/>
      <point x="849.8" y="560" type="line"/>
      <point x="793.4" y="644.4"/>
      <point x="706.6" y="666.4"/>
      <point x="600.2" y="666.4" type="curve"/>
      <point x="552.2" y="606.4" type="line"/>
      <point x="602.2" y="606.4" type="line" smooth="yes" name="n14"/>
      <point x="926.6" y="606.4"/>
      <point x="1124.6" y="783.2"/>
      <point x="1124.6" y="1034.4" type="curve" smooth="yes" name="n17"/>
      <point x="1124.6" y="1279.2"/>
      <point x="961.4" y="1436"/>
      <point x="591.4" y="1436" type="curve" smooth="yes" name="n20"/>
      <point x="177.4" y="1436" type="line"/>
      <point x="177.4" y="0" type="line"/>
      <point x="389.8" y="0" type="line" name="n23"/>
      <point x="389.8" y="1269.6" type="line"/>
      <point x="591.4" y="1269.6" type="line" smooth="yes" name="n25"/>
      <point x="807" y="1269.6"/>
      <point x="917" y="1183.2"/>
      <point x="917" y="1018.8" type="curve" smooth="yes" name="n28"/>
      <point x="917" y="856.4"/>
      <point x="804.2" y="744"/>
      <point x="584.2" y="744" type="curve" smooth="yes" name="n31"/>
      <point x="317.4" y="744" type="line"/>
      <point x="291" y="589.6" type="line" name="n33"/>
    </contour>
  </outline>
</glyph>
<glyph name="S" format="2">
  <advance width="1088.0"/>
  <unicode hex="0053"/>
  <anchor x="589.6" y="1513.4" name="Top"/>
  <anchor x="518.8" y="-70.0" name="bottom"/>
  <anchor x="589.6" y="1513.4" name="top"/>
  <outline>
    <contour>
      <point x="971.6" y="1303.2" type="line"/>
      <point x="872.4" y="1399.2"/>
      <point x="734.0" y="1452.0"/>
      <point x="572.8" y="1452.0" type="curve" smooth="yes"/>
      <point x="284.0" y="1452.0"/>
      <point x="121.6" y="1257.6"/>
      <point x="121.6" y="1053.2" type="curve" smooth="yes"/>
      <point x="121.6" y="539.6"/>
      <point x="802.4" y="745.6"/>
      <point x="802.4" y="409.2" type="curve" smooth="yes"/>
      <point x="802.4" y="258.0"/>
      <point x="699.2" y="160.0"/>
      <point x="522.8" y="160.0" type="curve" smooth="yes"/>
      <point x="308.0" y="160.0"/>
      <point x="229.2" y="300.8"/>
      <point x="171.6" y="300.8" type="curve" smooth="yes"/>
      <point x="151.2" y="300.8"/>
      <point x="133.6" y="289.2"/>
      <point x="122.4" y="273.2" type="curve" smooth="yes"/>
      <point x="60.800000000000004" y="172.0" type="line"/>
      <point x="168.8" y="58.0"/>
      <point x="332.4" y="-16.0"/>
      <point x="516.8" y="-16.0" type="curve" smooth="yes"/>
      <point x="824.8" y="-16.0"/>
      <point x="1002.0" y="186.4"/>
      <point x="1002.0" y="439.6" type="curve" smooth="yes"/>
      <point x="1002.0" y="914.4"/>
      <point x="320.0" y="754.8"/>
      <point x="320.0" y="1064.0" type="curve" smooth="yes"/>
      <point x="320.0" y="1184.0"/>
      <point x="407.6" y="1277.2"/>
      <point x="575.2" y="1277.2" type="curve" smooth="yes"/>
      <point x="753.6" y="1277.2"/>
      <point x="823.6" y="1170.0"/>
      <point x="871.2" y="1170.0" type="curve" smooth="yes"/>
      <point x="893.2" y="1170.0"/>
      <point x="906.8" y="1180.4"/>
      <point x="919.6" y="1202.4" type="curve"/>
    </contour>
  </outline>
</glyph>
<glyph name="T" format="2">
  <advance width="1186.0"/>
  <unicode hex="0054"/>
  <anchor x="596.2" y="1513.4" name="Top"/>
  <anchor x="596.2" y="-70.0" name="bottom"/>
  <anchor x="618.8" y="716.8" name="Slash"/>
  <anchor x="596.2" y="1513.4" name="top"/>
  <outline>
    <contour>
      <point x="700.0" y="1384.0" type="line"/>
      <point x="487.6" y="1384.0" type="line"/>
      <point x="487.6" y="0.0" type="line"/>
      <point x="700.0" y="0.0" type="line"/>
    </contour>
    <contour>
      <point x="29.6" y="1436.0" type="line"/>
      <point x="29.6" y="1259.2" type="line"/>
      <point x="1156.4" y="1259.2" type="line"/>
      <point x="1156.4" y="1436.0" type="line"/>
    </contour>
  </outline>
</glyph>
<glyph name="U" format="2">
  <advance width="1475"/>
  <unicode hex="0055"/>
  <anchor x="737.4" y="1513.4" name="Top"/>
  <anchor x="737.4" y="-70" name="bottom"/>
  <anchor x="737.4" y="1513.4" name="top"/>
  <outline>
    <contour>
      <point x="737.4" y="169.6" type="curve" smooth="yes" name="n00"/>
      <point x="507.4" y="169.6"/>
      <point x="371.8" y="333.2"/>
      <point x="371.8" y="567.6" type="curve" smooth="yes"/>
      <point x="371.8" y="1436" type="line" name="n04"/>
      <point x="159.4" y="1436" type="line" name="n05"/>
      <point x="159.4" y="566.8" type="line" smooth="yes"/>
      <point x="159.4" y="232.4"/>
      <point x="379.8" y="-16.8"/>
      <point x="737.4" y="-16.8" type="curve" smooth="yes" name="n09"/>
      <point x="1095" y="-16.8"/>
      <point x="1315.4" y="232.4"/>
      <point x="1315.4" y="566.8" type="curve" smooth="yes"/>
      <point x="1315.4" y="1436" type="line" name="n13"/>
      <point x="1103" y="1436" type="line" name="n14"/>
      <point x="1103" y="566.8" type="line" smooth="yes"/>
      <point x="1103" y="332.4"/>
      <point x="967.4" y="169.6"/>
    </contour>
  </outline>
</glyph>
<glyph name="V" format="2">
  <advance width="1363"/>
  <unicode hex="0056"/>
  <anchor x="683.6" y="1513.4" name="Top"/>
  <anchor x="681.4" y="-70" name="bottom"/>
  <anchor x="683.6" y="1513.4" name="top"/>
  <outline>
    <contour>
      <point x="1361.2" y="1436" type="line" name="n00"/>
      <point x="1190.4" y="1436" type="line" smooth="yes"/>
      <point x="1154.4" y="1436"/>
      <point x="1128" y="1411.6"/>
      <point x="1118.8" y="1386.4" type="curve"/>
      <point x="731.6" y="407.6" type="line"/>
      <point x="689.2" y="297.2"/>
      <point x="658.4" y="129.2"/>
      <point x="652.4" y="0" type="curve" name="n08"/>
      <point x="777.2" y="0" type="line"/>
    </contour>
    <contour>
      <point x="585.6" y="0" type="line"/>
      <point x="715.2" y="0" type="line"/>
      <point x="717.6" y="129.2"/>
      <point x="674.8" y="297.2"/>
      <point x="632.4" y="407.6" type="curve"/>
      <point x="244" y="1386.4" type="line" smooth="yes"/>
      <point x="232.4" y="1415.2"/>
      <point x="209.2" y="1436"/>
      <point x="172" y="1436" type="curve" smooth="yes"/>
      <point x="1.6" y="1436" type="line"/>
    </contour>
  </outline>
</glyph>
<glyph name="W" format="2">
  <advance width="2079"/>
  <unicode hex="0057"/>
  <anchor x="1038.4" y="1513.4" name="Top"/>
  <anchor x="1039.4" y="-70" name="bottom"/>
  <anchor x="1038.4" y="1513.4" name="top"/>
  <outline>
    <contour>
      <point x="1015.6" y="1436" type="line" smooth="yes" name="n00"/>
      <point x="979.6" y="1436"/>
      <point x="952" y="1411.6"/>
      <point x="944" y="1386.4" type="curve" smooth="yes"/>
      <point x="620.4" y="423.2" type="line" smooth="yes"/>
      <point x="582.4" y="311.6"/>
      <point x="560.4" y="129.2"/>
      <point x="554.4" y="0" type="curve" name="n07"/>
      <point x="666.4" y="0" type="line"/>
      <point x="1019.6" y="1066.8" type="line" smooth="yes"/>
      <point x="1047.2" y="1148"/>
      <point x="1071.2" y="1292.4"/>
      <point x="1073.2" y="1373.6" type="curve"/>
      <point x="1008" y="1373.6" type="line"/>
      <point x="1010" y="1292.4"/>
      <point x="1034" y="1148.4"/>
      <point x="1061.6" y="1066.8" type="curve"/>
      <point x="1412.4" y="0" type="line"/>
      <point x="1541.2" y="0" type="line"/>
      <point x="1534" y="129.2"/>
      <point x="1510.8" y="311.6"/>
      <point x="1471.6" y="423.2" type="curve"/>
      <point x="1149.2" y="1386.4" type="line"/>
      <point x="1137.6" y="1415.2"/>
      <point x="1114.4" y="1436"/>
      <point x="1077.2" y="1436" type="curve" smooth="yes"/>
    </contour>
    <contour>
      <point x="474.8" y="0" type="line"/>
      <point x="624" y="0" type="line"/>
      <point x="616.8" y="129.2"/>
      <point x="588.8" y="309.2"/>
      <point x="560.4" y="423.2" type="curve"/>
      <point x="276.8" y="1386.4" type="line"/>
      <point x="268.8" y="1416.4"/>
      <point x="242" y="1436"/>
      <point x="204.8" y="1436" type="curve" smooth="yes"/>
      <point x="27.2" y="1436" type="line"/>
    </contour>
    <contour>
      <point x="2051.6" y="1436" type="line"/>
      <point x="1885.6" y="1436" type="line" smooth="yes"/>
      <point x="1849.6" y="1436"/>
      <point x="1820.8" y="1412.8"/>
      <point x="1814" y="1386.4" type="curve"/>
      <point x="1530.4" y="423.2" type="line"/>
      <point x="1502" y="310.4"/>
      <point x="1476.4" y="129.2"/>
      <point x="1470.4" y="0" type="curve"/>
      <point x="1604" y="0" type="line"/>
    </contour>
  </outline>
  <guideline angle="0" x="0" y="83"/>
</glyph>
<glyph name="X" format="2">
  <advance width="1308"/>
  <unicode hex="0058"/>
  <anchor x="653.6" y="1513.4" name="Top"/>
  <anchor x="654" y="-70" name="bottom"/>
  <anchor x="653.6" y="1513.4" name="top"/>
  <outline>
    <contour>
      <point x="522.6" y="713.2" type="line"/>
      <point x="747.8" y="713.2" type="line"/>
      <point x="300.2" y="1407.6" type="line" smooth="yes"/>
      <point x="289" y="1426"/>
      <point x="277.8" y="1436" name="n04"/>
      <point x="247.4" y="1436" type="curve" smooth="yes"/>
      <point x="35.8" y="1436" type="line"/>
    </contour>
    <contour>
      <point x="1275.8" y="1436" type="line"/>
      <point x="1072.6" y="1436" type="line" smooth="yes"/>
      <point x="1051.4" y="1436"/>
      <point x="1037" y="1424.4"/>
      <point x="1024.6" y="1404" type="curve"/>
      <point x="685" y="891.6" type="line"/>
      <point x="650.6" y="834"/>
      <point x="646.6" y="782.8"/>
      <point x="645.4" y="713.2" type="curve"/>
      <point x="779.4" y="713.2" type="line"/>
    </contour>
    <contour>
      <point x="786.2" y="773.2" type="line"/>
      <point x="558.6" y="773.2" type="line"/>
      <point x="1021" y="39.2" type="line"/>
      <point x="1032.2" y="19.6"/>
      <point x="1049.4" y="0" name="n21"/>
      <point x="1079.8" y="0" type="curve" smooth="yes"/>
      <point x="1291.4" y="0" type="line"/>
    </contour>
    <contour>
      <point x="15.4" y="0" type="line"/>
      <point x="213.8" y="0" type="line" smooth="yes"/>
      <point x="241" y="0"/>
      <point x="257" y="20"/>
      <point x="270.2" y="39.2" type="curve" smooth="yes"/>
      <point x="631" y="587.6" type="line"/>
      <point x="659" y="633.2"/>
      <point x="666.2" y="702.8"/>
      <point x="668.2" y="773.2" type="curve"/>
      <point x="529.4" y="773.2" type="line"/>
    </contour>
  </outline>
</glyph>
<glyph name="Y" format="2">
  <advance width="1260"/>
  <unicode hex="0059"/>
  <anchor x="631.8" y="1513.4" name="Top"/>
  <anchor x="630" y="-70" name="bottom"/>
  <anchor x="-192.4" y="1120" name="onRight"/>
  <anchor x="631.8" y="1513.4" name="top"/>
  <outline>
    <contour>
      <point x="1261.8" y="1436" type="line" name="n00"/>
      <point x="1073.8" y="1436" type="line" smooth="yes"/>
      <point x="1037.8" y="1436"/>
      <point x="1014.6" y="1411.2"/>
      <point x="1002.2" y="1387.2" type="curve"/>
      <point x="691.4" y="849.2" type="line"/>
      <point x="637.4" y="743.6"/>
      <point x="607" y="665.2"/>
      <point x="601" y="551.2" type="curve"/>
      <point x="725.8" y="551.2" type="line"/>
    </contour>
    <contour>
      <point x="534.2" y="551.2" type="line"/>
      <point x="663.8" y="551.2" type="line"/>
      <point x="659" y="666.4"/>
      <point x="625.4" y="742.4"/>
      <point x="569.8" y="849.2" type="curve"/>
      <point x="257.8" y="1387.2" type="line"/>
      <point x="243" y="1416"/>
      <point x="222.2" y="1436"/>
      <point x="185" y="1436" type="curve" smooth="yes"/>
      <point x="-1.8" y="1436" type="line"/>
    </contour>
    <contour>
      <point x="736.2" y="609.2" type="line" name="n20"/>
      <point x="523.8" y="609.2" type="line" name="n21"/>
      <point x="523.8" y="0" type="line" name="n22"/>
      <point x="736.2" y="0" type="line"/>
    </contour>
  </outline>
  <guideline angle="0" x="0" y="662"/>
</glyph>
<glyph name="bracketleft" format="2">
  <advance width="615.8"/>
  <unicode hex="005B"/>
  <outline>
    <contour>
      <point x="556.4" y="1536.8" type="line"/>
      <point x="178.0" y="1536.8" type="line"/>
      <point x="178.0" y="1408.4" type="line"/>
      <point x="502.8" y="1408.4" type="line" smooth="yes"/>
      <point x="534.4" y="1408.4"/>
      <point x="556.4" y="1431.6"/>
      <point x="556.4" y="1460.0" type="curve" smooth="yes"/>
    </contour>
    <contour>
      <point x="556.4" y="-293.6" type="line"/>
      <point x="556.4" y="-216.8" type="line" smooth="yes"/>
      <point x="556.4" y="-188.4"/>
      <point x="534.4" y="-165.2"/>
      <point x="502.8" y="-165.2" type="curve" smooth="yes"/>
      <point x="178.0" y="-165.2" type="line"/>
      <point x="178.0" y="-293.6" type="line"/>
    </contour>
    <contour>
      <point x="341.6" y="1536.8" type="line"/>
      <point x="178.0" y="1536.8" type="line"/>
      <point x="178.0" y="-293.6" type="line"/>
      <point x="341.6" y="-293.6" type="line"/>
    </contour>
  </outline>
</glyph>
<glyph name="backslash" format="2">
  <advance width="911"/>
  <unicode hex="005C"/>
  <outline>
    <contour>
      <point x="657.8" y="-16.8" type="line"/>
      <point x="676.2" y="-66.4"/>
      <point x="722.2" y="-91.2" name="n02"/>
      <point x="763.8" y="-91.2" type="curve" smooth="yes"/>
      <point x="846.2" y="-91.2" type="line"/>
      <point x="249.4" y="1405.2" type="line"/>
      <point x="232.2" y="1450.4"/>
      <point x="195" y="1476" name="n07"/>
      <point x="147.8" y="1476" type="curve" smooth="yes"/>
      <point x="64.6" y="1476" type="line"/>
    </contour>
  </outline>
</glyph>
<glyph name="bracketright" format="2">
  <advance width="615.8"/>
  <unicode hex="005D"/>
  <outline>
    <contour>
      <point x="59.400000000000006" y="1460.0" type="line"/>
      <point x="59.400000000000006" y="1431.6"/>
      <point x="81.4" y="1408.4"/>
      <point x="113.0" y="1408.4" type="curve" smooth="yes"/>
      <point x="437.8" y="1408.4" type="line"/>
      <point x="437.8" y="1536.8" type="line"/>
      <point x="59.400000000000006" y="1536.8" type="line"/>
    </contour>
    <contour>
      <point x="437.8" y="-293.6" type="line"/>
      <point x="437.8" y="-165.2" type="line"/>
      <point x="113.0" y="-165.2" type="line" smooth="yes"/>
      <point x="81.4" y="-165.2"/>
      <point x="59.400000000000006" y="-188.4"/>
      <point x="59.400000000000006" y="-216.8" type="curve" smooth="yes"/>
      <point x="59.400000000000006" y="-293.6" type="line"/>
    </contour>
    <contour>
      <point x="274.2" y="-293.6" type="line"/>
      <point x="437.8" y="-293.6" type="line"/>
      <point x="437.8" y="1536.8" type="line"/>
      <point x="274.2" y="1536.8" type="line"/>
    </contour>
  </outline>
</glyph>
<glyph name="asciicircum" format="2">
  <advance width="1160.0"/>
  <unicode hex="005E"/>
  <outline>
    <contour>
      <point x="124.0" y="692.4" type="line"/>
      <point x="273.6" y="692.4" type="line" smooth="yes"/>
      <point x="301.6" y="692.4"/>
      <point x="320.0" y="708.2"/>
      <point x="328.4" y="728.0" type="curve"/>
      <point x="540.4" y="1156.8" type="line" smooth="yes"/>
      <point x="583.0" y="1253.2"/>
      <point x="602.0" y="1323.2"/>
      <point x="604.0" y="1436.0" type="curve"/>
      <point x="514.0" y="1436.0" type="line"/>
    </contour>
    <contour>
      <point x="640.0" y="1436.0" type="line"/>
      <point x="554.8" y="1436.0" type="line"/>
      <point x="555.6" y="1323.2"/>
      <point x="574.0" y="1253.8"/>
      <point x="620.8" y="1156.8" type="curve" smooth="yes"/>
      <point x="841.2" y="728.0" type="line"/>
      <point x="851.2" y="707.4"/>
      <point x="868.8" y="692.4"/>
      <point x="893.6" y="692.4" type="curve" smooth="yes"/>
      <point x="1036.0" y="692.4" type="line"/>
    </contour>
  </outline>
</glyph>
<glyph name="underscore" format="2">
  <advance width="922"/>
  <unicode hex="005F"/>
  <outline>
    <contour>
      <point x="67" y="-157.2" type="line" name="n00"/>
      <point x="67" y="-287.2" type="line" name="n01"/>
      <point x="855" y="-287.2" type="line"/>
      <point x="855" y="-157.2" type="line"/>
    </contour>
  </outline>
</glyph>
<glyph name="grave" format="2">
  <advance width="800.0"/>
  <unicode hex="0060"/>
  <anchor x="400.0" y="1120.0" name="_top"/>
  <outline>
    <contour>
      <point x="118.4" y="1452.0" type="line"/>
      <point x="355.2" y="1193.6" type="line"/>
      <point x="374.8" y="1172.0"/>
      <point x="391.6" y="1164.0"/>
      <point x="421.6" y="1164.0" type="curve" smooth="yes"/>
      <point x="532.8" y="1164.0" type="line"/>
      <point x="385.6" y="1406.0" type="line" smooth="yes"/>
      <point x="367.6" y="1437.2"/>
      <point x="348.8" y="1452.0"/>
      <point x="302.8" y="1452.0" type="curve" smooth="yes"/>
    </contour>
  </outline>
</glyph>
<glyph name="a" format="2">
  <advance width="999.4"/>
  <unicode hex="0061"/>
  <anchor x="492.2" y="1120.0" name="top"/>
  <anchor x="874.0" y="141.2" name="hook"/>
  <anchor x="498.6" y="-70.0" name="bottom"/>
  <outline>
    <contour>
      <point x="874.0" y="648.0" type="line"/>
      <point x="874.0" y="877.2"/>
      <point x="745.6" y="1034.4"/>
      <point x="514.4" y="1034.4" type="curve" smooth="yes"/>
      <point x="355.6" y="1034.4"/>
      <point x="223.6" y="980.4"/>
      <point x="110.80000000000001" y="873.6" type="curve"/>
      <point x="146.0" y="810.8" type="line" smooth="yes"/>
      <point x="158.4" y="791.2"/>
      <point x="177.2" y="774.8"/>
      <point x="204.0" y="774.8" type="curve" smooth="yes"/>
      <point x="270.4" y="774.8"/>
      <point x="319.6" y="877.6"/>
      <point x="490.4" y="877.6" type="curve" smooth="yes"/>
      <point x="616.0" y="877.6"/>
      <point x="683.2" y="800.0"/>
      <point x="683.2" y="648.0" type="curve"/>
      <point x="683.2" y="624.8" type="line"/>
      <point x="874.0" y="624.8" type="line"/>
    </contour>
    <contour>
      <point x="874.0" y="0.0" type="line"/>
      <point x="874.0" y="639.4" type="line"/>
      <point x="683.2" y="639.4" type="line"/>
      <point x="683.2" y="200.0" type="line"/>
      <point x="719.2" y="44.8" type="line"/>
      <point x="731.2" y="9.6"/>
      <point x="749.2" y="0.0"/>
      <point x="787.2" y="0.0" type="curve" smooth="yes"/>
    </contour>
    <contour>
      <point x="732.4" y="166.4" type="curve"/>
      <point x="706.8" y="276.4" type="line"/>
      <point x="620.0" y="178.8"/>
      <point x="539.2" y="120.39999999999999"/>
      <point x="408.0" y="120.39999999999999" type="curve" smooth="yes"/>
      <point x="318.0" y="120.39999999999999"/>
      <point x="248.39999999999998" y="162.8"/>
      <point x="248.39999999999998" y="264.8" type="curve" smooth="yes"/>
      <point x="248.39999999999998" y="374.0"/>
      <point x="372.0" y="444.4"/>
      <point x="712.0" y="452.8" type="curve"/>
      <point x="688.0" y="573.6" type="line"/>
      <point x="222.8" y="563.6"/>
      <point x="61.2" y="415.2"/>
      <point x="61.2" y="255.2" type="curve" smooth="yes"/>
      <point x="61.2" y="72.4"/>
      <point x="188.0" y="-16.0"/>
      <point x="349.2" y="-16.0" type="curve" smooth="yes"/>
      <point x="518.0" y="-16.0"/>
      <point x="611.6" y="50.8"/>
    </contour>
  </outline>
</glyph>
<glyph name="b" format="2">
  <advance width="1124"/>
  <unicode hex="0062"/>
  <anchor x="281.2" y="1513.4" name="Top"/>
  <anchor x="233.8" y="1238" name="bar"/>
  <anchor x="567" y="-70" name="bottom"/>
  <anchor x="687.8" y="141.2" name="hook"/>
  <anchor x="637.2" y="1120" name="top"/>
  <outline>
    <contour>
      <point x="263.4" y="0" type="line" smooth="yes" name="n00"/>
      <point x="291.4" y="0"/>
      <point x="306.6" y="11.6"/>
      <point x="312.6" y="40.4" type="curve"/>
      <point x="326.2" y="161.6" type="line" name="n04"/>
      <point x="332.2" y="175.6" type="line"/>
      <point x="332.2" y="1476" type="line" name="n06"/>
      <point x="136.6" y="1476" type="line"/>
      <point x="136.6" y="0" type="line"/>
    </contour>
    <contour>
      <point x="305.4" y="148.8" type="line" name="n09"/>
      <point x="377" y="47.6"/>
      <point x="463.8" y="-14.4"/>
      <point x="606.4" y="-14.4" type="curve" smooth="yes" name="n12"/>
      <point x="874.6" y="-14.4"/>
      <point x="1042.6" y="205.4"/>
      <point x="1042.6" y="534.2" type="curve" smooth="yes" name="n15"/>
      <point x="1042.6" y="842.6"/>
      <point x="895.2" y="1032"/>
      <point x="657.2" y="1032" type="curve" smooth="yes" name="n18"/>
      <point x="494.4" y="1032"/>
      <point x="375.8" y="943.6"/>
      <point x="285.4" y="815.2" type="curve"/>
      <point x="308.6" y="699.2" type="line"/>
      <point x="385.4" y="812"/>
      <point x="468.6" y="877.6"/>
      <point x="591.8" y="877.6" type="curve" smooth="yes" name="n25"/>
      <point x="751.4" y="877.6"/>
      <point x="841" y="768.6"/>
      <point x="841" y="526.8" type="curve" smooth="yes" name="n28"/>
      <point x="841" y="265.4"/>
      <point x="739" y="136.4"/>
      <point x="558" y="136.4" type="curve" smooth="yes" name="n31"/>
      <point x="465" y="136.4"/>
      <point x="386.2" y="170"/>
      <point x="321" y="264.8" type="curve"/>
    </contour>
  </outline>
</glyph>
<glyph name="d" format="2">
  <advance width="1124"/>
  <unicode hex="0064"/>
  <anchor x="846.6" y="1513.4" name="Top"/>
  <anchor x="889.8" y="1238" name="bar"/>
  <anchor x="606.2" y="-70" name="bottom"/>
  <anchor x="987.6" y="141.2" name="hook"/>
  <anchor x="503" y="1120" name="top"/>
  <outline>
    <contour>
      <point x="987.6" y="0" type="line" name="n00"/>
      <point x="987.6" y="1476" type="line" name="n01"/>
      <point x="792" y="1476" type="line"/>
      <point x="792" y="191.2" type="line"/>
      <point x="798" y="180" type="line"/>
      <point x="818.8" y="38.8" type="line" name="n05"/>
      <point x="826" y="12.4"/>
      <point x="843.2" y="0"/>
      <point x="870" y="0" type="curve" smooth="yes"/>
    </contour>
    <contour>
      <point x="833.2" y="870" type="line"/>
      <point x="758" y="972.4"/>
      <point x="667.6" y="1034.4"/>
      <point x="520" y="1034.4" type="curve" smooth="yes" name="n12"/>
      <point x="248" y="1034.4"/>
      <point x="81.6" y="805.6"/>
      <point x="81.6" y="504.8" type="curve" smooth="yes" name="n15"/>
      <point x="81.6" y="168.4"/>
      <point x="232.8" y="-14.4"/>
      <point x="464" y="-14.4" type="curve" smooth="yes" name="n18"/>
      <point x="630" y="-14.4"/>
      <point x="748.4" y="76.4"/>
      <point x="838.8" y="204.8" type="curve"/>
      <point x="815.6" y="320.8" type="line"/>
      <point x="738.8" y="208"/>
      <point x="654" y="142.4"/>
      <point x="528.8" y="142.4" type="curve" smooth="yes" name="n25"/>
      <point x="374" y="142.4"/>
      <point x="283.2" y="246.8"/>
      <point x="283.2" y="504.8" type="curve" smooth="yes" name="n28"/>
      <point x="283.2" y="750"/>
      <point x="386.4" y="883.6"/>
      <point x="564.4" y="883.6" type="curve" smooth="yes" name="n31"/>
      <point x="660.4" y="883.6"/>
      <point x="738" y="850"/>
      <point x="803.2" y="755.2" type="curve" name="n34"/>
    </contour>
  </outline>
</glyph>
<glyph name="f" format="2">
  <advance width="705"/>
  <unicode hex="0066"/>
  <anchor x="441" y="1513.4" name="Top"/>
  <anchor x="301.8" y="496.6" name="bar"/>
  <anchor x="301.8" y="-70" name="bottom"/>
  <anchor x="399.6" y="141.2" name="hook"/>
  <anchor x="507.2" y="1501.2" name="top"/>
  <outline>
    <contour>
      <point x="399.6" y="0" type="line" name="n00"/>
      <point x="399.6" y="935.6" type="line"/>
      <point x="393.6" y="958" type="line"/>
      <point x="393.6" y="1085.6" type="line" smooth="yes" name="n03"/>
      <point x="393.6" y="1253.6"/>
      <point x="471.6" y="1308.8"/>
      <point x="592.8" y="1308.8" type="curve" smooth="yes" name="n06"/>
      <point x="645.2" y="1308.8"/>
      <point x="680.2" y="1307.2"/>
      <point x="683" y="1340.8" type="curve"/>
      <point x="687.4" y="1438.8" type="line"/>
      <point x="648.6" y="1451.6"/>
      <point x="605.6" y="1458.4"/>
      <point x="560.4" y="1458.4" type="curve" smooth="yes" name="n13"/>
      <point x="342" y="1458.4"/>
      <point x="204" y="1324"/>
      <point x="204" y="1091.6" type="curve" smooth="yes" name="n16"/>
      <point x="204" y="0" type="line"/>
    </contour>
    <contour>
      <point x="679" y="858" type="line" name="n18"/>
      <point x="679" y="999.2" type="line" name="n19"/>
      <point x="46" y="999.2" type="line"/>
      <point x="46" y="919.2" type="line" smooth="yes"/>
      <point x="46" y="890"/>
      <point x="66.8" y="875.2"/>
      <point x="97.6" y="869.2" type="curve"/>
      <point x="240" y="852" type="line"/>
      <point x="269.6" y="858" type="line"/>
    </contour>
  </outline>
</glyph>
<glyph name="g" format="2">
  <advance width="1044"/>
  <unicode hex="0067"/>
  <anchor x="526.2" y="-421" name="bottom"/>
  <anchor x="518" y="1120" name="top"/>
  <outline>
    <contour>
      <point x="494.4" y="1033.2" type="curve" smooth="yes" name="n00"/>
      <point x="267.6" y="1033.2"/>
      <point x="104.8" y="905.2"/>
      <point x="104.8" y="705.6" type="curve" smooth="yes" name="n03"/>
      <point x="104.8" y="506.4"/>
      <point x="267.6" y="378"/>
      <point x="494.4" y="378" type="curve" smooth="yes" name="n06"/>
      <point x="716.8" y="378"/>
      <point x="879.2" y="506.4"/>
      <point x="879.2" y="705.6" type="curve" smooth="yes" name="n09"/>
      <point x="879.2" y="905.2"/>
      <point x="716.8" y="1033.2"/>
    </contour>
    <contour>
      <point x="494.4" y="506" type="curve" smooth="yes" name="n12"/>
      <point x="357.2" y="506"/>
      <point x="283.6" y="586.8"/>
      <point x="283.6" y="700.8" type="curve" smooth="yes" name="n15"/>
      <point x="283.6" y="818.4"/>
      <point x="357.2" y="894.4"/>
      <point x="494.4" y="894.4" type="curve" smooth="yes" name="n18"/>
      <point x="631.6" y="894.4"/>
      <point x="705.2" y="818.4"/>
      <point x="705.2" y="700.8" type="curve" smooth="yes" name="n21"/>
      <point x="705.2" y="585.6"/>
      <point x="633.2" y="506"/>
    </contour>
    <contour>
      <point x="289.2" y="442.4" type="line"/>
      <point x="187.6" y="401.2"/>
      <point x="136" y="320.4"/>
      <point x="136" y="256.8" type="curve" smooth="yes"/>
      <point x="136" y="-58.8"/>
      <point x="804.8" y="176.4"/>
      <point x="804.8" y="-52.8" type="curve" smooth="yes" name="n30"/>
      <point x="804.8" y="-152"/>
      <point x="699.6" y="-222.8"/>
      <point x="508.8" y="-222.8" type="curve" smooth="yes" name="n33"/>
      <point x="314.8" y="-222.8"/>
      <point x="229.2" y="-156.8"/>
      <point x="229.2" y="-70" type="curve" smooth="yes" name="n36"/>
      <point x="229.2" y="15.2"/>
      <point x="311.2" y="73.2"/>
      <point x="412.4" y="106.4" type="curve"/>
      <point x="278" y="126.4" type="line"/>
      <point x="144.4" y="90.4"/>
      <point x="58.8" y="16.4"/>
      <point x="58.8" y="-95.2" type="curve" smooth="yes" name="n43"/>
      <point x="58.8" y="-236.8"/>
      <point x="205.2" y="-364"/>
      <point x="505.2" y="-364" type="curve" smooth="yes" name="n46"/>
      <point x="806.4" y="-364"/>
      <point x="985.2" y="-195.6"/>
      <point x="985.2" y="-20.4" type="curve" smooth="yes"/>
      <point x="985.2" y="358.8"/>
      <point x="304.4" y="124.8"/>
      <point x="304.4" y="310.8" type="curve" smooth="yes" name="n52"/>
      <point x="304.4" y="346.8"/>
      <point x="338.4" y="385.2"/>
      <point x="403.2" y="411.6" type="curve"/>
    </contour>
    <contour>
      <point x="750" y="829.6" type="line"/>
      <point x="958" y="860" type="line" name="n57"/>
      <point x="988.8" y="866"/>
      <point x="1002.8" y="880.4"/>
      <point x="1002.8" y="905.2" type="curve" smooth="yes" name="n60"/>
      <point x="1002.8" y="977.6" type="line" name="n61"/>
      <point x="660" y="977.6" type="line"/>
    </contour>
  </outline>
  <guideline angle="90" x="534" y="0"/>
</glyph>
<glyph name="h" format="2">
  <advance width="1119"/>
  <unicode hex="0068"/>
  <anchor x="586" y="716.8" name="Slash"/>
  <anchor x="280" y="1513.4" name="Top"/>
  <anchor x="564.6" y="-70" name="bottom"/>
  <anchor x="280" y="1513.4" name="top"/>
  <outline>
    <contour>
      <point x="332.2" y="0" type="line" name="n00"/>
      <point x="332.2" y="1476" type="line" name="n01"/>
      <point x="136.6" y="1476" type="line" name="n02"/>
      <point x="136.6" y="0" type="line"/>
    </contour>
    <contour>
      <point x="992.6" y="0" type="line"/>
      <point x="992.6" y="647.2" type="line" name="n05"/>
      <point x="797" y="647.2" type="line" name="n06"/>
      <point x="797" y="0" type="line"/>
    </contour>
    <contour>
      <point x="992.6" y="647.2" type="line"/>
      <point x="992.6" y="876.8"/>
      <point x="874.6" y="1032"/>
      <point x="651.8" y="1032" type="curve" smooth="yes" name="n11"/>
      <point x="483.4" y="1032"/>
      <point x="369" y="941.6"/>
      <point x="271" y="816.8" type="curve"/>
      <point x="294.2" y="699.2" type="line"/>
      <point x="375.4" y="807.2"/>
      <point x="476.6" y="877.6"/>
      <point x="594.2" y="877.6" type="curve" smooth="yes" name="n18"/>
      <point x="729.8" y="877.6"/>
      <point x="797" y="792"/>
      <point x="797" y="647.2" type="curve"/>
    </contour>
  </outline>
</glyph>
<glyph name="i" format="2">
  <advance width="486.8"/>
  <unicode hex="0069"/>
  <guideline x="258.4"/>
  <anchor x="341.2" y="141.2" name="hook"/>
  <anchor x="243.4" y="1513.4" name="Top"/>
  <anchor x="243.4" y="1513.4" name="top"/>
  <anchor x="243.4" y="-70.0" name="bottom"/>
  <outline>
    <contour>
      <point x="145.6" y="1016.0" type="line"/>
      <point x="145.6" y="0.0" type="line"/>
      <point x="341.2" y="0.0" type="line"/>
      <point x="341.2" y="1016.0" type="line"/>
    </contour>
    <contour>
      <point x="378.0" y="1329.6" type="curve" smooth="yes"/>
      <point x="378.0" y="1404.0"/>
      <point x="315.2" y="1464.8"/>
      <point x="241.6" y="1464.8" type="curve" smooth="yes"/>
      <point x="169.6" y="1464.8"/>
      <point x="108.80000000000001" y="1404.0"/>
      <point x="108.80000000000001" y="1329.6" type="curve" smooth="yes"/>
      <point x="108.80000000000001" y="1257.2"/>
      <point x="169.6" y="1196.4"/>
      <point x="241.6" y="1196.4" type="curve" smooth="yes"/>
      <point x="315.2" y="1196.4"/>
      <point x="378.0" y="1257.2"/>
    </contour>
  </outline>
</glyph>
<glyph name="j" format="2">
  <advance width="487"/>
  <unicode hex="006A"/>
  <anchor x="243" y="1513.4" name="Top"/>
  <anchor x="244.8" y="496.6" name="bar"/>
  <anchor x="243.4" y="-421" name="bottom"/>
  <anchor x="243" y="1513.4" name="top"/>
  <outline>
    <contour>
      <point x="145.6" y="1016" type="line" name="n00"/>
      <point x="145.6" y="-65.2" type="line" smooth="yes"/>
      <point x="145.6" y="-172"/>
      <point x="107.2" y="-216"/>
      <point x="4.8" y="-216" type="curve" smooth="yes" name="n04"/>
      <point x="-45.6" y="-216"/>
      <point x="-59.2" y="-212.8"/>
      <point x="-64.4" y="-238.4" type="curve"/>
      <point x="-72" y="-343.6" type="line"/>
      <point x="-34.8" y="-356.4"/>
      <point x="0" y="-363.2"/>
      <point x="44.4" y="-363.2" type="curve" smooth="yes" name="n11"/>
      <point x="256.8" y="-363.2"/>
      <point x="341.2" y="-231.2"/>
      <point x="341.2" y="-65.2" type="curve" smooth="yes"/>
      <point x="341.2" y="1016" type="line" name="n15"/>
    </contour>
    <contour>
      <point x="377.6" y="1329.6" type="curve" smooth="yes"/>
      <point x="377.6" y="1404"/>
      <point x="314.8" y="1464.8"/>
      <point x="241.2" y="1464.8" type="curve" smooth="yes" name="n19"/>
      <point x="169.2" y="1464.8"/>
      <point x="108.4" y="1404"/>
      <point x="108.4" y="1329.6" type="curve" smooth="yes"/>
      <point x="108.4" y="1257.2"/>
      <point x="169.2" y="1196.4"/>
      <point x="241.2" y="1196.4" type="curve" smooth="yes" name="n25"/>
      <point x="314.8" y="1196.4"/>
      <point x="377.6" y="1257.2"/>
    </contour>
  </outline>
  <guideline angle="90" x="231" y="0"/>
</glyph>
<glyph name="k" format="2">
  <advance width="1029.0"/>
  <unicode hex="006B"/>
  <anchor x="920.2" y="141.2" name="hook"/>
  <anchor x="302.2" y="1513.4" name="Top"/>
  <anchor x="302.2" y="1513.4" name="top"/>
  <anchor x="543.2" y="-70.0" name="bottom"/>
  <outline>
    <contour>
      <point x="136.6" y="1476.0" type="line"/>
      <point x="136.6" y="0.0" type="line"/>
      <point x="332.2" y="0.0" type="line"/>
      <point x="332.2" y="1476.0" type="line"/>
    </contour>
    <contour>
      <point x="273.0" y="612.8" type="line"/>
      <point x="310.2" y="480.8" type="line"/>
      <point x="384.2" y="480.8" type="line" smooth="yes"/>
      <point x="424.2" y="480.8"/>
      <point x="438.6" y="474.8"/>
      <point x="459.0" y="445.6" type="curve"/>
      <point x="773.4" y="37.2" type="line" smooth="yes"/>
      <point x="790.6" y="9.2"/>
      <point x="814.2" y="0.0"/>
      <point x="845.8" y="0.0" type="curve" smooth="yes"/>
      <point x="1021.0" y="0.0" type="line"/>
      <point x="638.5999999999999" y="499.2" type="line"/>
      <point x="600.2" y="558.4"/>
      <point x="557.4" y="596.4"/>
      <point x="454.6" y="596.4" type="curve"/>
      <point x="454.2" y="536.0" type="line"/>
      <point x="538.2" y="536.0"/>
      <point x="594.2" y="566.0"/>
      <point x="638.5999999999999" y="622.8" type="curve" smooth="yes"/>
      <point x="997.8" y="1016.0" type="line"/>
      <point x="820.2" y="1016.0" type="line" smooth="yes"/>
      <point x="785.0" y="1016.0"/>
      <point x="764.2" y="1002.8"/>
      <point x="745.8" y="978.4" type="curve"/>
      <point x="441.79999999999995" y="642.8" type="line" smooth="yes"/>
      <point x="421.79999999999995" y="618.8"/>
      <point x="405.79999999999995" y="612.8"/>
      <point x="378.2" y="612.8" type="curve" smooth="yes"/>
    </contour>
  </outline>
</glyph>
<glyph name="l" format="2">
  <advance width="478.4"/>
  <unicode hex="006C"/>
  <anchor x="241.2" y="1513.4" name="Top"/>
  <anchor x="337.0" y="141.2" name="hook"/>
  <anchor x="241.4" y="-70.0" name="bottom"/>
  <anchor x="245.6" y="733.6" name="bar"/>
  <anchor x="241.2" y="1513.4" name="top"/>
  <outline>
    <contour>
      <point x="141.4" y="1476.0" type="line"/>
      <point x="141.4" y="0.0" type="line"/>
      <point x="337.0" y="0.0" type="line"/>
      <point x="337.0" y="1476.0" type="line"/>
    </contour>
  </outline>
</glyph>
<glyph name="m" format="2">
  <advance width="1652.8"/>
  <unicode hex="006D"/>
  <anchor x="833.8" y="-70.0" name="bottom"/>
  <anchor x="852.6" y="1120.0" name="top"/>
  <anchor x="1526.6" y="141.2" name="hook"/>
  <outline>
    <contour>
      <point x="332.2" y="0.0" type="line"/>
      <point x="332.2" y="822.8" type="line"/>
      <point x="326.2" y="834.0" type="line"/>
      <point x="305.4" y="977.2" type="line"/>
      <point x="298.2" y="1003.6"/>
      <point x="281.0" y="1016.0"/>
      <point x="254.2" y="1016.0" type="curve" smooth="yes"/>
      <point x="136.6" y="1016.0" type="line"/>
      <point x="136.6" y="0.0" type="line"/>
    </contour>
    <contour>
      <point x="928.6" y="0.0" type="line"/>
      <point x="928.6" y="647.2" type="line"/>
      <point x="733.0" y="647.2" type="line"/>
      <point x="733.0" y="0.0" type="line"/>
    </contour>
    <contour>
      <point x="884.2" y="647.2" type="line"/>
      <point x="884.2" y="870.8"/>
      <point x="794.6" y="1032.0"/>
      <point x="603.8" y="1032.0" type="curve" smooth="yes"/>
      <point x="454.2" y="1032.0"/>
      <point x="356.6" y="938.0"/>
      <point x="271.0" y="818.0" type="curve"/>
      <point x="294.2" y="699.2" type="line"/>
      <point x="359.8" y="807.2"/>
      <point x="446.6" y="877.6"/>
      <point x="547.8" y="877.6" type="curve" smooth="yes"/>
      <point x="668.2" y="877.6"/>
      <point x="733.0" y="802.8"/>
      <point x="733.0" y="647.2" type="curve"/>
    </contour>
    <contour>
      <point x="1526.6" y="0.0" type="line"/>
      <point x="1526.6" y="647.2" type="line"/>
      <point x="1331.0" y="647.2" type="line"/>
      <point x="1331.0" y="0.0" type="line"/>
    </contour>
    <contour>
      <point x="1526.6" y="647.2" type="line"/>
      <point x="1526.6" y="892.4"/>
      <point x="1401.4" y="1032.0"/>
      <point x="1185.0" y="1032.0" type="curve" smooth="yes"/>
      <point x="1007.0" y="1032.0"/>
      <point x="827.8" y="922.4"/>
      <point x="827.8" y="647.2" type="curve"/>
      <point x="928.6" y="647.2" type="line"/>
      <point x="928.6" y="798.8"/>
      <point x="1024.2" y="877.6"/>
      <point x="1137.0" y="877.6" type="curve" smooth="yes"/>
      <point x="1262.6" y="877.6"/>
      <point x="1331.0" y="798.0"/>
      <point x="1331.0" y="647.2" type="curve"/>
    </contour>
  </outline>
</glyph>
<glyph name="n" format="2">
  <advance width="1118.8"/>
  <unicode hex="006E"/>
  <guideline x="-1350.0"/>
  <anchor x="566.6" y="1120.0" name="top"/>
  <anchor x="992.6" y="141.2" name="hook"/>
  <anchor x="564.6" y="-70.0" name="bottom"/>
  <outline>
    <contour>
      <point x="332.2" y="0.0" type="line"/>
      <point x="332.2" y="822.8" type="line"/>
      <point x="326.2" y="834.0" type="line"/>
      <point x="305.4" y="977.2" type="line"/>
      <point x="298.2" y="1003.6"/>
      <point x="281.0" y="1016.0"/>
      <point x="254.2" y="1016.0" type="curve" smooth="yes"/>
      <point x="136.6" y="1016.0" type="line"/>
      <point x="136.6" y="0.0" type="line"/>
    </contour>
    <contour>
      <point x="992.6" y="0.0" type="line"/>
      <point x="992.6" y="647.2" type="line"/>
      <point x="797.0" y="647.2" type="line"/>
      <point x="797.0" y="0.0" type="line"/>
    </contour>
    <contour>
      <point x="992.6" y="647.2" type="line"/>
      <point x="992.6" y="876.8"/>
      <point x="874.6" y="1032.0"/>
      <point x="651.8" y="1032.0" type="curve" smooth="yes"/>
      <point x="483.4" y="1032.0"/>
      <point x="369.0" y="941.6"/>
      <point x="271.0" y="816.8" type="curve"/>
      <point x="294.2" y="699.2" type="line"/>
      <point x="375.4" y="807.2"/>
      <point x="476.6" y="877.6"/>
      <point x="594.2" y="877.6" type="curve" smooth="yes"/>
      <point x="729.8" y="877.6"/>
      <point x="797.0" y="792.0"/>
      <point x="797.0" y="647.2" type="curve"/>
      <point x="797.0" y="611.2" type="line"/>
      <point x="992.6" y="611.2" type="line"/>
    </contour>
  </outline>
</glyph>
<glyph name="o" format="2">
  <advance width="1137.6"/>
  <unicode hex="006F"/>
  <guideline x="567.2"/>
  <anchor x="570.6" y="1120.0" name="top"/>
  <anchor x="570.6" y="-70.0" name="bottom"/>
  <outline>
    <contour>
      <point x="569.8" y="1032.0" type="curve" smooth="yes"/>
      <point x="269.8" y="1032.0"/>
      <point x="79.4" y="828.8"/>
      <point x="79.4" y="509.2" type="curve" smooth="yes"/>
      <point x="79.4" y="188.4"/>
      <point x="269.8" y="-14.4"/>
      <point x="569.8" y="-14.4" type="curve" smooth="yes"/>
      <point x="868.6" y="-14.4"/>
      <point x="1057.8" y="188.4"/>
      <point x="1057.8" y="509.2" type="curve" smooth="yes"/>
      <point x="1057.8" y="828.8"/>
      <point x="868.6" y="1032.0"/>
    </contour>
    <contour>
      <point x="569.8" y="137.6" type="curve" smooth="yes"/>
      <point x="375.0" y="137.6"/>
      <point x="281.0" y="272.8"/>
      <point x="281.0" y="508.0" type="curve" smooth="yes"/>
      <point x="281.0" y="743.2"/>
      <point x="375.0" y="880.0"/>
      <point x="569.8" y="880.0" type="curve" smooth="yes"/>
      <point x="762.2" y="880.0"/>
      <point x="856.2" y="743.2"/>
      <point x="856.2" y="508.0" type="curve" smooth="yes"/>
      <point x="856.2" y="272.8"/>
      <point x="762.2" y="137.6"/>
    </contour>
  </outline>
</glyph>
<glyph name="p" format="2">
  <advance width="1125"/>
  <unicode hex="0070"/>
  <anchor x="236.2" y="-145.6" name="bar"/>
  <anchor x="680.4" y="-70" name="bottom"/>
  <anchor x="768.4" y="141.2" name="hook"/>
  <anchor x="732.2" y="101" name="tick"/>
  <anchor x="522.6" y="1120" name="top"/>
  <outline>
    <contour>
      <point x="332.2" y="-340.8" type="line" name="n00"/>
      <point x="332.2" y="826.4" type="line"/>
      <point x="326.2" y="837.6" type="line"/>
      <point x="305.4" y="977.2" type="line" name="n03"/>
      <point x="298.2" y="1003.6"/>
      <point x="281" y="1016" name="n05"/>
      <point x="254.2" y="1016" type="curve" smooth="yes"/>
      <point x="136.6" y="1016" type="line"/>
      <point x="136.6" y="-340.8" type="line"/>
    </contour>
    <contour>
      <point x="1042.6" y="515.2" type="curve" smooth="yes" name="n09"/>
      <point x="1042.6" y="851.6"/>
      <point x="891.4" y="1034.4"/>
      <point x="660.2" y="1034.4" type="curve" smooth="yes" name="n12"/>
      <point x="494.2" y="1034.4"/>
      <point x="375.8" y="943.6"/>
      <point x="285.4" y="815.2" type="curve"/>
      <point x="308.6" y="699.2" type="line"/>
      <point x="385.4" y="812"/>
      <point x="470.2" y="877.6"/>
      <point x="595.4" y="877.6" type="curve" smooth="yes" name="n19"/>
      <point x="750.2" y="877.6"/>
      <point x="841" y="773.2"/>
      <point x="841" y="515.2" type="curve" smooth="yes" name="n22"/>
      <point x="841" y="270"/>
      <point x="737.8" y="136.4"/>
      <point x="559.8" y="136.4" type="curve" smooth="yes" name="n25"/>
      <point x="463.8" y="136.4"/>
      <point x="386.2" y="170"/>
      <point x="321" y="264.8" type="curve" name="n28"/>
      <point x="291" y="150" type="line"/>
      <point x="366.2" y="47.6"/>
      <point x="456.6" y="-14.4"/>
      <point x="604.2" y="-14.4" type="curve" smooth="yes" name="n32"/>
      <point x="876.2" y="-14.4"/>
      <point x="1042.6" y="214.4"/>
    </contour>
  </outline>
</glyph>
<glyph name="q" format="2">
  <advance width="1123"/>
  <unicode hex="0071"/>
  <anchor x="606.2" y="-421" name="bottom"/>
  <anchor x="615.6" y="1120" name="top"/>
  <outline>
    <contour>
      <point x="870" y="1016" type="line" smooth="yes" name="n00"/>
      <point x="843.2" y="1016"/>
      <point x="826" y="1003.6"/>
      <point x="818.8" y="977.2" type="curve"/>
      <point x="798" y="854.8" type="line"/>
      <point x="792" y="843.6" type="line" name="n05"/>
      <point x="792" y="-340.8" type="line" name="n06"/>
      <point x="987.6" y="-340.8" type="line"/>
      <point x="987.6" y="1016" type="line"/>
    </contour>
    <contour>
      <point x="833.2" y="870" type="line" name="n09"/>
      <point x="758" y="972.4"/>
      <point x="667.6" y="1034.4"/>
      <point x="520" y="1034.4" type="curve" smooth="yes" name="n12"/>
      <point x="248" y="1034.4"/>
      <point x="81.6" y="805.6"/>
      <point x="81.6" y="504.8" type="curve" smooth="yes" name="n15"/>
      <point x="81.6" y="168.4"/>
      <point x="232.8" y="-14.4"/>
      <point x="464" y="-14.4" type="curve" smooth="yes" name="n18"/>
      <point x="630" y="-14.4"/>
      <point x="748.4" y="76.4"/>
      <point x="838.8" y="204.8" type="curve"/>
      <point x="815.6" y="320.8" type="line"/>
      <point x="738.8" y="208"/>
      <point x="654" y="142.4"/>
      <point x="528.8" y="142.4" type="curve" smooth="yes" name="n25"/>
      <point x="374" y="142.4"/>
      <point x="283.2" y="246.8"/>
      <point x="283.2" y="504.8" type="curve" smooth="yes" name="n28"/>
      <point x="283.2" y="750"/>
      <point x="386.4" y="883.6"/>
      <point x="564.4" y="883.6" type="curve" smooth="yes" name="n31"/>
      <point x="660.4" y="883.6"/>
      <point x="740.8" y="847.6"/>
      <point x="803.2" y="755.2" type="curve"/>
    </contour>
  </outline>
</glyph>
<glyph name="r" format="2">
  <advance width="733.0"/>
  <unicode hex="0072"/>
  <anchor x="421.0" y="1120.0" name="top"/>
  <anchor x="237.4" y="-70.0" name="bottom"/>
  <anchor x="332.2" y="141.2" name="hook"/>
  <anchor x="238.6" y="496.6" name="bar"/>
  <outline>
    <contour>
      <point x="719.4" y="1005.2" type="line"/>
      <point x="689.8" y="1025.2"/>
      <point x="649.4" y="1034.4"/>
      <point x="605.4" y="1034.4" type="curve" smooth="yes"/>
      <point x="430.6" y="1034.4"/>
      <point x="328.2" y="887.6"/>
      <point x="263.0" y="665.2" type="curve"/>
      <point x="305.0" y="556.0" type="line"/>
      <point x="359.8" y="737.6"/>
      <point x="423.0" y="843.2"/>
      <point x="571.2" y="843.2" type="curve" smooth="yes"/>
      <point x="614.2" y="843.2"/>
      <point x="654.2" y="832.0"/>
      <point x="673.0" y="832.0" type="curve" smooth="yes"/>
      <point x="691.0" y="832.0"/>
      <point x="701.4" y="839.6"/>
      <point x="705.8" y="859.2" type="curve" smooth="yes"/>
    </contour>
    <contour>
      <point x="332.2" y="0.0" type="line"/>
      <point x="332.2" y="750.8" type="line"/>
      <point x="326.2" y="762.0" type="line"/>
      <point x="309.0" y="964.0" type="line"/>
      <point x="303.0" y="1002.4"/>
      <point x="290.6" y="1016.0"/>
      <point x="249.4" y="1016.0" type="curve" smooth="yes"/>
      <point x="136.6" y="1016.0" type="line"/>
      <point x="136.6" y="0.0" type="line"/>
    </contour>
  </outline>
</glyph>
<glyph name="s" format="2">
  <advance width="869"/>
  <unicode hex="0073"/>
  <anchor x="422.4" y="-70" name="bottom"/>
  <anchor x="718.2" y="141.2" name="hook"/>
  <anchor x="450" y="1120" name="top"/>
  <outline>
    <contour>
      <point x="779.2" y="912" type="line"/>
      <point x="702.4" y="986"/>
      <point x="591.2" y="1032"/>
      <point x="457.2" y="1032" type="curve" smooth="yes" name="n03"/>
      <point x="221.6" y="1032"/>
      <point x="90.4" y="892.4"/>
      <point x="90.4" y="733.6" type="curve" smooth="yes" name="n06"/>
      <point x="90.4" y="380.4"/>
      <point x="612" y="494.8"/>
      <point x="612" y="279.2" type="curve" smooth="yes" name="n09"/>
      <point x="612" y="196"/>
      <point x="549.2" y="122.8"/>
      <point x="414.8" y="122.8" type="curve" smooth="yes" name="n12"/>
      <point x="256.4" y="122.8"/>
      <point x="211.6" y="211.2"/>
      <point x="159.6" y="211.2" type="curve" smooth="yes"/>
      <point x="134.4" y="211.2"/>
      <point x="119.2" y="200.8"/>
      <point x="108" y="182.4" type="curve" smooth="yes"/>
      <point x="62.4" y="108" type="line"/>
      <point x="142.4" y="36"/>
      <point x="265.2" y="-16"/>
      <point x="405.2" y="-16" type="curve" smooth="yes" name="n22"/>
      <point x="656.4" y="-16"/>
      <point x="794.8" y="124.8"/>
      <point x="794.8" y="313.6" type="curve" smooth="yes" name="n25"/>
      <point x="794.8" y="642.4"/>
      <point x="275.6" y="548.8"/>
      <point x="275.6" y="749.2" type="curve" smooth="yes" name="n28"/>
      <point x="275.6" y="827.2"/>
      <point x="347.6" y="887.2"/>
      <point x="460.8" y="887.2" type="curve" smooth="yes" name="n31"/>
      <point x="597.2" y="887.2"/>
      <point x="652.8" y="817.2"/>
      <point x="695.6" y="817.2" type="curve" smooth="yes"/>
      <point x="714" y="817.2"/>
      <point x="725.2" y="824"/>
      <point x="735.6" y="841.2" type="curve" smooth="yes"/>
    </contour>
  </outline>
</glyph>
<glyph name="t" format="2">
  <advance width="724"/>
  <unicode hex="0074"/>
  <anchor x="404" y="716.8" name="Slash"/>
  <anchor x="298.8" y="496.6" name="bar"/>
  <anchor x="449.8" y="-70" name="bottom"/>
  <anchor x="323" y="1434.2" name="top"/>
  <outline>
    <contour>
      <point x="198.8" y="948.4" type="line"/>
      <point x="198.8" y="249.6" type="line" smooth="yes" name="n01"/>
      <point x="198.8" y="80.4"/>
      <point x="291.6" y="-16"/>
      <point x="454.8" y="-16" type="curve" smooth="yes" name="n04"/>
      <point x="548.8" y="-16"/>
      <point x="642.4" y="18"/>
      <point x="706.4" y="75.6" type="curve"/>
      <point x="648.4" y="169.6" type="line" smooth="yes"/>
      <point x="640.4" y="182.4"/>
      <point x="633.6" y="188"/>
      <point x="621.2" y="188" type="curve" smooth="yes"/>
      <point x="599.2" y="188"/>
      <point x="571.6" y="143.2"/>
      <point x="499.2" y="143.2" type="curve" smooth="yes" name="n14"/>
      <point x="437.6" y="143.2"/>
      <point x="394.4" y="183.6"/>
      <point x="394.4" y="262.8" type="curve" smooth="yes" name="n17"/>
      <point x="394.4" y="1341.2" type="line" name="n18"/>
      <point x="294.8" y="1341.2" type="line" smooth="yes"/>
      <point x="270.8" y="1341.2"/>
      <point x="254.8" y="1327.2"/>
      <point x="250" y="1305.6" type="curve"/>
    </contour>
    <contour>
      <point x="264.4" y="999.2" type="line"/>
      <point x="234.8" y="1005.2" type="line"/>
      <point x="40.8" y="978.4" type="line"/>
      <point x="40.8" y="900.4" type="line" smooth="yes"/>
      <point x="40.8" y="872.8"/>
      <point x="58.8" y="858"/>
      <point x="81.2" y="858" type="curve" smooth="yes"/>
      <point x="682.2" y="858" type="line" name="n30"/>
      <point x="682.2" y="999.2" type="line" name="n31"/>
    </contour>
  </outline>
</glyph>
<glyph name="u" format="2">
  <advance width="1118"/>
  <unicode hex="0075"/>
  <anchor x="603.8" y="-70" name="bottom"/>
  <anchor x="982.2" y="141.2" name="hook"/>
  <anchor x="560" y="1120" name="top"/>
  <outline>
    <contour>
      <point x="786.6" y="1016" type="line" name="n00"/>
      <point x="786.6" y="193.2" type="line"/>
      <point x="792.6" y="182" type="line"/>
      <point x="813.4" y="38.8" type="line" name="n03"/>
      <point x="820.6" y="12.4"/>
      <point x="837.8" y="0" name="n05"/>
      <point x="864.6" y="0" type="curve" smooth="yes"/>
      <point x="982.2" y="0" type="line" name="n07"/>
      <point x="982.2" y="1016" type="line"/>
    </contour>
    <contour>
      <point x="126.2" y="1016" type="line" name="n09"/>
      <point x="126.2" y="368.8" type="line"/>
      <point x="321.8" y="368.8" type="line"/>
      <point x="321.8" y="1016" type="line" name="n12"/>
    </contour>
    <contour>
      <point x="126.2" y="368.8" type="line"/>
      <point x="126.2" y="139.2"/>
      <point x="244.2" y="-16"/>
      <point x="467" y="-16" type="curve" smooth="yes" name="n16"/>
      <point x="635.4" y="-16"/>
      <point x="749.8" y="74.4"/>
      <point x="847.8" y="199.2" type="curve"/>
      <point x="824.6" y="316.8" type="line"/>
      <point x="743.4" y="208.8"/>
      <point x="642.2" y="138.4"/>
      <point x="524.6" y="138.4" type="curve" smooth="yes" name="n23"/>
      <point x="389" y="138.4"/>
      <point x="321.8" y="224"/>
      <point x="321.8" y="368.8" type="curve"/>
    </contour>
  </outline>
</glyph>
<glyph name="v" format="2">
  <advance width="1038.0"/>
  <unicode hex="0076"/>
  <anchor x="662.6" y="141.2" name="hook"/>
  <anchor x="519.0" y="1120.0" name="top"/>
  <anchor x="519.0" y="-70.0" name="bottom"/>
  <outline>
    <contour>
      <point x="430.8" y="0.0" type="line"/>
      <point x="551.6" y="0.0" type="line"/>
      <point x="536.4" y="122.39999999999999"/>
      <point x="520.8" y="232.0"/>
      <point x="480.8" y="351.2" type="curve" smooth="yes"/>
      <point x="238.4" y="976.8" type="line"/>
      <point x="231.6" y="998.4"/>
      <point x="210.0" y="1016.0"/>
      <point x="179.6" y="1016.0" type="curve" smooth="yes"/>
      <point x="19.200000000000003" y="1016.0" type="line"/>
    </contour>
    <contour>
      <point x="1018.8" y="1016.0" type="line"/>
      <point x="865.6" y="1016.0" type="line" smooth="yes"/>
      <point x="838.4" y="1016.0"/>
      <point x="816.8" y="999.2"/>
      <point x="809.2" y="976.8" type="curve"/>
      <point x="563.2" y="351.2" type="line" smooth="yes"/>
      <point x="522.0" y="230.79999999999998"/>
      <point x="505.2" y="122.39999999999999"/>
      <point x="491.2" y="0.0" type="curve"/>
      <point x="607.2" y="0.0" type="line"/>
    </contour>
  </outline>
</glyph>
<glyph name="w" format="2">
  <advance width="1579"/>
  <unicode hex="0077"/>
  <anchor x="789.6" y="-70" name="bottom"/>
  <anchor x="791.8" y="1120" name="top"/>
  <outline>
    <contour>
      <point x="356.6" y="0" type="line" name="n00"/>
      <point x="504.6" y="0" type="line" smooth="yes"/>
      <point x="526.6" y="0"/>
      <point x="541.4" y="12.4"/>
      <point x="548.2" y="36.4" type="curve"/>
      <point x="765.4" y="698.8" type="line"/>
      <point x="790.6" y="780.8"/>
      <point x="801.8" y="862"/>
      <point x="809.8" y="944" type="curve"/>
      <point x="770.2" y="944" type="line"/>
      <point x="778.2" y="862"/>
      <point x="789.4" y="782"/>
      <point x="814.6" y="700" type="curve"/>
      <point x="1029" y="36.4" type="line"/>
      <point x="1035.8" y="11.2"/>
      <point x="1049.4" y="0"/>
      <point x="1067.4" y="0" type="curve" smooth="yes"/>
      <point x="1222.6" y="0" type="line"/>
      <point x="1550.2" y="1016" type="line" name="n18"/>
      <point x="1403" y="1016" type="line" smooth="yes"/>
      <point x="1375.8" y="1016"/>
      <point x="1354.2" y="999.2"/>
      <point x="1346.6" y="976.8" type="curve"/>
      <point x="1160.6" y="351.2" type="line"/>
      <point x="1128.6" y="228.4"/>
      <point x="1114.6" y="124"/>
      <point x="1106.6" y="1.6" type="curve"/>
      <point x="1160.2" y="0.8" type="line"/>
      <point x="1153.4" y="123.2"/>
      <point x="1124.6" y="230.8"/>
      <point x="1090.2" y="351.2" type="curve"/>
      <point x="891.8" y="980.8" type="line" smooth="yes"/>
      <point x="885" y="1002.4"/>
      <point x="865" y="1018.4" name="n33"/>
      <point x="836.2" y="1018.4" type="curve" smooth="yes"/>
      <point x="751" y="1018.4" type="line" smooth="yes"/>
      <point x="724.6" y="1018.4"/>
      <point x="704.6" y="1002.4"/>
      <point x="697.8" y="980.8" type="curve" smooth="yes"/>
      <point x="495" y="351.2" type="line"/>
      <point x="458.2" y="229.6"/>
      <point x="429.4" y="124"/>
      <point x="415.4" y="1.6" type="curve"/>
      <point x="476.6" y="1.6" type="line"/>
      <point x="467.4" y="124"/>
      <point x="454.2" y="229.6"/>
      <point x="424.6" y="351.2" type="curve"/>
      <point x="242.2" y="976.8" type="line" smooth="yes"/>
      <point x="235.4" y="998.4"/>
      <point x="213.8" y="1016"/>
      <point x="183.4" y="1016" type="curve" smooth="yes"/>
      <point x="29" y="1016" type="line"/>
    </contour>
  </outline>
</glyph>
<glyph name="y" format="2">
  <advance width="1037"/>
  <unicode hex="0079"/>
  <anchor x="372" y="-421" name="bottom"/>
  <anchor x="544.8" y="1120" name="top"/>
  <outline>
    <contour>
      <point x="460.8" y="3.2" type="line"/>
      <point x="567.2" y="3.2" type="line"/>
      <point x="559.2" y="126.8"/>
      <point x="547.2" y="249.6"/>
      <point x="503.6" y="365.2" type="curve"/>
      <point x="245.6" y="976.8" type="line" smooth="yes"/>
      <point x="237.6" y="997.2"/>
      <point x="220" y="1016" name="n07"/>
      <point x="187.2" y="1016" type="curve" smooth="yes"/>
      <point x="17.2" y="1016" type="line"/>
    </contour>
    <contour>
      <point x="1024.8" y="1016" type="line"/>
      <point x="869.2" y="1016" type="line" smooth="yes"/>
      <point x="844.4" y="1016"/>
      <point x="821.6" y="999.2"/>
      <point x="812.8" y="976.8" type="curve" smooth="yes"/>
      <point x="564.4" y="366.4" type="line"/>
      <point x="538.4" y="298.4"/>
      <point x="516" y="226"/>
      <point x="506.8" y="155.6" type="curve"/>
      <point x="462.4" y="124" type="line"/>
      <point x="248" y="-340.8" type="line" name="n20"/>
      <point x="392.8" y="-340.8" type="line" smooth="yes"/>
      <point x="432.4" y="-340.8"/>
      <point x="448.8" y="-324"/>
      <point x="461.2" y="-294.8" type="curve" smooth="yes"/>
    </contour>
  </outline>
</glyph>
<glyph name="z" format="2">
  <advance width="908"/>
  <unicode hex="007A"/>
  <anchor x="453.6" y="-70" name="bottom"/>
  <anchor x="774.4" y="141.2" name="hook"/>
  <anchor x="476.4" y="1120" name="top"/>
  <outline>
    <contour>
      <point x="844.8" y="1016" type="line"/>
      <point x="86.8" y="1016" type="line" name="n01"/>
      <point x="86.8" y="864" type="line" name="n02"/>
      <point x="671.2" y="864" type="line"/>
      <point x="633.2" y="882" type="line"/>
      <point x="82.8" y="150.8" type="line" smooth="yes"/>
      <point x="65.6" y="128"/>
      <point x="56.4" y="99.6"/>
      <point x="56.4" y="81.6" type="curve" smooth="yes"/>
      <point x="56.4" y="0" type="line"/>
      <point x="826.8" y="0" type="line" name="n10"/>
      <point x="826.8" y="152" type="line" name="n11"/>
      <point x="239.6" y="152" type="line"/>
      <point x="268" y="129.6" type="line"/>
      <point x="818.4" y="859.6" type="line"/>
      <point x="834.4" y="877.6"/>
      <point x="844.8" y="906"/>
      <point x="844.8" y="934" type="curve" smooth="yes"/>
    </contour>
  </outline>
</glyph>
<glyph name="braceleft" format="2">
  <advance width="605"/>
  <unicode hex="007B"/>
  <outline>
    <contour>
      <point x="197.6" y="822" type="curve" smooth="yes" name="n00"/>
      <point x="197.6" y="738.4"/>
      <point x="152.4" y="679.6"/>
      <point x="65.2" y="679.6" type="curve"/>
      <point x="65.2" y="563.6" type="line"/>
      <point x="150.4" y="613.6" type="line"/>
      <point x="272.4" y="613.6"/>
      <point x="363.6" y="704.4"/>
      <point x="363.6" y="824.4" type="curve" smooth="yes" name="n08"/>
      <point x="363.6" y="955.2"/>
      <point x="319.6" y="1078.8"/>
      <point x="319.6" y="1227.2" type="curve" smooth="yes" name="n11"/>
      <point x="319.6" y="1338.4"/>
      <point x="380" y="1408.4"/>
      <point x="480" y="1408.4" type="curve" smooth="yes" name="n14"/>
      <point x="497.6" y="1408.4" type="line" smooth="yes"/>
      <point x="514" y="1408.4"/>
      <point x="540.8" y="1420.8"/>
      <point x="540.8" y="1449.6" type="curve" smooth="yes"/>
      <point x="540.8" y="1536.8" type="line"/>
      <point x="487.2" y="1536.8" type="line" smooth="yes" name="n20"/>
      <point x="261.2" y="1536.8"/>
      <point x="148.8" y="1404.8"/>
      <point x="148.8" y="1215.2" type="curve" smooth="yes" name="n23"/>
      <point x="148.8" y="1078.8"/>
      <point x="197.6" y="954"/>
    </contour>
    <contour>
      <point x="197.6" y="421.2" type="curve" smooth="yes"/>
      <point x="197.6" y="289.2"/>
      <point x="148.8" y="164.4"/>
      <point x="148.8" y="28" type="curve" smooth="yes"/>
      <point x="148.8" y="-161.6"/>
      <point x="261.2" y="-293.6"/>
      <point x="487.2" y="-293.6" type="curve" smooth="yes" name="n32"/>
      <point x="540.8" y="-293.6" type="line"/>
      <point x="540.8" y="-206.4" type="line" smooth="yes"/>
      <point x="540.8" y="-177.6"/>
      <point x="514" y="-165.2"/>
      <point x="497.6" y="-165.2" type="curve" smooth="yes"/>
      <point x="480" y="-165.2" type="line" smooth="yes" name="n38"/>
      <point x="380" y="-165.2"/>
      <point x="319.6" y="-95.2"/>
      <point x="319.6" y="16" type="curve" smooth="yes"/>
      <point x="319.6" y="164.4"/>
      <point x="363.6" y="288"/>
      <point x="363.6" y="418.8" type="curve" smooth="yes"/>
      <point x="363.6" y="538.8"/>
      <point x="272.4" y="629.6"/>
      <point x="150.4" y="629.6" type="curve"/>
      <point x="65.2" y="679.6" type="line"/>
      <point x="65.2" y="563.6" type="line"/>
      <point x="152.4" y="563.6"/>
      <point x="197.6" y="504.8"/>
    </contour>
  </outline>
  <guideline angle="0" x="0" y="630"/>
</glyph>
<glyph name="bar" format="2">
  <advance width="506"/>
  <unicode hex="007C"/>
  <outline>
    <contour>
      <point x="177.2" y="-347.8" type="line" name="n00"/>
      <point x="329.2" y="-347.8" type="line" name="n01"/>
      <point x="329.2" y="1536.8" type="line" name="n02"/>
      <point x="177.2" y="1536.8" type="line"/>
    </contour>
  </outline>
</glyph>
<glyph name="braceright" format="2">
  <advance width="605"/>
  <unicode hex="007D"/>
  <outline>
    <contour>
      <point x="407" y="822" type="curve" smooth="yes" name="n00"/>
      <point x="407" y="954"/>
      <point x="455.8" y="1078.8"/>
      <point x="455.8" y="1215.2" type="curve" smooth="yes" name="n03"/>
      <point x="455.8" y="1404.8"/>
      <point x="343.4" y="1536.8"/>
      <point x="117.4" y="1536.8" type="curve" smooth="yes" name="n06"/>
      <point x="63.8" y="1536.8" type="line"/>
      <point x="63.8" y="1449.6" type="line" smooth="yes"/>
      <point x="63.8" y="1420.8"/>
      <point x="90.6" y="1408.4"/>
      <point x="107" y="1408.4" type="curve" smooth="yes"/>
      <point x="124.6" y="1408.4" type="line" smooth="yes" name="n12"/>
      <point x="224.6" y="1408.4"/>
      <point x="285" y="1338.4"/>
      <point x="285" y="1227.2" type="curve" smooth="yes" name="n15"/>
      <point x="285" y="1078.8"/>
      <point x="241" y="955.2"/>
      <point x="241" y="824.4" type="curve" smooth="yes" name="n18"/>
      <point x="241" y="704.4"/>
      <point x="332.2" y="613.6"/>
      <point x="454.2" y="613.6" type="curve"/>
      <point x="539.4" y="563.6" type="line"/>
      <point x="539.4" y="679.6" type="line"/>
      <point x="452.2" y="679.6"/>
      <point x="407" y="738.4"/>
    </contour>
    <contour>
      <point x="407" y="421.2" type="curve" smooth="yes"/>
      <point x="407" y="504.8"/>
      <point x="452.2" y="563.6"/>
      <point x="539.4" y="563.6" type="curve"/>
      <point x="539.4" y="679.6" type="line"/>
      <point x="454.2" y="629.6" type="line"/>
      <point x="332.2" y="629.6"/>
      <point x="241" y="538.8"/>
      <point x="241" y="418.8" type="curve" smooth="yes"/>
      <point x="241" y="288"/>
      <point x="285" y="164.4"/>
      <point x="285" y="16" type="curve" smooth="yes"/>
      <point x="285" y="-95.2"/>
      <point x="224.6" y="-165.2"/>
      <point x="124.6" y="-165.2" type="curve" smooth="yes" name="n40"/>
      <point x="107" y="-165.2" type="line" smooth="yes"/>
      <point x="90.6" y="-165.2"/>
      <point x="63.8" y="-177.6"/>
      <point x="63.8" y="-206.4" type="curve" smooth="yes"/>
      <point x="63.8" y="-293.6" type="line"/>
      <point x="117.4" y="-293.6" type="line" smooth="yes" name="n46"/>
      <point x="343.4" y="-293.6"/>
      <point x="455.8" y="-161.6"/>
      <point x="455.8" y="28" type="curve" smooth="yes"/>
      <point x="455.8" y="164.4"/>
      <point x="407" y="289.2"/>
    </contour>
  </outline>
  <guideline angle="0" x="0" y="630"/>
</glyph>
<glyph name="asciitilde" format="2">
  <advance width="1160"/>
  <unicode hex="007E"/>
  <outline>
    <contour>
      <point x="759.4" y="621.6" type="curve" smooth="yes" name="n00"/>
      <point x="665" y="621.6"/>
      <point x="534.2" y="722.4"/>
      <point x="394.6" y="722.4" type="curve" smooth="yes" name="n03"/>
      <point x="217.8" y="722.4"/>
      <point x="115" y="595.6"/>
      <point x="115" y="410" type="curve" name="n06"/>
      <point x="273" y="410" type="line" name="n07"/>
      <point x="273.8" y="501.6"/>
      <point x="323.4" y="560.8"/>
      <point x="406.6" y="560.8" type="curve" smooth="yes" name="n10"/>
      <point x="501" y="560.8"/>
      <point x="631.8" y="460"/>
      <point x="771.4" y="460" type="curve" smooth="yes" name="n13"/>
      <point x="948.2" y="460"/>
      <point x="1051" y="586.8"/>
      <point x="1051" y="772.4" type="curve" name="n16"/>
      <point x="893" y="772.4" type="line" name="n17"/>
      <point x="892.2" y="680.8"/>
      <point x="842.6" y="621.6"/>
    </contour>
  </outline>
</glyph>
<glyph name="exclamdown" format="2">
  <advance width="512.6"/>
  <unicode hex="00A1"/>
  <guideline x="368.4"/>
  <outline>
    <contour>
      <point x="350.2" y="-340.8" type="line"/>
      <point x="350.2" y="198.0" type="line" smooth="yes"/>
      <point x="350.2" y="318.4"/>
      <point x="339.8" y="423.2"/>
      <point x="323.8" y="559.6" type="curve"/>
      <point x="191.4" y="559.6" type="line"/>
      <point x="175.4" y="423.2"/>
      <point x="165.0" y="318.4"/>
      <point x="165.0" y="198.0" type="curve" smooth="yes"/>
      <point x="165.0" y="-340.8" type="line"/>
    </contour>
    <contour>
      <point x="123.0" y="900.8" type="curve" smooth="yes"/>
      <point x="123.0" y="827.6"/>
      <point x="179.8" y="768.8"/>
      <point x="254.2" y="768.8" type="curve" smooth="yes"/>
      <point x="327.4" y="768.8"/>
      <point x="386.2" y="827.6"/>
      <point x="386.2" y="900.8" type="curve" smooth="yes"/>
      <point x="386.2" y="975.2"/>
      <point x="327.4" y="1032.0"/>
      <point x="254.2" y="1032.0" type="curve" smooth="yes"/>
      <point x="179.8" y="1032.0"/>
      <point x="123.0" y="975.2"/>
    </contour>
  </outline>
</glyph>
<glyph name="cent" format="2">
  <advance width="1160.0"/>
  <unicode hex="00A2"/>
  <outline>
    <contour>
      <point x="1019.8" y="897.6" type="line"/>
      <point x="928.6" y="981.6"/>
      <point x="811.0" y="1030.8"/>
      <point x="655.8" y="1030.8" type="curve" smooth="yes"/>
      <point x="321.4" y="1030.8"/>
      <point x="134.2" y="809.6"/>
      <point x="134.2" y="508.0" type="curve" smooth="yes"/>
      <point x="134.2" y="177.6"/>
      <point x="346.2" y="-14.4"/>
      <point x="623.4" y="-14.4" type="curve" smooth="yes"/>
      <point x="785.4" y="-14.4"/>
      <point x="939.4" y="32.8"/>
      <point x="1033.0" y="143.6" type="curve"/>
      <point x="979.8" y="212.39999999999998" type="line" smooth="yes"/>
      <point x="971.8" y="222.8"/>
      <point x="959.0" y="229.6"/>
      <point x="943.0" y="229.6" type="curve" smooth="yes"/>
      <point x="893.4" y="229.6"/>
      <point x="843.8" y="134.0"/>
      <point x="651.0" y="134.0" type="curve" smooth="yes"/>
      <point x="450.6" y="134.0"/>
      <point x="327.4" y="267.2"/>
      <point x="327.4" y="508.0" type="curve" smooth="yes"/>
      <point x="327.4" y="741.2"/>
      <point x="440.6" y="882.4"/>
      <point x="661.8" y="882.4" type="curve" smooth="yes"/>
      <point x="827.4" y="882.4"/>
      <point x="887.8" y="806.0"/>
      <point x="929.0" y="806.0" type="curve" smooth="yes"/>
      <point x="949.8" y="806.0"/>
      <point x="959.0" y="814.0"/>
      <point x="969.4" y="829.2" type="curve" smooth="yes"/>
    </contour>
    <contour>
      <point x="539.4" y="-232.0" type="line"/>
      <point x="611.8" y="-232.0" type="line" smooth="yes"/>
      <point x="642.6" y="-232.0"/>
      <point x="663.4" y="-206.8"/>
      <point x="665.8" y="-180.0" type="curve"/>
      <point x="771.0" y="1255.2" type="line"/>
      <point x="698.6" y="1255.2" type="line" smooth="yes"/>
      <point x="667.8" y="1255.2"/>
      <point x="647.0" y="1230.0"/>
      <point x="644.6" y="1203.2" type="curve"/>
    </contour>
  </outline>
</glyph>
<glyph name="sterling" format="2">
  <advance width="1160.0"/>
  <unicode hex="00A3"/>
  <outline>
    <contour>
      <point x="1113.8" y="168.4" type="line"/>
      <point x="459.79999999999995" y="168.4" type="line" smooth="yes"/>
      <point x="360.6" y="168.4"/>
      <point x="267.4" y="140.8"/>
      <point x="172.6" y="104.8" type="curve"/>
      <point x="66.2" y="125.2" type="line"/>
      <point x="66.2" y="0.0" type="line"/>
      <point x="1029.0" y="0.0" type="line" smooth="yes"/>
      <point x="1080.2" y="0.0"/>
      <point x="1113.8" y="45.6"/>
      <point x="1113.8" y="85.2" type="curve" smooth="yes"/>
    </contour>
    <contour>
      <point x="234.6" y="79.6" type="line"/>
      <point x="354.6" y="153.6"/>
      <point x="439.4" y="240.0"/>
      <point x="439.4" y="380.0" type="curve" smooth="yes"/>
      <point x="439.4" y="997.2" type="line" smooth="yes"/>
      <point x="439.4" y="1173.2"/>
      <point x="521.0" y="1284.8"/>
      <point x="681.8" y="1284.8" type="curve" smooth="yes"/>
      <point x="794.2" y="1284.8"/>
      <point x="843.8" y="1232.4"/>
      <point x="894.6" y="1164.0" type="curve"/>
      <point x="923.4" y="1131.2"/>
      <point x="957.4" y="1130.4"/>
      <point x="994.2" y="1149.2" type="curve"/>
      <point x="1072.6" y="1199.2" type="line"/>
      <point x="1006.2" y="1339.6"/>
      <point x="890.6" y="1451.2"/>
      <point x="681.8" y="1451.2" type="curve" smooth="yes"/>
      <point x="385.0" y="1451.2"/>
      <point x="239.0" y="1246.8"/>
      <point x="239.0" y="996.0" type="curve" smooth="yes"/>
      <point x="239.0" y="328.4" type="line" smooth="yes"/>
      <point x="239.0" y="209.2"/>
      <point x="156.6" y="151.6"/>
      <point x="66.2" y="125.2" type="curve"/>
    </contour>
    <contour>
      <point x="45.0" y="610.8" type="line"/>
      <point x="815.8" y="610.8" type="line" smooth="yes"/>
      <point x="848.2" y="610.8"/>
      <point x="872.2" y="636.4"/>
      <point x="872.2" y="662.8" type="curve" smooth="yes"/>
      <point x="872.2" y="741.2" type="line"/>
      <point x="111.8" y="741.2" type="line" smooth="yes"/>
      <point x="68.6" y="741.2"/>
      <point x="45.0" y="710.8"/>
      <point x="45.0" y="674.0" type="curve" smooth="yes"/>
    </contour>
  </outline>
</glyph>
<glyph name="currency" format="2">
  <advance width="1160"/>
  <unicode hex="00A4"/>
  <outline>
    <contour>
      <point x="220" y="672.4" type="curve" smooth="yes" name="n00"/>
      <point x="220" y="472.4"/>
      <point x="380" y="312.4"/>
      <point x="580" y="312.4" type="curve" smooth="yes" name="n03"/>
      <point x="779.6" y="312.4"/>
      <point x="940.8" y="472.4"/>
      <point x="940.8" y="672.4" type="curve" smooth="yes" name="n06"/>
      <point x="940.8" y="873.2"/>
      <point x="779.6" y="1033.2"/>
      <point x="580" y="1033.2" type="curve" smooth="yes" name="n09"/>
      <point x="380" y="1033.2"/>
      <point x="220" y="873.2"/>
    </contour>
    <contour>
      <point x="364.8" y="672.4" type="curve" smooth="yes" name="n12"/>
      <point x="364.8" y="792.8"/>
      <point x="461.6" y="889.6"/>
      <point x="580" y="889.6" type="curve" smooth="yes" name="n15"/>
      <point x="700.4" y="889.6"/>
      <point x="797.2" y="792.8"/>
      <point x="797.2" y="672.4" type="curve" smooth="yes" name="n18"/>
      <point x="797.2" y="555.2"/>
      <point x="700.4" y="457.2"/>
      <point x="580" y="457.2" type="curve" smooth="yes" name="n21"/>
      <point x="461.6" y="457.2"/>
      <point x="364.8" y="555.2"/>
    </contour>
    <contour>
      <point x="328" y="822.8" type="line"/>
      <point x="427.2" y="920.8" type="line"/>
      <point x="226" y="1122" type="line" name="n26"/>
      <point x="126.8" y="1024" type="line"/>
    </contour>
    <contour>
      <point x="730.4" y="924.4" type="line"/>
      <point x="828.4" y="825.2" type="line"/>
      <point x="1029.6" y="1026.4" type="line"/>
      <point x="931.6" y="1125.6" type="line"/>
    </contour>
    <contour>
      <point x="430.8" y="420.4" type="line"/>
      <point x="331.6" y="519.6" type="line"/>
      <point x="130.4" y="318.4" type="line"/>
      <point x="228.4" y="219.2" type="line" name="n35"/>
    </contour>
    <contour>
      <point x="832" y="523.2" type="line"/>
      <point x="732.8" y="424" type="line"/>
      <point x="934" y="222.8" type="line"/>
      <point x="1033.2" y="322" type="line"/>
    </contour>
  </outline>
</glyph>
<glyph name="yen" format="2">
  <advance width="1160"/>
  <unicode hex="00A5"/>
  <outline>
    <contour>
      <point x="1119.8" y="1436" type="line" name="n00"/>
      <point x="955.8" y="1436" type="line" smooth="yes"/>
      <point x="919.8" y="1436"/>
      <point x="895.4" y="1412.4"/>
      <point x="884.2" y="1387.2" type="curve"/>
      <point x="623.4" y="841.2" type="line"/>
      <point x="580.6" y="735.2"/>
      <point x="569" y="665.2"/>
      <point x="563" y="551.2" type="curve"/>
      <point x="675.8" y="551.2" type="line"/>
    </contour>
    <contour>
      <point x="484.2" y="551.2" type="line"/>
      <point x="601.8" y="551.2" type="line"/>
      <point x="597" y="666.4"/>
      <point x="581.8" y="734"/>
      <point x="537.8" y="841.2" type="curve"/>
      <point x="275.8" y="1387.2" type="line"/>
      <point x="263.4" y="1417.2"/>
      <point x="240.2" y="1436"/>
      <point x="203" y="1436" type="curve" smooth="yes"/>
      <point x="40.2" y="1436" type="line"/>
    </contour>
    <contour>
      <point x="677.8" y="609.2" type="line" name="n20"/>
      <point x="482.2" y="609.2" type="line" name="n21"/>
      <point x="482.2" y="0" type="line" name="n22"/>
      <point x="677.8" y="0" type="line"/>
    </contour>
    <contour>
      <point x="147" y="302" type="line" name="n24"/>
      <point x="1013" y="302" type="line"/>
      <point x="1013" y="413.2" type="line"/>
      <point x="147" y="413.2" type="line" name="n27"/>
    </contour>
    <contour>
      <point x="147" y="516" type="line" name="n28"/>
      <point x="1013" y="516" type="line"/>
      <point x="1013" y="627.2" type="line"/>
      <point x="147" y="627.2" type="line" name="n31"/>
    </contour>
  </outline>
</glyph>
<glyph name="brokenbar" format="2">
  <advance width="512"/>
  <unicode hex="00A6"/>
  <outline>
    <contour>
      <point x="180.2" y="738.8" type="line" name="n00"/>
      <point x="332.2" y="738.8" type="line" name="n01"/>
      <point x="332.2" y="1536.8" type="line" name="n02"/>
      <point x="180.2" y="1536.8" type="line"/>
    </contour>
    <contour>
      <point x="180.2" y="-340.8" type="line" name="n04"/>
      <point x="332.2" y="-340.8" type="line"/>
      <point x="332.2" y="457.2" type="line"/>
      <point x="180.2" y="457.2" type="line"/>
    </contour>
  </outline>
</glyph>
<glyph name="section" format="2">
  <advance width="995"/>
  <unicode hex="00A7"/>
  <outline>
    <contour>
      <point x="435.8" y="970" type="line"/>
      <point x="203.4" y="947.6"/>
      <point x="97.8" y="838.4"/>
      <point x="97.8" y="694.4" type="curve" smooth="yes" name="n03"/>
      <point x="97.8" y="352"/>
      <point x="675.4" y="408.4"/>
      <point x="675.4" y="173.6" type="curve" smooth="yes" name="n06"/>
      <point x="675.4" y="79.6"/>
      <point x="601.8" y="14.8"/>
      <point x="473.4" y="14.8" type="curve" smooth="yes" name="n09"/>
      <point x="307.8" y="14.8"/>
      <point x="263.4" y="103.2" name="n11"/>
      <point x="211.4" y="103.2" type="curve" smooth="yes"/>
      <point x="186.2" y="103.2"/>
      <point x="171" y="92.8"/>
      <point x="159.8" y="74.4" type="curve" smooth="yes"/>
      <point x="114.2" y="0" type="line"/>
      <point x="194.2" y="-72"/>
      <point x="316.6" y="-124"/>
      <point x="456.6" y="-124" type="curve" smooth="yes" name="n19"/>
      <point x="707.8" y="-124"/>
      <point x="846.2" y="16.8"/>
      <point x="846.2" y="205.6" type="curve" smooth="yes" name="n22"/>
      <point x="846.2" y="534.4"/>
      <point x="271" y="506"/>
      <point x="271" y="725.6" type="curve" smooth="yes" name="n25"/>
      <point x="271" y="797.2"/>
      <point x="315.8" y="848"/>
      <point x="433.8" y="890" type="curve"/>
    </contour>
    <contour>
      <point x="852.2" y="1330.8" type="line"/>
      <point x="775.4" y="1404.8"/>
      <point x="664.2" y="1450.8"/>
      <point x="530.2" y="1450.8" type="curve" smooth="yes" name="n32"/>
      <point x="294.6" y="1450.8"/>
      <point x="163.4" y="1311.2"/>
      <point x="163.4" y="1152.4" type="curve" smooth="yes" name="n35"/>
      <point x="163.4" y="800"/>
      <point x="727.4" y="852.4"/>
      <point x="727.4" y="613.2" type="curve" smooth="yes" name="n38"/>
      <point x="727.4" y="539.6"/>
      <point x="683.4" y="480.8"/>
      <point x="573" y="451.6" type="curve"/>
      <point x="566.2" y="369.2" type="line"/>
      <point x="797.8" y="388.4"/>
      <point x="898.2" y="505.6"/>
      <point x="898.2" y="657.2" type="curve" smooth="yes" name="n45"/>
      <point x="898.2" y="981.2"/>
      <point x="336.6" y="967.6"/>
      <point x="336.6" y="1160.8" type="curve" smooth="yes" name="n48"/>
      <point x="336.6" y="1240"/>
      <point x="409.8" y="1306"/>
      <point x="533.8" y="1306" type="curve" smooth="yes" name="n51"/>
      <point x="670.2" y="1306"/>
      <point x="725.8" y="1236"/>
      <point x="768.6" y="1236" type="curve" smooth="yes"/>
      <point x="787" y="1236"/>
      <point x="798.2" y="1242.8"/>
      <point x="808.6" y="1260" type="curve" smooth="yes"/>
    </contour>
  </outline>
</glyph>
<glyph name="dieresis" format="2">
  <advance width="800"/>
  <unicode hex="00A8"/>
  <anchor x="400" y="1120" name="_top"/>
  <anchor x="400" y="1434.2" name="top"/>
  <outline>
    <contour>
      <point x="325.6" y="1289.6" type="curve" smooth="yes"/>
      <point x="325.6" y="1355.6"/>
      <point x="270" y="1410.4"/>
      <point x="204.8" y="1410.4" type="curve" smooth="yes" name="n03"/>
      <point x="142.4" y="1410.4"/>
      <point x="87.6" y="1355.6"/>
      <point x="87.6" y="1289.6" type="curve" smooth="yes"/>
      <point x="87.6" y="1225.6"/>
      <point x="142.4" y="1173.2"/>
      <point x="204.8" y="1173.2" type="curve" smooth="yes" name="n09"/>
      <point x="270" y="1173.2"/>
      <point x="325.6" y="1225.6"/>
    </contour>
    <contour>
      <point x="712.4" y="1289.6" type="curve" smooth="yes"/>
      <point x="712.4" y="1355.6"/>
      <point x="658" y="1410.4"/>
      <point x="592.8" y="1410.4" type="curve" smooth="yes"/>
      <point x="528" y="1410.4"/>
      <point x="474.4" y="1355.6"/>
      <point x="474.4" y="1289.6" type="curve" smooth="yes"/>
      <point x="474.4" y="1225.6"/>
      <point x="528" y="1173.2"/>
      <point x="592.8" y="1173.2" type="curve" smooth="yes"/>
      <point x="658" y="1173.2"/>
      <point x="712.4" y="1225.6"/>
    </contour>
  </outline>
</glyph>
<glyph name="copyright" format="2">
  <advance width="1660"/>
  <unicode hex="00A9"/>
  <outline>
    <contour>
      <point x="1078" y="483.6" type="curve"/>
      <point x="1014" y="455.6"/>
      <point x="979.2" y="408"/>
      <point x="842.8" y="408" type="curve" smooth="yes" name="n03"/>
      <point x="684.8" y="408"/>
      <point x="569.6" y="520.4"/>
      <point x="569.6" y="720.4" type="curve" smooth="yes" name="n06"/>
      <point x="569.6" y="912.8"/>
      <point x="681.2" y="1033.6"/>
      <point x="861.6" y="1033.6" type="curve" smooth="yes" name="n09"/>
      <point x="1013.2" y="1033.6"/>
      <point x="1046.4" y="963.2"/>
      <point x="1085.2" y="963.2" type="curve" smooth="yes"/>
      <point x="1102.4" y="963.2"/>
      <point x="1113.6" y="974"/>
      <point x="1120.4" y="982.8" type="curve"/>
      <point x="1171.2" y="1053.6" type="line"/>
      <point x="1096" y="1128.8"/>
      <point x="997.6" y="1179.6"/>
      <point x="852" y="1179.6" type="curve" smooth="yes" name="n19"/>
      <point x="590.8" y="1179.6"/>
      <point x="395.6" y="990"/>
      <point x="395.6" y="720.4" type="curve" smooth="yes" name="n22"/>
      <point x="395.6" y="454.8"/>
      <point x="570.4" y="260.8"/>
      <point x="833.2" y="260.8" type="curve" smooth="yes" name="n25"/>
      <point x="986.8" y="260.8"/>
      <point x="1097.2" y="312"/>
      <point x="1172.4" y="401.2" type="curve"/>
      <point x="1106.4" y="471.2" type="line" smooth="yes"/>
      <point x="1099.6" y="478.4"/>
      <point x="1089.2" y="484.4"/>
    </contour>
    <contour>
      <point x="97.2" y="718" type="curve" smooth="yes" name="n32"/>
      <point x="97.2" y="314.4"/>
      <point x="425.6" y="-14"/>
      <point x="829.2" y="-14" type="curve" smooth="yes" name="n35"/>
      <point x="1234" y="-14"/>
      <point x="1562.4" y="314.4"/>
      <point x="1562.4" y="718" type="curve" smooth="yes" name="n38"/>
      <point x="1562.4" y="1122.8"/>
      <point x="1234" y="1451.2"/>
      <point x="829.2" y="1451.2" type="curve" smooth="yes" name="n41"/>
      <point x="425.6" y="1451.2"/>
      <point x="97.2" y="1122.8"/>
    </contour>
    <contour>
      <point x="206.4" y="718" type="curve" smooth="yes" name="n44"/>
      <point x="206.4" y="1073.6"/>
      <point x="480.8" y="1357.2"/>
      <point x="829.2" y="1357.2" type="curve" smooth="yes" name="n47"/>
      <point x="1178.8" y="1357.2"/>
      <point x="1456.4" y="1073.6"/>
      <point x="1456.4" y="718" type="curve" smooth="yes" name="n50"/>
      <point x="1456.4" y="363.6"/>
      <point x="1178.8" y="83.2"/>
      <point x="829.2" y="83.2" type="curve" smooth="yes" name="n53"/>
      <point x="480.8" y="83.2"/>
      <point x="206.4" y="363.6"/>
    </contour>
  </outline>
</glyph>
<glyph name="ordfeminine" format="2">
  <advance width="734.8"/>
  <unicode hex="00AA"/>
  <anchor x="367.4" y="-70.0" name="bottom"/>
  <outline>
    <contour>
      <point x="608.6" y="1222.0" type="line"/>
      <point x="608.6" y="1357.6"/>
      <point x="523.4" y="1454.0"/>
      <point x="378.2" y="1454.0" type="curve" smooth="yes"/>
      <point x="279.4" y="1454.0"/>
      <point x="196.6" y="1424.0"/>
      <point x="126.6" y="1358.0" type="curve"/>
      <point x="151.0" y="1312.4" type="line"/>
      <point x="160.2" y="1299.6"/>
      <point x="173.0" y="1285.6"/>
      <point x="192.6" y="1285.6" type="curve" smooth="yes"/>
      <point x="238.6" y="1285.6"/>
      <point x="263.0" y="1339.2"/>
      <point x="361.4" y="1339.2" type="curve" smooth="yes"/>
      <point x="433.4" y="1339.2"/>
      <point x="470.2" y="1303.2"/>
      <point x="470.2" y="1222.0" type="curve"/>
    </contour>
    <contour>
      <point x="608.6" y="840.4" type="line"/>
      <point x="608.6" y="1222.0" type="line"/>
      <point x="470.2" y="1222.0" type="line"/>
      <point x="470.2" y="961.2" type="line"/>
      <point x="494.6" y="870.8" type="line"/>
      <point x="506.2" y="846.0"/>
      <point x="516.6" y="840.4"/>
      <point x="543.0" y="840.4" type="curve" smooth="yes"/>
    </contour>
    <contour>
      <point x="504.6" y="936.8" type="curve"/>
      <point x="487.8" y="1017.2" type="line"/>
      <point x="435.4" y="962.0"/>
      <point x="390.2" y="930.8"/>
      <point x="318.6" y="930.8" type="curve" smooth="yes"/>
      <point x="267.4" y="930.8"/>
      <point x="231.0" y="950.0"/>
      <point x="231.0" y="1002.0" type="curve" smooth="yes"/>
      <point x="231.0" y="1056.8"/>
      <point x="295.4" y="1096.4"/>
      <point x="490.2" y="1099.6" type="curve"/>
      <point x="472.2" y="1188.0" type="line"/>
      <point x="185.8" y="1182.8"/>
      <point x="95.0" y="1086.4"/>
      <point x="95.0" y="995.2" type="curve" smooth="yes"/>
      <point x="95.0" y="887.2"/>
      <point x="172.2" y="831.6"/>
      <point x="274.6" y="831.6" type="curve" smooth="yes"/>
      <point x="375.4" y="831.6"/>
      <point x="430.2" y="868.4"/>
    </contour>
  </outline>
</glyph>
<glyph name="logicalnot" format="2">
  <advance width="1160"/>
  <unicode hex="00AC"/>
  <outline>
    <contour>
      <point x="144" y="597.6" type="line" name="n00"/>
      <point x="1010.8" y="597.6" type="line"/>
      <point x="1010.8" y="744.8" type="line"/>
      <point x="144" y="744.8" type="line" name="n03"/>
    </contour>
    <contour>
      <point x="844.8" y="310.8" type="line" name="n04"/>
      <point x="1010.8" y="310.8" type="line" name="n05"/>
      <point x="1010.8" y="744.8" type="line"/>
      <point x="844.8" y="744.8" type="line"/>
    </contour>
  </outline>
</glyph>
<glyph name="registered" format="2">
  <advance width="1660"/>
  <unicode hex="00AE"/>
  <outline>
    <contour>
      <point x="767.2" y="620.4" type="line" smooth="yes"/>
      <point x="801.6" y="620.4"/>
      <point x="814.8" y="610.4"/>
      <point x="827.2" y="592.4" type="curve"/>
      <point x="1014.4" y="300.4" type="line"/>
      <point x="1025.2" y="281.6"/>
      <point x="1042.4" y="273.2"/>
      <point x="1066.4" y="273.2" type="curve" smooth="yes"/>
      <point x="1229.2" y="273.2" type="line"/>
      <point x="1012.8" y="600.4" type="line"/>
      <point x="981.2" y="657.6"/>
      <point x="946.4" y="687.2"/>
      <point x="857.6" y="687.2" type="curve"/>
      <point x="794.8" y="650.4" type="line"/>
      <point x="826.4" y="650.4" type="line" smooth="yes" name="n14"/>
      <point x="1051.6" y="650.4"/>
      <point x="1162.8" y="760.8"/>
      <point x="1162.8" y="916.4" type="curve" smooth="yes" name="n17"/>
      <point x="1162.8" y="1079.6"/>
      <point x="1052.8" y="1166.4"/>
      <point x="819.2" y="1166.4" type="curve" smooth="yes" name="n20"/>
      <point x="523.2" y="1166.4" type="line"/>
      <point x="523.2" y="273.2" type="line"/>
      <point x="693.6" y="273.2" type="line"/>
      <point x="693.6" y="1036" type="line" name="n24"/>
      <point x="819.2" y="1036" type="line" smooth="yes" name="n25"/>
      <point x="953.6" y="1036"/>
      <point x="994.8" y="990.4"/>
      <point x="994.8" y="894.8" type="curve" smooth="yes" name="n28"/>
      <point x="994.8" y="797.6"/>
      <point x="948" y="743.6"/>
      <point x="802.4" y="743.6" type="curve" smooth="yes" name="n31"/>
      <point x="645.2" y="743.6" type="line" name="n32"/>
      <point x="640.4" y="620.4" type="line"/>
    </contour>
    <contour>
      <point x="97.2" y="718" type="curve" smooth="yes" name="n34"/>
      <point x="97.2" y="314.4"/>
      <point x="425.6" y="-14"/>
      <point x="829.2" y="-14" type="curve" smooth="yes" name="n37"/>
      <point x="1234" y="-14"/>
      <point x="1562.4" y="314.4"/>
      <point x="1562.4" y="718" type="curve" smooth="yes" name="n40"/>
      <point x="1562.4" y="1122.8"/>
      <point x="1234" y="1451.2"/>
      <point x="829.2" y="1451.2" type="curve" smooth="yes" name="n43"/>
      <point x="425.6" y="1451.2"/>
      <point x="97.2" y="1122.8"/>
    </contour>
    <contour>
      <point x="206.4" y="718" type="curve" smooth="yes" name="n46"/>
      <point x="206.4" y="1073.6"/>
      <point x="480.8" y="1357.2"/>
      <point x="829.2" y="1357.2" type="curve" smooth="yes" name="n49"/>
      <point x="1178.8" y="1357.2"/>
      <point x="1456.4" y="1073.6"/>
      <point x="1456.4" y="718" type="curve" smooth="yes" name="n52"/>
      <point x="1456.4" y="363.6"/>
      <point x="1178.8" y="83.2"/>
      <point x="829.2" y="83.2" type="curve" smooth="yes" name="n55"/>
      <point x="480.8" y="83.2"/>
      <point x="206.4" y="363.6"/>
    </contour>
  </outline>
</glyph>
<glyph name="macron" format="2">
  <advance width="800.0"/>
  <unicode hex="00AF"/>
  <unicode hex="02C9"/>
  <anchor x="400.0" y="1120.0" name="_top"/>
  <outline>
    <contour>
      <point x="110.0" y="1226.8" type="line"/>
      <point x="690.0" y="1226.8" type="line"/>
      <point x="690.0" y="1353.6" type="line"/>
      <point x="110.0" y="1353.6" type="line"/>
    </contour>
  </outline>
</glyph>
<glyph name="degree" format="2">
  <advance width="829.6"/>
  <unicode hex="00B0"/>
  <outline>
    <contour>
      <point x="83.80000000000001" y="1126.8" type="curve" smooth="yes"/>
      <point x="83.80000000000001" y="948.8"/>
      <point x="228.2" y="800.8"/>
      <point x="414.2" y="800.8" type="curve" smooth="yes"/>
      <point x="600.2" y="800.8"/>
      <point x="745.8" y="948.8"/>
      <point x="745.8" y="1126.8" type="curve" smooth="yes"/>
      <point x="745.8" y="1308.4"/>
      <point x="600.2" y="1453.2"/>
      <point x="414.2" y="1453.2" type="curve" smooth="yes"/>
      <point x="228.2" y="1453.2"/>
      <point x="83.80000000000001" y="1308.4"/>
    </contour>
    <contour>
      <point x="221.8" y="1125.6" type="curve" smooth="yes"/>
      <point x="221.8" y="1235.2"/>
      <point x="304.6" y="1321.6"/>
      <point x="414.2" y="1321.6" type="curve" smooth="yes"/>
      <point x="523.8" y="1321.6"/>
      <point x="606.6" y="1235.2"/>
      <point x="606.6" y="1125.6" type="curve" smooth="yes"/>
      <point x="606.6" y="1017.2"/>
      <point x="523.8" y="932.0"/>
      <point x="414.2" y="932.0" type="curve" smooth="yes"/>
      <point x="304.6" y="932.0"/>
      <point x="221.8" y="1017.2"/>
    </contour>
  </outline>
</glyph>
<glyph name="plusminus" format="2">
  <advance width="1160.0"/>
  <unicode hex="00B1"/>
  <outline>
    <contour>
      <point x="98.6" y="693.6" type="line"/>
      <point x="1061.4" y="693.6" type="line"/>
      <point x="1061.4" y="840.8" type="line"/>
      <point x="98.6" y="840.8" type="line"/>
    </contour>
    <contour>
      <point x="499.4" y="1212.0" type="line"/>
      <point x="499.4" y="332.4" type="line"/>
      <point x="658.6" y="332.4" type="line"/>
      <point x="658.6" y="1212.0" type="line"/>
    </contour>
    <contour>
      <point x="98.6" y="80.0" type="line"/>
      <point x="1061.4" y="80.0" type="line"/>
      <point x="1061.4" y="227.2" type="line"/>
      <point x="98.6" y="227.2" type="line"/>
    </contour>
  </outline>
</glyph>
<glyph name="acute" format="2">
  <advance width="800.0"/>
  <unicode hex="00B4"/>
  <anchor x="400.0" y="1120.0" name="_top"/>
  <outline>
    <contour>
      <point x="514.4" y="1452.0" type="line" smooth="yes"/>
      <point x="468.4" y="1452.0"/>
      <point x="449.6" y="1437.2"/>
      <point x="431.6" y="1406.0" type="curve" smooth="yes"/>
      <point x="284.4" y="1164.0" type="line"/>
      <point x="401.6" y="1164.0" type="line" smooth="yes"/>
      <point x="431.6" y="1164.0"/>
      <point x="448.4" y="1172.0"/>
      <point x="468.0" y="1193.6" type="curve"/>
      <point x="704.8" y="1452.0" type="line"/>
    </contour>
  </outline>
</glyph>
<glyph name="micro" format="2">
  <advance width="1304.0"/>
  <unicode hex="00B5"/>
  <anchor x="605.0" y="1120.0" name="top"/>
  <anchor x="687.4" y="-421.0" name="bottom"/>
  <outline>
    <contour>
      <point x="176.4" y="1016.0" type="line"/>
      <point x="176.4" y="-258.0" type="line" smooth="yes"/>
      <point x="176.4" y="-310.8"/>
      <point x="208.0" y="-340.8"/>
      <point x="262.8" y="-340.8" type="curve" smooth="yes"/>
      <point x="360.0" y="-340.8" type="line"/>
      <point x="360.0" y="-71.6" type="line" smooth="yes"/>
      <point x="360.0" y="6.799999999999997"/>
      <point x="352.0" y="116.0"/>
      <point x="323.6" y="182.4" type="curve"/>
      <point x="372.0" y="218.8" type="line"/>
      <point x="372.0" y="1016.0" type="line"/>
    </contour>
    <contour>
      <point x="257.6" y="404.8" type="line"/>
      <point x="257.6" y="156.0"/>
      <point x="351.4" y="8.0"/>
      <point x="562.8" y="8.0" type="curve" smooth="yes"/>
      <point x="713.2" y="8.0"/>
      <point x="827.6" y="108.0"/>
      <point x="909.4" y="271.8" type="curve"/>
      <point x="851.4" y="382.2" type="line"/>
      <point x="795.4" y="249.0"/>
      <point x="702.6" y="168.4"/>
      <point x="574.8" y="168.4" type="curve" smooth="yes"/>
      <point x="439.2" y="168.4"/>
      <point x="372.0" y="260.0"/>
      <point x="372.0" y="404.8" type="curve"/>
    </contour>
    <contour>
      <point x="837.4" y="293.4" type="line"/>
      <point x="856.2" y="282.0" type="line"/>
      <point x="857.4" y="80.4"/>
      <point x="972.2" y="-9.8"/>
      <point x="1105.4" y="-9.8" type="curve" smooth="yes"/>
      <point x="1186.8" y="-9.8"/>
      <point x="1234.6" y="23.4"/>
      <point x="1234.6" y="57.199999999999996" type="curve" smooth="yes"/>
      <point x="1234.6" y="135.6" type="line"/>
      <point x="1172.4" y="135.6" type="line" smooth="yes"/>
      <point x="1088.2" y="135.6"/>
      <point x="1033.0" y="181.39999999999998"/>
      <point x="1033.0" y="281.4" type="curve" smooth="yes"/>
      <point x="1033.0" y="1016.0" type="line"/>
      <point x="837.4" y="1016.0" type="line"/>
    </contour>
  </outline>
</glyph>
<glyph name="paragraph" format="2">
  <advance width="1419.2"/>
  <unicode hex="00B6"/>
  <outline>
    <contour>
      <point x="692.0" y="1436.0" type="line"/>
      <point x="520.4" y="1436.0" type="line"/>
      <point x="520.4" y="-202.8" type="line"/>
      <point x="692.0" y="-202.8" type="line"/>
    </contour>
    <contour>
      <point x="520.4" y="1436.0" type="line"/>
      <point x="244.0" y="1436.0"/>
      <point x="68.8" y="1278.4"/>
      <point x="68.8" y="1046.0" type="curve" smooth="yes"/>
      <point x="68.8" y="828.8"/>
      <point x="244.0" y="652.8"/>
      <point x="520.4" y="652.8" type="curve"/>
      <point x="561.6" y="1270.0" type="line"/>
      <point x="1348.0" y="1270.0" type="line"/>
      <point x="1348.0" y="1436.0" type="line"/>
    </contour>
    <contour>
      <point x="1130.0" y="1436.0" type="line"/>
      <point x="958.4" y="1436.0" type="line"/>
      <point x="958.4" y="-202.8" type="line"/>
      <point x="1130.0" y="-202.8" type="line"/>
    </contour>
  </outline>
</glyph>
<glyph name="periodcentered" format="2">
  <advance width="527.2"/>
  <unicode hex="00B7"/>
  <unicode hex="2219"/>
  <outline>
    <contour>
      <point x="104.6" y="593.6" type="curve" smooth="yes"/>
      <point x="104.6" y="507.2"/>
      <point x="175.8" y="436.0"/>
      <point x="262.2" y="436.0" type="curve" smooth="yes"/>
      <point x="351.4" y="436.0"/>
      <point x="422.6" y="507.2"/>
      <point x="422.6" y="593.6" type="curve" smooth="yes"/>
      <point x="422.6" y="682.8"/>
      <point x="351.4" y="754.0"/>
      <point x="262.2" y="754.0" type="curve" smooth="yes"/>
      <point x="175.8" y="754.0"/>
      <point x="104.6" y="682.8"/>
    </contour>
  </outline>
</glyph>
<glyph name="cedilla" format="2">
  <advance width="800.0"/>
  <unicode hex="00B8"/>
  <anchor x="400.0" y="-70.0" name="_bottom"/>
  <outline>
    <contour>
      <point x="281.8" y="-248.0" type="curve" smooth="yes"/>
      <point x="268.2" y="-248.0"/>
      <point x="261.4" y="-254.8"/>
      <point x="257.4" y="-267.2" type="curve" smooth="yes"/>
      <point x="239.0" y="-327.6" type="line"/>
      <point x="281.0" y="-345.6"/>
      <point x="331.4" y="-356.8"/>
      <point x="385.4" y="-356.8" type="curve" smooth="yes"/>
      <point x="517.4" y="-356.8"/>
      <point x="608.6" y="-303.2"/>
      <point x="608.6" y="-216.4" type="curve" smooth="yes"/>
      <point x="608.6" y="-135.2"/>
      <point x="544.6" y="-85.2"/>
      <point x="381.4" y="-62.4" type="curve"/>
      <point x="426.2" y="-100.8" type="line"/>
      <point x="462.8" y="27.599999999999998" type="line"/>
      <point x="352.4" y="27.599999999999998" type="line"/>
      <point x="297.4" y="-138.0" type="line"/>
      <point x="398.6" y="-151.2"/>
      <point x="454.6" y="-165.2"/>
      <point x="454.6" y="-213.6" type="curve" smooth="yes"/>
      <point x="454.6" y="-245.6"/>
      <point x="427.0" y="-269.2"/>
      <point x="374.6" y="-269.2" type="curve" smooth="yes"/>
      <point x="321.0" y="-269.2"/>
      <point x="298.6" y="-248.0"/>
    </contour>
  </outline>
</glyph>
<glyph name="ordmasculine" format="2">
  <advance width="804"/>
  <unicode hex="00BA"/>
  <anchor x="401.8" y="-70" name="bottom"/>
  <outline>
    <contour>
      <point x="403.4" y="1452.8" type="curve" smooth="yes" name="n00"/>
      <point x="213.4" y="1452.8"/>
      <point x="88.6" y="1333.2"/>
      <point x="88.6" y="1142" type="curve" smooth="yes" name="n03"/>
      <point x="88.6" y="948.4"/>
      <point x="213.4" y="828.4"/>
      <point x="403.4" y="828.4" type="curve" smooth="yes" name="n06"/>
      <point x="591.4" y="828.4"/>
      <point x="715" y="948.4"/>
      <point x="715" y="1142" type="curve" smooth="yes" name="n09"/>
      <point x="715" y="1333.2"/>
      <point x="591.4" y="1452.8"/>
    </contour>
    <contour>
      <point x="403.4" y="944" type="curve" smooth="yes"/>
      <point x="293.4" y="944"/>
      <point x="241.8" y="1012"/>
      <point x="241.8" y="1140.8" type="curve" smooth="yes" name="n15"/>
      <point x="241.8" y="1269.6"/>
      <point x="293.4" y="1337.2"/>
      <point x="403.4" y="1337.2" type="curve" smooth="yes"/>
      <point x="509" y="1337.2"/>
      <point x="561.8" y="1269.6"/>
      <point x="561.8" y="1140.8" type="curve" smooth="yes" name="n21"/>
      <point x="561.8" y="1012"/>
      <point x="509" y="944"/>
    </contour>
  </outline>
</glyph>
<glyph name="questiondown" format="2">
  <advance width="888.0"/>
  <unicode hex="00BF"/>
  <outline>
    <contour>
      <point x="766.6" y="-127.60000000000001" type="line"/>
      <point x="757.4" y="-111.2"/>
      <point x="743.4" y="-103.2"/>
      <point x="725.0" y="-103.2" type="curve"/>
      <point x="691.0" y="-103.2"/>
      <point x="629.8" y="-195.20000000000002"/>
      <point x="470.6" y="-195.20000000000002" type="curve" smooth="yes"/>
      <point x="354.6" y="-195.20000000000002"/>
      <point x="263.4" y="-126.0"/>
      <point x="263.4" y="-15.200000000000003" type="curve"/>
      <point x="263.4" y="218.8"/>
      <point x="585.4" y="200.8"/>
      <point x="567.4" y="394.0" type="curve" smooth="yes"/>
      <point x="554.2" y="559.6" type="line"/>
      <point x="420.6" y="559.6" type="line"/>
      <point x="401.4" y="408.0" type="line"/>
      <point x="383.0" y="276.0"/>
      <point x="81.0" y="272.4"/>
      <point x="81.0" y="-32.0" type="curve" smooth="yes"/>
      <point x="81.0" y="-232.8"/>
      <point x="238.2" y="-354.4"/>
      <point x="453.8" y="-354.4" type="curve" smooth="yes"/>
      <point x="616.6" y="-354.4"/>
      <point x="732.6" y="-287.6"/>
      <point x="818.2" y="-210.0" type="curve"/>
    </contour>
    <component base="period" xOffset="255.2" yOffset="783.6"/>
  </outline>
</glyph>
<glyph name="AE" format="2">
  <advance width="1862"/>
  <unicode hex="00C6"/>
  <anchor x="1248.2" y="1513.4" name="Top"/>
  <anchor x="880.4" y="-70" name="bottom"/>
  <anchor x="1248.2" y="1513.4" name="top"/>
  <outline>
    <contour>
      <point x="-9.8" y="0" type="line"/>
      <point x="151.8" y="0" type="line" smooth="yes"/>
      <point x="190.2" y="0"/>
      <point x="218.8" y="19.4"/>
      <point x="232.6" y="48.8" type="curve"/>
      <point x="780.2" y="1124.4" type="line"/>
      <point x="817.8" y="1205.2"/>
      <point x="854.6" y="1307.6"/>
      <point x="877.4" y="1436" type="curve"/>
      <point x="741.4" y="1436" type="line"/>
    </contour>
    <contour>
      <point x="310.6" y="383.2" type="line" name="n10"/>
      <point x="1094.6" y="383.2" type="line"/>
      <point x="1094.6" y="535.2" type="line"/>
      <point x="310.6" y="535.2" type="line" name="n13"/>
    </contour>
    <contour>
      <point x="1019.8" y="1436" type="line"/>
      <point x="819" y="1436" type="line"/>
      <point x="997.4" y="0" type="line"/>
      <point x="1198.2" y="0" type="line"/>
    </contour>
    <contour>
      <point x="1077" y="807.2" type="line" name="n18"/>
      <point x="1077" y="641.2" type="line" name="n19"/>
      <point x="1643.8" y="641.2" type="line"/>
      <point x="1643.8" y="807.2" type="line"/>
    </contour>
    <contour>
      <point x="977" y="1436" type="line" name="n22"/>
      <point x="977" y="1264" type="line" name="n23"/>
      <point x="1775.8" y="1264" type="line"/>
      <point x="1775.8" y="1436" type="line"/>
    </contour>
    <contour>
      <point x="1117" y="172" type="line" name="n26"/>
      <point x="1117" y="0" type="line" name="n27"/>
      <point x="1775.8" y="0" type="line"/>
      <point x="1776.6" y="172" type="line"/>
    </contour>
  </outline>
</glyph>
<glyph name="Eth" format="2">
  <advance width="1537.8"/>
  <unicode hex="00D0"/>
  <anchor x="675.8" y="1513.4" name="Top"/>
  <anchor x="675.8" y="1513.4" name="top"/>
  <anchor x="640.6" y="-70.0" name="bottom"/>
  <outline>
    <contour>
      <point x="1446.8" y="718.0" type="curve" smooth="yes"/>
      <point x="1446.8" y="1145.6"/>
      <point x="1160.0" y="1436.0"/>
      <point x="734.0" y="1436.0" type="curve"/>
      <point x="194.4" y="1436.0" type="line"/>
      <point x="194.4" y="0.0" type="line"/>
      <point x="734.0" y="0.0" type="line"/>
      <point x="1160.0" y="0.0"/>
      <point x="1446.8" y="289.2"/>
    </contour>
    <contour>
      <point x="1228.8" y="718.0" type="curve" smooth="yes"/>
      <point x="1228.8" y="374.0"/>
      <point x="1036.0" y="171.2"/>
      <point x="734.0" y="171.2" type="curve"/>
      <point x="408.0" y="171.2" type="line"/>
      <point x="408.0" y="1264.8" type="line"/>
      <point x="734.0" y="1264.8" type="line"/>
      <point x="1036.0" y="1264.8"/>
      <point x="1228.8" y="1060.8"/>
    </contour>
    <contour>
      <point x="2.0" y="662.4" type="line"/>
      <point x="692.0" y="662.4" type="line"/>
      <point x="692.0" y="785.6" type="line"/>
      <point x="2.0" y="785.6" type="line"/>
    </contour>
  </outline>
</glyph>
<glyph name="multiply" format="2">
  <advance width="1160"/>
  <unicode hex="00D7"/>
  <outline>
    <contour>
      <point x="136.8" y="1011.2" type="line"/>
      <point x="932.4" y="216.4" type="line"/>
      <point x="1036.4" y="320.4" type="line"/>
      <point x="240.4" y="1116" type="line" name="n03"/>
    </contour>
    <contour>
      <point x="919.6" y="1114" type="line"/>
      <point x="124.8" y="318.4" type="line"/>
      <point x="228.8" y="214.4" type="line" name="n06"/>
      <point x="1024.4" y="1009.2" type="line"/>
    </contour>
  </outline>
</glyph>
<glyph name="Oslash" format="2">
  <advance width="1605"/>
  <unicode hex="00D8"/>
  <anchor x="810.6" y="1513.4" name="Top"/>
  <anchor x="722.2" y="-70" name="bottom"/>
  <anchor x="810.6" y="1513.4" name="top"/>
  <outline>
    <contour>
      <point x="1473.8" y="1501.2" type="line" name="n00"/>
      <point x="1364.2" y="1501.2" type="line" smooth="yes"/>
      <point x="1317" y="1501.2"/>
      <point x="1302.2" y="1486.4"/>
      <point x="1273.4" y="1447.2" type="curve" smooth="yes"/>
      <point x="133.8" y="-109.2" type="line" name="n05"/>
      <point x="218.6" y="-109.2" type="line" smooth="yes"/>
      <point x="260.2" y="-109.2"/>
      <point x="306.6" y="-93.2"/>
      <point x="337.8" y="-50.4" type="curve" smooth="yes"/>
    </contour>
    <contour>
      <point x="1515" y="718" type="curve" smooth="yes" name="n10"/>
      <point x="1515" y="1145.6"/>
      <point x="1228.2" y="1452"/>
      <point x="802.2" y="1452" type="curve" smooth="yes" name="n13"/>
      <point x="377.8" y="1452"/>
      <point x="89" y="1146"/>
      <point x="89" y="718" type="curve" smooth="yes" name="n16"/>
      <point x="89" y="289.2"/>
      <point x="377.8" y="-15.2"/>
      <point x="802.2" y="-15.2" type="curve" smooth="yes" name="n19"/>
      <point x="1228.2" y="-15.2"/>
      <point x="1515" y="289.2"/>
    </contour>
    <contour>
      <point x="1297" y="718" type="curve" smooth="yes" name="n22"/>
      <point x="1297" y="374"/>
      <point x="1104.2" y="168"/>
      <point x="802.2" y="168" type="curve" smooth="yes" name="n25"/>
      <point x="501.4" y="168"/>
      <point x="306.2" y="374"/>
      <point x="306.2" y="718" type="curve" smooth="yes" name="n28"/>
      <point x="306.2" y="1060.8"/>
      <point x="501.4" y="1268.8"/>
      <point x="802.2" y="1268.8" type="curve" smooth="yes" name="n31"/>
      <point x="1104.2" y="1268.8"/>
      <point x="1297" y="1060.8"/>
    </contour>
  </outline>
</glyph>
<glyph name="Thorn" format="2">
  <advance width="1205"/>
  <unicode hex="00DE"/>
  <anchor x="391" y="1513.4" name="Top"/>
  <anchor x="283.6" y="-70" name="bottom"/>
  <anchor x="391" y="1513.4" name="top"/>
  <outline>
    <contour>
      <point x="300.6" y="269.2" type="line"/>
      <point x="612.2" y="269.2" type="line" smooth="yes" name="n01"/>
      <point x="965.4" y="269.2"/>
      <point x="1153.4" y="458.8"/>
      <point x="1153.4" y="728" type="curve" smooth="yes" name="n04"/>
      <point x="1153.4" y="998"/>
      <point x="980.6" y="1176"/>
      <point x="612.2" y="1176" type="curve" smooth="yes"/>
      <point x="389.8" y="1176" type="line" name="n08"/>
      <point x="389.8" y="1436" type="line" name="n09"/>
      <point x="177.4" y="1436" type="line" name="n10"/>
      <point x="177.4" y="0" type="line" name="n11"/>
      <point x="389.8" y="0" type="line"/>
      <point x="389.8" y="1009.6" type="line" name="n13"/>
      <point x="612.2" y="1009.6" type="line" smooth="yes"/>
      <point x="833.4" y="1009.6"/>
      <point x="941" y="904"/>
      <point x="941" y="728" type="curve" smooth="yes" name="n17"/>
      <point x="941" y="554.4"/>
      <point x="827.4" y="436.8"/>
      <point x="612.2" y="436.8" type="curve" smooth="yes" name="n20"/>
      <point x="318.2" y="436.8" type="line"/>
    </contour>
  </outline>
</glyph>
<glyph name="germandbls" format="2">
  <advance width="1171.6"/>
  <unicode hex="00DF"/>
  <anchor x="605.0" y="1513.4" name="Top"/>
  <anchor x="605.0" y="1513.4" name="top"/>
  <anchor x="573.2" y="-70.0" name="bottom"/>
  <outline>
    <contour>
      <point x="632.4" y="1458.4" type="curve" smooth="yes"/>
      <point x="330.8" y="1458.4"/>
      <point x="136.0" y="1268.0"/>
      <point x="136.0" y="989.6" type="curve" smooth="yes"/>
      <point x="136.0" y="0.0" type="line"/>
      <point x="331.6" y="0.0" type="line"/>
      <point x="331.6" y="983.6" type="line" smooth="yes"/>
      <point x="331.6" y="1203.6"/>
      <point x="444.8" y="1314.8"/>
      <point x="624.0" y="1314.8" type="curve" smooth="yes"/>
      <point x="787.6" y="1314.8"/>
      <point x="850.8" y="1224.0"/>
      <point x="850.8" y="1138.0" type="curve" smooth="yes"/>
      <point x="850.8" y="950.8"/>
      <point x="552.8" y="931.6"/>
      <point x="552.8" y="714.0" type="curve" smooth="yes"/>
      <point x="552.8" y="447.6"/>
      <point x="927.6" y="503.2"/>
      <point x="927.6" y="287.6" type="curve" smooth="yes"/>
      <point x="927.6" y="193.6"/>
      <point x="858.8" y="122.8"/>
      <point x="750.8" y="122.8" type="curve" smooth="yes"/>
      <point x="614.0" y="122.8"/>
      <point x="566.0" y="211.2"/>
      <point x="514.0" y="211.2" type="curve" smooth="yes"/>
      <point x="488.8" y="211.2"/>
      <point x="473.6" y="200.8"/>
      <point x="462.4" y="182.39999999999998" type="curve" smooth="yes"/>
      <point x="416.8" y="108.0" type="line"/>
      <point x="496.8" y="36.0"/>
      <point x="607.2" y="-16.0"/>
      <point x="734.0" y="-16.0" type="curve" smooth="yes"/>
      <point x="944.4" y="-16.0"/>
      <point x="1110.4" y="106.8"/>
      <point x="1110.4" y="318.4" type="curve" smooth="yes"/>
      <point x="1110.4" y="628.0"/>
      <point x="757.2" y="600.4"/>
      <point x="757.2" y="752.4" type="curve"/>
      <point x="757.2" y="878.8"/>
      <point x="1040.0" y="902.0"/>
      <point x="1040.0" y="1138.4" type="curve" smooth="yes"/>
      <point x="1040.0" y="1272.8"/>
      <point x="916.4" y="1458.4"/>
    </contour>
  </outline>
</glyph>
<glyph name="ae" format="2">
  <advance width="1612.4"/>
  <unicode hex="00E6"/>
  <anchor x="797.2" y="1120.0" name="top"/>
  <anchor x="758.6" y="-70.0" name="bottom"/>
  <outline>
    <contour>
      <point x="1142.8" y="1032.0" type="curve" smooth="yes"/>
      <point x="864.0" y="1032.0"/>
      <point x="712.0" y="811.2"/>
      <point x="712.0" y="529.2" type="curve" smooth="yes"/>
      <point x="712.0" y="159.2"/>
      <point x="902.8" y="-14.4"/>
      <point x="1139.6" y="-14.4" type="curve" smooth="yes"/>
      <point x="1277.6" y="-14.4"/>
      <point x="1431.6" y="32.400000000000006"/>
      <point x="1524.4" y="144.8" type="curve"/>
      <point x="1472.4" y="211.2" type="line" smooth="yes"/>
      <point x="1464.4" y="222.8"/>
      <point x="1451.6" y="229.6"/>
      <point x="1432.0" y="229.6" type="curve" smooth="yes"/>
      <point x="1386.4" y="229.6"/>
      <point x="1342.0" y="138.79999999999998"/>
      <point x="1157.6" y="138.79999999999998" type="curve" smooth="yes"/>
      <point x="981.2" y="138.79999999999998"/>
      <point x="868.0" y="265.2"/>
      <point x="868.0" y="529.2" type="curve" smooth="yes"/>
      <point x="868.0" y="751.2"/>
      <point x="958.8" y="889.6"/>
      <point x="1135.2" y="889.6" type="curve" smooth="yes"/>
      <point x="1280.4" y="889.6"/>
      <point x="1362.4" y="764.0"/>
      <point x="1362.4" y="600.4" type="curve"/>
      <point x="829.2" y="600.4" type="line"/>
      <point x="832.0" y="480.4" type="line"/>
      <point x="1491.2" y="480.4" type="line" smooth="yes"/>
      <point x="1527.2" y="480.4"/>
      <point x="1536.0" y="496.4"/>
      <point x="1536.0" y="556.4" type="curve" smooth="yes"/>
      <point x="1536.0" y="854.4"/>
      <point x="1364.8" y="1032.0"/>
    </contour>
    <contour>
      <point x="818.4" y="406.0" type="line"/>
      <point x="830.4" y="648.0" type="line" smooth="yes"/>
      <point x="830.4" y="877.2"/>
      <point x="732.4" y="1034.4"/>
      <point x="496.0" y="1034.4" type="curve" smooth="yes"/>
      <point x="344.4" y="1034.4"/>
      <point x="225.6" y="980.4"/>
      <point x="112.80000000000001" y="873.6" type="curve"/>
      <point x="148.0" y="810.8" type="line" smooth="yes"/>
      <point x="160.4" y="791.2"/>
      <point x="179.2" y="774.8"/>
      <point x="206.0" y="774.8" type="curve" smooth="yes"/>
      <point x="272.4" y="774.8"/>
      <point x="321.6" y="883.6"/>
      <point x="492.4" y="883.6" type="curve" smooth="yes"/>
      <point x="618.0" y="883.6"/>
      <point x="685.2" y="800.0"/>
      <point x="685.2" y="648.0" type="curve" smooth="yes"/>
      <point x="685.2" y="406.0" type="line"/>
    </contour>
    <contour>
      <point x="685.2" y="406.0" type="line"/>
      <point x="685.2" y="212.0"/>
      <point x="570.0" y="120.39999999999999"/>
      <point x="423.6" y="120.39999999999999" type="curve" smooth="yes"/>
      <point x="320.0" y="120.39999999999999"/>
      <point x="251.2" y="168.8"/>
      <point x="251.2" y="278.8" type="curve" smooth="yes"/>
      <point x="251.2" y="388.0"/>
      <point x="374.0" y="472.4"/>
      <point x="714.0" y="480.8" type="curve"/>
      <point x="690.0" y="601.6" type="line"/>
      <point x="224.8" y="591.6"/>
      <point x="64.0" y="429.2"/>
      <point x="64.0" y="269.2" type="curve" smooth="yes"/>
      <point x="64.0" y="78.4"/>
      <point x="190.0" y="-16.0"/>
      <point x="378.0" y="-16.0" type="curve" smooth="yes"/>
      <point x="592.0" y="-16.0"/>
      <point x="818.4" y="98.8"/>
      <point x="818.4" y="406.0" type="curve"/>
    </contour>
  </outline>
</glyph>
<glyph name="ccedilla" format="2">
  <advance width="958"/>
  <unicode hex="00E7"/>
  <anchor x="513.8" y="-421" name="bottom"/>
  <anchor x="556.6" y="1120" name="top"/>
  <outline>
    <contour>
      <point x="900.6" y="897.6" type="line"/>
      <point x="815.4" y="982.8"/>
      <point x="705.8" y="1032"/>
      <point x="561.4" y="1032" type="curve" smooth="yes" name="n03"/>
      <point x="250.6" y="1032"/>
      <point x="79.4" y="810.8"/>
      <point x="79.4" y="509.2" type="curve" smooth="yes" name="n06"/>
      <point x="79.4" y="177.6"/>
      <point x="276.6" y="-14.4"/>
      <point x="529.8" y="-14.4" type="curve" smooth="yes" name="n09"/>
      <point x="675.8" y="-14.4"/>
      <point x="819" y="31.6"/>
      <point x="911.8" y="144.8" type="curve"/>
      <point x="856.2" y="216" type="line"/>
      <point x="848.2" y="227.6"/>
      <point x="835.4" y="234.4"/>
      <point x="819.4" y="234.4" type="curve" smooth="yes"/>
      <point x="768.6" y="234.4"/>
      <point x="734.2" y="136.4"/>
      <point x="564.6" y="136.4" type="curve" smooth="yes"/>
      <point x="390.6" y="136.4"/>
      <point x="279.8" y="270.8"/>
      <point x="279.8" y="509.2" type="curve" smooth="yes" name="n22"/>
      <point x="279.8" y="738.8"/>
      <point x="380.6" y="881.2"/>
      <point x="573.4" y="881.2" type="curve" smooth="yes" name="n25"/>
      <point x="719.8" y="881.2"/>
      <point x="765" y="802.4"/>
      <point x="807.4" y="802.4" type="curve" smooth="yes"/>
      <point x="828.2" y="802.4"/>
      <point x="837.4" y="811.6"/>
      <point x="849" y="826.8" type="curve" smooth="yes"/>
    </contour>
    <contour>
      <point x="421.6" y="-248" type="curve" smooth="yes"/>
      <point x="408" y="-248"/>
      <point x="401.2" y="-254.8"/>
      <point x="397.2" y="-267.2" type="curve" smooth="yes"/>
      <point x="378.8" y="-327.6" type="line"/>
      <point x="420.8" y="-345.6"/>
      <point x="471.2" y="-356.8"/>
      <point x="525.2" y="-356.8" type="curve" smooth="yes" name="n39"/>
      <point x="657.2" y="-356.8"/>
      <point x="748.4" y="-303.2"/>
      <point x="748.4" y="-216.4" type="curve" smooth="yes" name="n42"/>
      <point x="748.4" y="-135.2"/>
      <point x="684.4" y="-85.2"/>
      <point x="521.2" y="-62.4" type="curve"/>
      <point x="566" y="-100.8" type="line"/>
      <point x="602.6" y="27.6" type="line"/>
      <point x="492.2" y="27.6" type="line" name="n48"/>
      <point x="437.2" y="-138" type="line"/>
      <point x="538.4" y="-151.2"/>
      <point x="594.4" y="-165.2"/>
      <point x="594.4" y="-213.6" type="curve" smooth="yes" name="n52"/>
      <point x="594.4" y="-245.6"/>
      <point x="566.8" y="-269.2"/>
      <point x="514.4" y="-269.2" type="curve" smooth="yes" name="n55"/>
      <point x="460.8" y="-269.2"/>
      <point x="438.4" y="-248"/>
    </contour>
  </outline>
</glyph>
<glyph name="eth" format="2">
  <advance width="1134"/>
  <unicode hex="00F0"/>
  <anchor x="706.4" y="1513.4" name="Top"/>
  <anchor x="550" y="-70" name="bottom"/>
  <anchor x="706.4" y="1513.4" name="top"/>
  <outline>
    <contour>
      <point x="319" y="1418.8" type="curve"/>
      <point x="296.6" y="1350.8" type="line"/>
      <point x="277.8" y="1298.4"/>
      <point x="303.4" y="1268"/>
      <point x="337.4" y="1258.4" type="curve"/>
      <point x="701.4" y="1169.2"/>
      <point x="873.8" y="993.6"/>
      <point x="874.6" y="601.2" type="curve"/>
      <point x="859.4" y="596.4" type="line" name="n08"/>
      <point x="859.4" y="281.2"/>
      <point x="740.6" y="137.2"/>
      <point x="553" y="137.2" type="curve" smooth="yes" name="n11"/>
      <point x="399" y="137.2"/>
      <point x="272.2" y="254.8"/>
      <point x="272.2" y="466.4" type="curve" smooth="yes" name="n14"/>
      <point x="272.2" y="640"/>
      <point x="373.4" y="777.2"/>
      <point x="565.4" y="777.2" type="curve" smooth="yes" name="n17"/>
      <point x="739" y="777.2"/>
      <point x="832.2" y="656.8"/>
      <point x="869" y="534" type="curve"/>
      <point x="956.2" y="580" type="line"/>
      <point x="885.8" y="810.4"/>
      <point x="721.4" y="928"/>
      <point x="527" y="928" type="curve" smooth="yes" name="n24"/>
      <point x="250.6" y="928"/>
      <point x="77.8" y="716.4"/>
      <point x="77.8" y="467.6" type="curve" smooth="yes" name="n27"/>
      <point x="77.8" y="167.2"/>
      <point x="283.8" y="-13.6"/>
      <point x="548.2" y="-13.6" type="curve" smooth="yes" name="n30"/>
      <point x="871.8" y="-13.6"/>
      <point x="1042.6" y="221.2"/>
      <point x="1042.6" y="604.8" type="curve" smooth="yes" name="n33"/>
      <point x="1042.6" y="1125.2"/>
      <point x="701" y="1357.6"/>
    </contour>
    <contour>
      <point x="449.8" y="1002.8" type="line"/>
      <point x="674.2" y="1162.8" type="line"/>
      <point x="691.4" y="1166.8" type="line"/>
      <point x="871.8" y="1286" type="line" smooth="yes"/>
      <point x="895.4" y="1301.6"/>
      <point x="902.2" y="1326.8"/>
      <point x="887.4" y="1350.8" type="curve" smooth="yes"/>
      <point x="848.6" y="1413.6" type="line" name="n43"/>
      <point x="625.8" y="1255.6" type="line"/>
      <point x="609.8" y="1251.6" type="line"/>
      <point x="429.4" y="1131.6" type="line"/>
      <point x="403" y="1116"/>
      <point x="396.6" y="1090"/>
      <point x="413.4" y="1064.4" type="curve"/>
    </contour>
  </outline>
  <guideline angle="0" x="0" y="1406"/>
</glyph>
<glyph name="divide" format="2">
  <advance width="1160"/>
  <unicode hex="00F7"/>
  <outline>
    <contour>
      <point x="98.2" y="597.6" type="line" name="n00"/>
      <point x="1061" y="597.6" type="line"/>
      <point x="1061" y="744.8" type="line"/>
      <point x="98.2" y="744.8" type="line" name="n03"/>
    </contour>
    <contour>
      <point x="447.4" y="1026.4" type="curve" smooth="yes" name="n04"/>
      <point x="447.4" y="952"/>
      <point x="504.2" y="895.2"/>
      <point x="578.6" y="895.2" type="curve" smooth="yes" name="n07"/>
      <point x="651.8" y="895.2"/>
      <point x="710.6" y="952"/>
      <point x="710.6" y="1026.4" type="curve" smooth="yes" name="n10"/>
      <point x="710.6" y="1099.6"/>
      <point x="651.8" y="1158.4"/>
      <point x="578.6" y="1158.4" type="curve" smooth="yes" name="n13"/>
      <point x="504.2" y="1158.4"/>
      <point x="447.4" y="1099.6"/>
    </contour>
    <contour>
      <point x="447.4" y="314.4" type="curve" smooth="yes"/>
      <point x="447.4" y="240"/>
      <point x="504.2" y="183.2"/>
      <point x="578.6" y="183.2" type="curve" smooth="yes" name="n19"/>
      <point x="651.8" y="183.2"/>
      <point x="710.6" y="240"/>
      <point x="710.6" y="314.4" type="curve" smooth="yes"/>
      <point x="710.6" y="387.6"/>
      <point x="651.8" y="446.4"/>
      <point x="578.6" y="446.4" type="curve" smooth="yes" name="n25"/>
      <point x="504.2" y="446.4"/>
      <point x="447.4" y="387.6"/>
    </contour>
  </outline>
</glyph>
<glyph name="oslash" format="2">
  <advance width="1136"/>
  <unicode hex="00F8"/>
  <anchor x="522.2" y="-70" name="bottom"/>
  <anchor x="569.2" y="1120" name="top"/>
  <outline>
    <contour>
      <point x="569.8" y="1032" type="curve" smooth="yes" name="n00"/>
      <point x="269.8" y="1032"/>
      <point x="79.4" y="828.8"/>
      <point x="79.4" y="509.2" type="curve" smooth="yes" name="n03"/>
      <point x="79.4" y="188.4"/>
      <point x="269.8" y="-14.4"/>
      <point x="569.8" y="-14.4" type="curve" smooth="yes" name="n06"/>
      <point x="868.6" y="-14.4"/>
      <point x="1057.8" y="188.4"/>
      <point x="1057.8" y="509.2" type="curve" smooth="yes" name="n09"/>
      <point x="1057.8" y="828.8"/>
      <point x="868.6" y="1032"/>
    </contour>
    <contour>
      <point x="569.8" y="131.6" type="curve" smooth="yes" name="n12"/>
      <point x="375" y="131.6"/>
      <point x="269" y="260.8"/>
      <point x="269" y="508" type="curve" smooth="yes" name="n15"/>
      <point x="269" y="743.2"/>
      <point x="375" y="886"/>
      <point x="569.8" y="886" type="curve" smooth="yes" name="n18"/>
      <point x="762.2" y="886"/>
      <point x="868.2" y="755.2"/>
      <point x="868.2" y="508" type="curve" smooth="yes" name="n21"/>
      <point x="868.2" y="272.8"/>
      <point x="762.2" y="131.6"/>
    </contour>
    <contour>
      <point x="1089.4" y="1104" type="line" name="n24"/>
      <point x="991.8" y="1104" type="line" smooth="yes"/>
      <point x="944.6" y="1104"/>
      <point x="927.4" y="1090.4"/>
      <point x="901" y="1050" type="curve"/>
      <point x="68.6" y="-76.4" type="line" name="n29"/>
      <point x="141.4" y="-76.4" type="line" smooth="yes"/>
      <point x="183" y="-76.4"/>
      <point x="231.8" y="-61.6"/>
      <point x="260.6" y="-17.6" type="curve"/>
    </contour>
  </outline>
</glyph>
<glyph name="thorn" format="2">
  <advance width="1125"/>
  <unicode hex="00FE"/>
  <anchor x="281.2" y="1513.4" name="Top"/>
  <anchor x="502.4" y="-421" name="bottom"/>
  <anchor x="281.2" y="1513.4" name="top"/>
  <outline>
    <contour>
      <point x="332.2" y="-340.8" type="line" name="n00"/>
      <point x="332.2" y="1476" type="line" name="n01"/>
      <point x="136.6" y="1476" type="line"/>
      <point x="136.6" y="-340.8" type="line"/>
    </contour>
    <contour>
      <point x="305.4" y="148.8" type="line" name="n04"/>
      <point x="377" y="47.6"/>
      <point x="463.8" y="-14.4"/>
      <point x="604.2" y="-14.4" type="curve" smooth="yes" name="n07"/>
      <point x="876.2" y="-14.4"/>
      <point x="1042.6" y="214.4"/>
      <point x="1042.6" y="515.2" type="curve" smooth="yes" name="n10"/>
      <point x="1042.6" y="851.6"/>
      <point x="891.4" y="1032"/>
      <point x="660.2" y="1032" type="curve" smooth="yes" name="n13"/>
      <point x="494.2" y="1032"/>
      <point x="375.8" y="943.6"/>
      <point x="285.4" y="815.2" type="curve"/>
      <point x="308.6" y="699.2" type="line"/>
      <point x="385.4" y="812"/>
      <point x="470.2" y="877.6"/>
      <point x="595.4" y="877.6" type="curve" smooth="yes" name="n20"/>
      <point x="750.2" y="877.6"/>
      <point x="841" y="773.2"/>
      <point x="841" y="515.2" type="curve" smooth="yes" name="n23"/>
      <point x="841" y="270"/>
      <point x="737.8" y="136.4"/>
      <point x="559.8" y="136.4" type="curve" smooth="yes" name="n26"/>
      <point x="463.8" y="136.4"/>
      <point x="386.2" y="170"/>
      <point x="321" y="264.8" type="curve"/>
    </contour>
  </outline>
</glyph>
<glyph name="dcroat" format="2">
  <advance width="1124.8"/>
  <unicode hex="0111"/>
  <anchor x="857.4" y="1513.4" name="Top"/>
  <anchor x="857.4" y="1513.4" name="top"/>
  <anchor x="605.0" y="-70.0" name="bottom"/>
  <outline>
    <contour>
      <point x="559.2" y="1140.0" type="line"/>
      <point x="1136.0" y="1140.0" type="line"/>
      <point x="1136.0" y="1263.2" type="line"/>
      <point x="559.2" y="1263.2" type="line"/>
    </contour>
    <contour>
      <point x="988.8" y="0.0" type="line"/>
      <point x="988.8" y="1476.0" type="line"/>
      <point x="793.2" y="1476.0" type="line"/>
      <point x="793.2" y="193.2" type="line"/>
      <point x="799.2" y="182.0" type="line"/>
      <point x="820.0" y="38.8" type="line"/>
      <point x="827.2" y="12.4"/>
      <point x="844.4" y="0.0"/>
      <point x="871.2" y="0.0" type="curve"/>
    </contour>
    <contour>
      <point x="834.4" y="846.0" type="line"/>
      <point x="759.2" y="948.4"/>
      <point x="668.8" y="1010.4"/>
      <point x="521.2" y="1010.4" type="curve" smooth="yes"/>
      <point x="249.2" y="1010.4"/>
      <point x="82.80000000000001" y="793.6"/>
      <point x="82.80000000000001" y="492.8" type="curve" smooth="yes"/>
      <point x="82.80000000000001" y="156.4"/>
      <point x="234.0" y="-14.4"/>
      <point x="465.2" y="-14.4" type="curve" smooth="yes"/>
      <point x="631.2" y="-14.4"/>
      <point x="749.6" y="76.4"/>
      <point x="840.0" y="204.8" type="curve"/>
      <point x="816.8" y="320.8" type="line"/>
      <point x="740.0" y="208.0"/>
      <point x="655.2" y="142.4"/>
      <point x="530.0" y="142.4" type="curve" smooth="yes"/>
      <point x="375.2" y="142.4"/>
      <point x="284.4" y="234.8"/>
      <point x="284.4" y="492.8" type="curve" smooth="yes"/>
      <point x="284.4" y="738.0"/>
      <point x="387.6" y="859.6"/>
      <point x="565.6" y="859.6" type="curve" smooth="yes"/>
      <point x="661.6" y="859.6"/>
      <point x="739.2" y="826.0"/>
      <point x="804.4" y="731.2" type="curve"/>
    </contour>
  </outline>
</glyph>
<glyph name="Hbar" format="2">
  <advance width="1546.8"/>
  <unicode hex="0126"/>
  <anchor x="777.4" y="1513.4" name="Top"/>
  <anchor x="777.4" y="1513.4" name="top"/>
  <anchor x="779.0" y="-70.0" name="bottom"/>
  <anchor x="-86.6" y="1120.0" name="onRight"/>
  <outline>
    <contour>
      <point x="25.400000000000002" y="1037.2" type="line"/>
      <point x="1521.4" y="1037.2" type="line"/>
      <point x="1521.4" y="1163.2" type="line"/>
      <point x="25.400000000000002" y="1163.2" type="line"/>
    </contour>
    <component base="H" xOffset="8.0"/>
  </outline>
</glyph>
<glyph name="idotless" format="2">
  <advance width="488"/>
  <unicode hex="0131"/>
  <anchor x="244" y="-70" name="bottom"/>
  <anchor x="249.4" y="1120" name="top"/>
  <outline>
    <contour>
      <point x="146.2" y="1016" type="line" name="n00"/>
      <point x="146.2" y="0" type="line" name="n01"/>
      <point x="341.8" y="0" type="line"/>
      <point x="341.8" y="1016" type="line" name="n03"/>
    </contour>
  </outline>
</glyph>
<glyph name="Lslash" format="2">
  <advance width="1059"/>
  <unicode hex="0141"/>
  <anchor x="315.6" y="716.8" name="Bar"/>
  <anchor x="327.4" y="1513.4" name="Top"/>
  <anchor x="594.4" y="-70" name="bottom"/>
  <anchor x="327.4" y="1513.4" name="top"/>
  <outline>
    <component base="L" xScale="1" xOffset="29.4"/>
    <contour>
      <point x="21.6" y="452.8" type="line" name="n00"/>
      <point x="338.8" y="613.6" type="line"/>
      <point x="345.2" y="602.8" type="line"/>
      <point x="768.4" y="823.2" type="line"/>
      <point x="788.8" y="831.6"/>
      <point x="797.2" y="847.2"/>
      <point x="797.2" y="869.6" type="curve" smooth="yes"/>
      <point x="797.2" y="1013.2" type="line" name="n07"/>
      <point x="345.2" y="784" type="line"/>
      <point x="340" y="794.8" type="line"/>
      <point x="48" y="641.2" type="line"/>
      <point x="29.6" y="632.8"/>
      <point x="21.6" y="619.2"/>
      <point x="21.6" y="599.6" type="curve" smooth="yes"/>
    </contour>
  </outline>
</glyph>
<glyph name="lslash" format="2">
  <advance width="627.2"/>
  <unicode hex="0142"/>
  <anchor x="319.2" y="1513.4" name="Top"/>
  <anchor x="319.2" y="1513.4" name="top"/>
  <anchor x="319.4" y="-70.0" name="bottom"/>
  <anchor x="415.0" y="141.2" name="hook"/>
  <anchor x="323.6" y="733.6" name="bar"/>
  <outline>
    <contour>
      <point x="41.8" y="641.4" type="line"/>
      <point x="318.8" y="759.6" type="line"/>
      <point x="325.2" y="748.8" type="line"/>
      <point x="571.6" y="856.2" type="line" smooth="yes"/>
      <point x="592.0" y="864.6"/>
      <point x="600.4" y="880.2"/>
      <point x="600.4" y="902.6" type="curve" smooth="yes"/>
      <point x="600.4" y="1014.2" type="line"/>
      <point x="325.2" y="899.2" type="line"/>
      <point x="320.0" y="910.0" type="line"/>
      <point x="68.2" y="798.2" type="line"/>
      <point x="49.8" y="789.8"/>
      <point x="41.8" y="776.2"/>
      <point x="41.8" y="756.6" type="curve" smooth="yes"/>
    </contour>
    <component base="l" xOffset="78.0"/>
  </outline>
</glyph>
<glyph name="Eng" format="2">
  <advance width="1530.8"/>
  <unicode hex="014A"/>
  <anchor x="788.6" y="1512.6" name="Top"/>
  <anchor x="788.6" y="1512.6" name="top"/>
  <anchor x="765.4" y="-421.0" name="bottom"/>
  <outline>
    <contour>
      <point x="1203.8" y="308.0" type="line"/>
      <point x="360.2" y="1400.4" type="line"/>
      <point x="337.0" y="1430.4"/>
      <point x="324.6" y="1436.0"/>
      <point x="287.4" y="1436.0" type="curve" smooth="yes"/>
      <point x="177.4" y="1436.0" type="line"/>
      <point x="177.4" y="0.0" type="line"/>
      <point x="364.2" y="0.0" type="line"/>
      <point x="364.2" y="987.6" type="line" smooth="yes"/>
      <point x="364.2" y="1049.2"/>
      <point x="357.4" y="1135.6"/>
      <point x="343.4" y="1197.2" type="curve"/>
      <point x="328.6" y="1128.0" type="line"/>
      <point x="1170.2" y="37.599999999999994" type="line" smooth="yes"/>
      <point x="1191.8" y="10.8"/>
      <point x="1212.2" y="0.0"/>
      <point x="1245.4" y="0.0" type="curve"/>
      <point x="1353.4" y="52.199999999999996" type="line"/>
      <point x="1353.4" y="1436.0" type="line"/>
      <point x="1166.6" y="1436.0" type="line"/>
      <point x="1166.6" y="455.2" type="line" smooth="yes"/>
      <point x="1166.6" y="388.4"/>
      <point x="1175.8" y="296.8"/>
      <point x="1189.8" y="230.0" type="curve"/>
    </contour>
    <contour>
      <point x="1353.4" y="234.4" type="line"/>
      <point x="1166.0" y="234.4" type="line"/>
      <point x="1166.0" y="-7.0" type="line" smooth="yes"/>
      <point x="1166.0" y="-144.60000000000002"/>
      <point x="1108.4" y="-211.0"/>
      <point x="1000.0" y="-211.0" type="curve" smooth="yes"/>
      <point x="951.0" y="-211.0"/>
      <point x="926.8" y="-197.2"/>
      <point x="909.4" y="-197.2" type="curve" smooth="yes"/>
      <point x="890.8" y="-197.2"/>
      <point x="873.8" y="-203.8"/>
      <point x="865.2" y="-235.8" type="curve"/>
      <point x="844.0" y="-320.8" type="line"/>
      <point x="903.8" y="-346.2"/>
      <point x="952.6" y="-357.6"/>
      <point x="1017.8" y="-357.6" type="curve" smooth="yes"/>
      <point x="1255.4" y="-357.6"/>
      <point x="1353.4" y="-206.2"/>
      <point x="1353.4" y="15.200000000000003" type="curve"/>
    </contour>
  </outline>
</glyph>
<glyph name="eng" format="2">
  <advance width="1119"/>
  <unicode hex="014B"/>
  <anchor x="564.6" y="-421" name="bottom"/>
  <anchor x="562.6" y="1120" name="top"/>
  <outline>
    <contour>
      <point x="332.2" y="0" type="line" name="n00"/>
      <point x="332.2" y="822.8" type="line"/>
      <point x="326.2" y="834" type="line"/>
      <point x="305.4" y="977.2" type="line" name="n03"/>
      <point x="298.2" y="1003.6"/>
      <point x="281" y="1016" name="n05"/>
      <point x="254.2" y="1016" type="curve" smooth="yes"/>
      <point x="136.6" y="1016" type="line" name="n07"/>
      <point x="136.6" y="0" type="line"/>
    </contour>
    <contour>
      <point x="992.6" y="647.2" type="line" smooth="yes" name="n09"/>
      <point x="992.6" y="876.8"/>
      <point x="874.6" y="1032"/>
      <point x="651.8" y="1032" type="curve" smooth="yes" name="n12"/>
      <point x="483.4" y="1032"/>
      <point x="369" y="941.6"/>
      <point x="271" y="816.8" type="curve"/>
      <point x="294.2" y="699.2" type="line"/>
      <point x="375.4" y="807.2"/>
      <point x="476.6" y="877.6"/>
      <point x="594.2" y="877.6" type="curve" smooth="yes" name="n19"/>
      <point x="729.8" y="877.6"/>
      <point x="797" y="792"/>
      <point x="797" y="647.2" type="curve" name="n22"/>
      <point x="797" y="647.2" type="line"/>
      <point x="797" y="-13.4" type="line" smooth="yes"/>
      <point x="797" y="-151"/>
      <point x="739.4" y="-217.4"/>
      <point x="631" y="-217.4" type="curve" smooth="yes"/>
      <point x="582" y="-217.4"/>
      <point x="557.8" y="-203.6"/>
      <point x="540.4" y="-203.6" type="curve" smooth="yes" name="n30"/>
      <point x="521.8" y="-203.6"/>
      <point x="504.8" y="-210.2"/>
      <point x="496.2" y="-242.2" type="curve" smooth="yes"/>
      <point x="475" y="-327.2" type="line"/>
      <point x="534.8" y="-352.6"/>
      <point x="583.6" y="-364"/>
      <point x="648.8" y="-364" type="curve" smooth="yes" name="n37"/>
      <point x="886.4" y="-364"/>
      <point x="992.6" y="-212.6"/>
      <point x="992.6" y="8.8" type="curve" smooth="yes"/>
    </contour>
  </outline>
</glyph>
<glyph name="OE" format="2">
  <advance width="2176"/>
  <unicode hex="0152"/>
  <anchor x="1097" y="1513.4" name="Top"/>
  <anchor x="1208.6" y="-70" name="bottom"/>
  <anchor x="1097" y="1513.4" name="top"/>
  <outline>
    <contour>
      <point x="1373.6" y="718" type="curve" smooth="yes"/>
      <point x="1373.6" y="1145.6"/>
      <point x="1118.8" y="1452" name="n02"/>
      <point x="733.6" y="1452" type="curve" smooth="yes"/>
      <point x="350.8" y="1452"/>
      <point x="91.6" y="1146"/>
      <point x="91.6" y="718" type="curve" smooth="yes" name="n06"/>
      <point x="91.6" y="289.2"/>
      <point x="350.8" y="-14.4" name="n08"/>
      <point x="733.6" y="-14.4" type="curve" smooth="yes"/>
      <point x="1118.8" y="-14.4"/>
      <point x="1373.6" y="289.2"/>
    </contour>
    <contour>
      <point x="1413.6" y="1436" type="line" name="n12"/>
      <point x="1224.8" y="1436" type="line" name="n13"/>
      <point x="1224.8" y="0" type="line" name="n14"/>
      <point x="1413.6" y="0" type="line"/>
    </contour>
    <contour>
      <point x="1391.2" y="807.2" type="line" name="n16"/>
      <point x="1391.2" y="641.2" type="line" name="n17"/>
      <point x="1958" y="641.2" type="line"/>
      <point x="1958" y="807.2" type="line"/>
    </contour>
    <contour>
      <point x="1391.2" y="1436" type="line"/>
      <point x="1391.2" y="1264" type="line"/>
      <point x="2090" y="1264" type="line"/>
      <point x="2090" y="1436" type="line"/>
    </contour>
    <contour>
      <point x="1391.2" y="172" type="line"/>
      <point x="1391.2" y="0" type="line"/>
      <point x="2090" y="0" type="line"/>
      <point x="2090.8" y="172" type="line"/>
    </contour>
    <contour>
      <point x="1200" y="718" type="curve" smooth="yes" name="n28"/>
      <point x="1200" y="374"/>
      <point x="1027.6" y="162.8"/>
      <point x="755.6" y="162.8" type="curve" smooth="yes" name="n31"/>
      <point x="482.8" y="162.8"/>
      <point x="308.8" y="374"/>
      <point x="308.8" y="718" type="curve" smooth="yes" name="n34"/>
      <point x="308.8" y="1060.8"/>
      <point x="482.8" y="1274.8"/>
      <point x="755.6" y="1274.8" type="curve" smooth="yes" name="n37"/>
      <point x="1027.6" y="1274.8"/>
      <point x="1200" y="1060.8"/>
    </contour>
  </outline>
</glyph>
